  0
SECTION
  2
HEADER
  9
$ACADVER
  1
AC1009
  9
$EXTMIN
 10
0.0
 20
0.0
 30
0.0
  9
$EXTMAX
 10
1000.0
 20
1000.0
 30
0.0
  9
$FILLMODE
 70
 0
  9
$SPLFRAME
 70
 1
  0
ENDSEC
  0
SECTION
  2
TABLES
  0
TABLE
  2
LAYER
 70
1
  0
LAYER
  2
0
 70
     0
 62
     7
  6
CONTINUOUS
  0
ENDTAB
  0
ENDSEC
  0
SECTION
  2
ENTITIES
  0
LINE
  8
0
 62
     0
 10
0.0509873
 20
46.44
 30
0.0
 11
0.0509873
 21
46.44
 31
0.0
  0
LINE
  8
0
 62
     0
 10
0.0509873
 20
46.44
 30
0.0
 11
0.0509873
 21
47.1205
 31
0.0
  0
LINE
  8
0
 62
     0
 10
0.0509873
 20
47.1205
 30
0.0
 11
0.0509873
 21
48.9148
 31
0.0
  0
LINE
  8
0
 62
     0
 10
0.0509873
 20
48.9148
 30
0.0
 11
0.0509873
 21
51.4505
 31
0.0
  0
LINE
  8
0
 62
     0
 10
0.0509873
 20
51.4505
 30
0.0
 11
0.0509873
 21
54.3567
 31
0.0
  0
LINE
  8
0
 62
     0
 10
0.0509873
 20
54.3567
 30
0.0
 11
0.0509873
 21
57.2629
 31
0.0
  0
LINE
  8
0
 62
     0
 10
0.0509873
 20
57.2629
 30
0.0
 11
0.0509873
 21
59.7987
 31
0.0
  0
LINE
  8
0
 62
     0
 10
0.0509873
 20
59.7987
 30
0.0
 11
0.0509873
 21
61.5929
 31
0.0
  0
LINE
  8
0
 62
     0
 10
0.0509873
 20
61.5929
 30
0.0
 11
0.0509873
 21
62.2723
 31
0.0
  0
LINE
  8
0
 62
     0
 10
0.0509873
 20
62.2723
 30
0.0
 11
0.0509873
 21
62.2723
 31
0.0
  0
LINE
  8
0
 62
     0
 10
0.0509873
 20
62.2723
 30
0.0
 11
0.0509873
 21
62.2723
 31
0.0
  0
LINE
  8
0
 62
     0
 10
0.0509873
 20
62.2723
 30
0.0
 11
0.0509873
 21
62.6692
 31
0.0
  0
LINE
  8
0
 62
     0
 10
0.0509873
 20
62.6692
 30
0.0
 11
0.0509873
 21
63.7148
 31
0.0
  0
LINE
  8
0
 62
     0
 10
0.0509873
 20
63.7148
 30
0.0
 11
0.0509873
 21
65.1923
 31
0.0
  0
LINE
  8
0
 62
     0
 10
0.0509873
 20
65.1923
 30
0.0
 11
0.0509873
 21
66.8874
 31
0.0
  0
LINE
  8
0
 62
     0
 10
0.0509873
 20
66.8874
 30
0.0
 11
0.0509873
 21
68.5821
 31
0.0
  0
LINE
  8
0
 62
     0
 10
0.0509873
 20
68.5821
 30
0.0
 11
0.0509873
 21
70.0595
 31
0.0
  0
LINE
  8
0
 62
     0
 10
0.0509873
 20
70.0595
 30
0.0
 11
0.0509873
 21
71.1055
 31
0.0
  0
LINE
  8
0
 62
     0
 10
0.0509873
 20
71.1055
 30
0.0
 11
0.0509873
 21
71.501
 31
0.0
  0
LINE
  8
0
 62
     0
 10
0.0509873
 20
71.501
 30
0.0
 11
0.0509873
 21
71.501
 31
0.0
  0
LINE
  8
0
 62
     0
 10
0.0509873
 20
71.501
 30
0.0
 11
0.0509873
 21
71.8855
 31
0.0
  0
LINE
  8
0
 62
     0
 10
0.0509873
 20
71.8855
 30
0.0
 11
0.321083
 21
74.0227
 31
0.0
  0
LINE
  8
0
 62
     0
 10
0.321083
 20
74.0227
 30
0.0
 11
0.810288
 21
76.1284
 31
0.0
  0
LINE
  8
0
 62
     0
 10
0.810288
 20
76.1284
 30
0.0
 11
0.921907
 21
76.4963
 31
0.0
  0
LINE
  8
0
 62
     0
 10
0.921907
 20
76.4963
 30
0.0
 11
1.25539
 21
77.6111
 31
0.0
  0
LINE
  8
0
 62
     0
 10
1.25539
 20
77.6111
 30
0.0
 11
2.76021
 21
80.8041
 31
0.0
  0
LINE
  8
0
 62
     0
 10
2.76021
 20
80.8041
 30
0.0
 11
5.48598
 21
84.5894
 31
0.0
  0
LINE
  8
0
 62
     0
 10
5.48598
 20
84.5894
 30
0.0
 11
8.97103
 21
87.6861
 31
0.0
  0
LINE
  8
0
 62
     0
 10
8.97103
 20
87.6861
 30
0.0
 11
12.0096
 21
89.4941
 31
0.0
  0
LINE
  8
0
 62
     0
 10
12.0096
 20
89.4941
 30
0.0
 11
13.09
 21
89.9252
 31
0.0
  0
LINE
  8
0
 62
     0
 10
13.09
 20
89.9252
 30
0.0
 11
13.5985
 21
90.1291
 31
0.0
  0
LINE
  8
0
 62
     0
 10
13.5985
 20
90.1291
 30
0.0
 11
16.4992
 21
91.0085
 31
0.0
  0
LINE
  8
0
 62
     0
 10
16.4992
 20
91.0085
 30
0.0
 11
19.4827
 21
91.4823
 31
0.0
  0
LINE
  8
0
 62
     0
 10
19.4827
 20
91.4823
 30
0.0
 11
20.0326
 21
91.4823
 31
0.0
  0
LINE
  8
0
 62
     0
 10
20.0326
 20
91.4823
 30
0.0
 11
20.0326
 21
91.4823
 31
0.0
  0
LINE
  8
0
 62
     0
 10
20.0326
 20
91.4823
 30
0.0
 11
20.6099
 21
91.4823
 31
0.0
  0
LINE
  8
0
 62
     0
 10
20.6099
 20
91.4823
 30
0.0
 11
22.2443
 21
91.4823
 31
0.0
  0
LINE
  8
0
 62
     0
 10
22.2443
 20
91.4823
 30
0.0
 11
24.7826
 21
91.4823
 31
0.0
  0
LINE
  8
0
 62
     0
 10
24.7826
 20
91.4823
 30
0.0
 11
28.0748
 21
91.4823
 31
0.0
  0
LINE
  8
0
 62
     0
 10
28.0748
 20
91.4823
 30
0.0
 11
31.9719
 21
91.4823
 31
0.0
  0
LINE
  8
0
 62
     0
 10
31.9719
 20
91.4823
 30
0.0
 11
36.3195
 21
91.4823
 31
0.0
  0
LINE
  8
0
 62
     0
 10
36.3195
 20
91.4823
 30
0.0
 11
40.9706
 21
91.4823
 31
0.0
  0
LINE
  8
0
 62
     0
 10
40.9706
 20
91.4823
 30
0.0
 11
45.7715
 21
91.4823
 31
0.0
  0
LINE
  8
0
 62
     0
 10
45.7715
 20
91.4823
 30
0.0
 11
50.5714
 21
91.4823
 31
0.0
  0
LINE
  8
0
 62
     0
 10
50.5714
 20
91.4823
 30
0.0
 11
55.2221
 21
91.4823
 31
0.0
  0
LINE
  8
0
 62
     0
 10
55.2221
 20
91.4823
 30
0.0
 11
59.5697
 21
91.4823
 31
0.0
  0
LINE
  8
0
 62
     0
 10
59.5697
 20
91.4823
 30
0.0
 11
63.4668
 21
91.4823
 31
0.0
  0
LINE
  8
0
 62
     0
 10
63.4668
 20
91.4823
 30
0.0
 11
66.759
 21
91.4823
 31
0.0
  0
LINE
  8
0
 62
     0
 10
66.759
 20
91.4823
 30
0.0
 11
69.2976
 21
91.4823
 31
0.0
  0
LINE
  8
0
 62
     0
 10
69.2976
 20
91.4823
 30
0.0
 11
70.9316
 21
91.4823
 31
0.0
  0
LINE
  8
0
 62
     0
 10
70.9316
 20
91.4823
 30
0.0
 11
71.5105
 21
91.4823
 31
0.0
  0
LINE
  8
0
 62
     0
 10
71.5105
 20
91.4823
 30
0.0
 11
71.5105
 21
91.4823
 31
0.0
  0
LINE
  8
0
 62
     0
 10
71.5105
 20
91.4823
 30
0.0
 11
71.9776
 21
91.4823
 31
0.0
  0
LINE
  8
0
 62
     0
 10
71.9776
 20
91.4823
 30
0.0
 11
74.6428
 21
91.0953
 31
0.0
  0
LINE
  8
0
 62
     0
 10
74.6428
 20
91.0953
 30
0.0
 11
77.2513
 21
90.3813
 31
0.0
  0
LINE
  8
0
 62
     0
 10
77.2513
 20
90.3813
 30
0.0
 11
77.6912
 21
90.2173
 31
0.0
  0
LINE
  8
0
 62
     0
 10
77.6912
 20
90.2173
 30
0.0
 11
78.8377
 21
89.7901
 31
0.0
  0
LINE
  8
0
 62
     0
 10
78.8377
 20
89.7901
 30
0.0
 11
82.0896
 21
87.9905
 31
0.0
  0
LINE
  8
0
 62
     0
 10
82.0896
 20
87.9905
 30
0.0
 11
85.7871
 21
84.8928
 31
0.0
  0
LINE
  8
0
 62
     0
 10
85.7871
 20
84.8928
 30
0.0
 11
88.6686
 21
81.026
 31
0.0
  0
LINE
  8
0
 62
     0
 10
88.6686
 20
81.026
 30
0.0
 11
90.2684
 21
77.6704
 31
0.0
  0
LINE
  8
0
 62
     0
 10
90.2684
 20
77.6704
 30
0.0
 11
90.6212
 21
76.4963
 31
0.0
  0
LINE
  8
0
 62
     0
 10
90.6212
 20
76.4963
 30
0.0
 11
90.7313
 21
76.1284
 31
0.0
  0
LINE
  8
0
 62
     0
 10
90.7313
 20
76.1284
 30
0.0
 11
91.2206
 21
74.0227
 31
0.0
  0
LINE
  8
0
 62
     0
 10
91.2206
 20
74.0227
 30
0.0
 11
91.4894
 21
71.8855
 31
0.0
  0
LINE
  8
0
 62
     0
 10
91.4894
 20
71.8855
 30
0.0
 11
91.4908
 21
71.501
 31
0.0
  0
LINE
  8
0
 62
     0
 10
91.4908
 20
71.501
 30
0.0
 11
91.4908
 21
71.501
 31
0.0
  0
LINE
  8
0
 62
     0
 10
91.4908
 20
71.501
 30
0.0
 11
91.4908
 21
70.4247
 31
0.0
  0
LINE
  8
0
 62
     0
 10
91.4908
 20
70.4247
 30
0.0
 11
91.4908
 21
67.5859
 31
0.0
  0
LINE
  8
0
 62
     0
 10
91.4908
 20
67.5859
 30
0.0
 11
91.4908
 21
63.5716
 31
0.0
  0
LINE
  8
0
 62
     0
 10
91.4908
 20
63.5716
 30
0.0
 11
91.4908
 21
58.9703
 31
0.0
  0
LINE
  8
0
 62
     0
 10
91.4908
 20
58.9703
 30
0.0
 11
91.4908
 21
54.3705
 31
0.0
  0
LINE
  8
0
 62
     0
 10
91.4908
 20
54.3705
 30
0.0
 11
91.4908
 21
50.3562
 31
0.0
  0
LINE
  8
0
 62
     0
 10
91.4908
 20
50.3562
 30
0.0
 11
91.4908
 21
47.5174
 31
0.0
  0
LINE
  8
0
 62
     0
 10
91.4908
 20
47.5174
 30
0.0
 11
91.4908
 21
46.44
 31
0.0
  0
LINE
  8
0
 62
     0
 10
91.4908
 20
46.44
 30
0.0
 11
91.4908
 21
46.44
 31
0.0
  0
LINE
  8
0
 62
     0
 10
91.4908
 20
46.44
 30
0.0
 11
91.4908
 21
46.44
 31
0.0
  0
LINE
  8
0
 62
     0
 10
91.4908
 20
46.44
 30
0.0
 11
91.1049
 21
46.44
 31
0.0
  0
LINE
  8
0
 62
     0
 10
91.1049
 20
46.44
 30
0.0
 11
90.0878
 21
46.44
 31
0.0
  0
LINE
  8
0
 62
     0
 10
90.0878
 20
46.44
 30
0.0
 11
88.6506
 21
46.44
 31
0.0
  0
LINE
  8
0
 62
     0
 10
88.6506
 20
46.44
 30
0.0
 11
87.0038
 21
46.44
 31
0.0
  0
LINE
  8
0
 62
     0
 10
87.0038
 20
46.44
 30
0.0
 11
85.3556
 21
46.44
 31
0.0
  0
LINE
  8
0
 62
     0
 10
85.3556
 20
46.44
 30
0.0
 11
83.9184
 21
46.44
 31
0.0
  0
LINE
  8
0
 62
     0
 10
83.9184
 20
46.44
 30
0.0
 11
82.9014
 21
46.44
 31
0.0
  0
LINE
  8
0
 62
     0
 10
82.9014
 20
46.44
 30
0.0
 11
82.5168
 21
46.44
 31
0.0
  0
LINE
  8
0
 62
     0
 10
82.5168
 20
46.44
 30
0.0
 11
82.5168
 21
46.44
 31
0.0
  0
LINE
  8
0
 62
     0
 10
82.5168
 20
46.44
 30
0.0
 11
82.127
 21
46.44
 31
0.0
  0
LINE
  8
0
 62
     0
 10
82.127
 20
46.44
 30
0.0
 11
80.9583
 21
46.4316
 31
0.0
  0
LINE
  8
0
 62
     0
 10
80.9583
 20
46.4316
 30
0.0
 11
79.5281
 21
46.5296
 31
0.0
  0
LINE
  8
0
 62
     0
 10
79.5281
 20
46.5296
 30
0.0
 11
78.1734
 21
46.9251
 31
0.0
  0
LINE
  8
0
 62
     0
 10
78.1734
 20
46.9251
 30
0.0
 11
77.1384
 21
47.5463
 31
0.0
  0
LINE
  8
0
 62
     0
 10
77.1384
 20
47.5463
 30
0.0
 11
76.8435
 21
47.8095
 31
0.0
  0
LINE
  8
0
 62
     0
 10
76.8435
 20
47.8095
 30
0.0
 11
76.5376
 21
48.0826
 31
0.0
  0
LINE
  8
0
 62
     0
 10
76.5376
 20
48.0826
 30
0.0
 11
75.7135
 21
49.003
 31
0.0
  0
LINE
  8
0
 62
     0
 10
75.7135
 20
49.003
 30
0.0
 11
74.9667
 21
50.1495
 31
0.0
  0
LINE
  8
0
 62
     0
 10
74.9667
 20
50.1495
 30
0.0
 11
74.356
 21
51.35
 31
0.0
  0
LINE
  8
0
 62
     0
 10
74.356
 20
51.35
 30
0.0
 11
73.8297
 21
52.3752
 31
0.0
  0
LINE
  8
0
 62
     0
 10
73.8297
 20
52.3752
 30
0.0
 11
73.6367
 21
52.7057
 31
0.0
  0
LINE
  8
0
 62
     0
 10
73.6367
 20
52.7057
 30
0.0
 11
73.5803
 21
52.8038
 31
0.0
  0
LINE
  8
0
 62
     0
 10
73.5803
 20
52.8038
 30
0.0
 11
73.3792
 21
53.0751
 31
0.0
  0
LINE
  8
0
 62
     0
 10
73.3792
 20
53.0751
 30
0.0
 11
73.0402
 21
53.3922
 31
0.0
  0
LINE
  8
0
 62
     0
 10
73.0402
 20
53.3922
 30
0.0
 11
72.6405
 21
53.5411
 31
0.0
  0
LINE
  8
0
 62
     0
 10
72.6405
 20
53.5411
 30
0.0
 11
72.2905
 21
53.4681
 31
0.0
  0
LINE
  8
0
 62
     0
 10
72.2905
 20
53.4681
 30
0.0
 11
72.2023
 21
53.4046
 31
0.0
  0
LINE
  8
0
 62
     0
 10
72.2023
 20
53.4046
 30
0.0
 11
72.0908
 21
53.3259
 31
0.0
  0
LINE
  8
0
 62
     0
 10
72.0908
 20
53.3259
 30
0.0
 11
71.7434
 21
52.7032
 31
0.0
  0
LINE
  8
0
 62
     0
 10
71.7434
 20
52.7032
 30
0.0
 11
71.5793
 21
51.985
 31
0.0
  0
LINE
  8
0
 62
     0
 10
71.5793
 20
51.985
 30
0.0
 11
71.5603
 21
51.8583
 31
0.0
  0
LINE
  8
0
 62
     0
 10
71.5603
 20
51.8583
 30
0.0
 11
71.5603
 21
51.8583
 31
0.0
  0
LINE
  8
0
 62
     0
 10
71.5603
 20
51.8583
 30
0.0
 11
71.5423
 21
51.6876
 31
0.0
  0
LINE
  8
0
 62
     0
 10
71.5423
 20
51.6876
 30
0.0
 11
71.4968
 21
51.2367
 31
0.0
  0
LINE
  8
0
 62
     0
 10
71.4968
 20
51.2367
 30
0.0
 11
71.4319
 21
50.6003
 31
0.0
  0
LINE
  8
0
 62
     0
 10
71.4319
 20
50.6003
 30
0.0
 11
71.3574
 21
49.8697
 31
0.0
  0
LINE
  8
0
 62
     0
 10
71.3574
 20
49.8697
 30
0.0
 11
71.2833
 21
49.1395
 31
0.0
  0
LINE
  8
0
 62
     0
 10
71.2833
 20
49.1395
 30
0.0
 11
71.2184
 21
48.5027
 31
0.0
  0
LINE
  8
0
 62
     0
 10
71.2184
 20
48.5027
 30
0.0
 11
71.1729
 21
48.0522
 31
0.0
  0
LINE
  8
0
 62
     0
 10
71.1729
 20
48.0522
 30
0.0
 11
71.1563
 21
47.8801
 31
0.0
  0
LINE
  8
0
 62
     0
 10
71.1563
 20
47.8801
 30
0.0
 11
71.1563
 21
47.8801
 31
0.0
  0
LINE
  8
0
 62
     0
 10
71.1563
 20
47.8801
 30
0.0
 11
71.0449
 21
46.7335
 31
0.0
  0
LINE
  8
0
 62
     0
 10
71.0449
 20
46.7335
 30
0.0
 11
70.2952
 21
40.4978
 31
0.0
  0
LINE
  8
0
 62
     0
 10
70.2952
 20
40.4978
 30
0.0
 11
69.1857
 21
34.3407
 31
0.0
  0
LINE
  8
0
 62
     0
 10
69.1857
 20
34.3407
 30
0.0
 11
68.895
 21
33.2328
 31
0.0
  0
LINE
  8
0
 62
     0
 10
68.895
 20
33.2328
 30
0.0
 11
68.8012
 21
32.8772
 31
0.0
  0
LINE
  8
0
 62
     0
 10
68.8012
 20
32.8772
 30
0.0
 11
68.1909
 21
30.9218
 31
0.0
  0
LINE
  8
0
 62
     0
 10
68.1909
 20
30.9218
 30
0.0
 11
67.3791
 21
29.0559
 31
0.0
  0
LINE
  8
0
 62
     0
 10
67.3791
 20
29.0559
 30
0.0
 11
67.1862
 21
28.7445
 31
0.0
  0
LINE
  8
0
 62
     0
 10
67.1862
 20
28.7445
 30
0.0
 11
67.1255
 21
28.6494
 31
0.0
  0
LINE
  8
0
 62
     0
 10
67.1255
 20
28.6494
 30
0.0
 11
66.9286
 21
28.3711
 31
0.0
  0
LINE
  8
0
 62
     0
 10
66.9286
 20
28.3711
 30
0.0
 11
66.5949
 21
28.0017
 31
0.0
  0
LINE
  8
0
 62
     0
 10
66.5949
 20
28.0017
 30
0.0
 11
66.198
 21
27.7385
 31
0.0
  0
LINE
  8
0
 62
     0
 10
66.198
 20
27.7385
 30
0.0
 11
65.858
 21
27.6628
 31
0.0
  0
LINE
  8
0
 62
     0
 10
65.858
 20
27.6628
 30
0.0
 11
65.7532
 21
27.6806
 31
0.0
  0
LINE
  8
0
 62
     0
 10
65.7532
 20
27.6806
 30
0.0
 11
65.6636
 21
27.6958
 31
0.0
  0
LINE
  8
0
 62
     0
 10
65.6636
 20
27.6958
 30
0.0
 11
65.2321
 21
27.9356
 31
0.0
  0
LINE
  8
0
 62
     0
 10
65.2321
 20
27.9356
 30
0.0
 11
64.8589
 21
28.2718
 31
0.0
  0
LINE
  8
0
 62
     0
 10
64.8589
 20
28.2718
 30
0.0
 11
64.7996
 21
28.3352
 31
0.0
  0
LINE
  8
0
 62
     0
 10
64.7996
 20
28.3352
 30
0.0
 11
64.6356
 21
28.513
 31
0.0
  0
LINE
  8
0
 62
     0
 10
64.6356
 20
28.513
 30
0.0
 11
63.9713
 21
29.5024
 31
0.0
  0
LINE
  8
0
 62
     0
 10
63.9713
 20
29.5024
 30
0.0
 11
63.4242
 21
30.5635
 31
0.0
  0
LINE
  8
0
 62
     0
 10
63.4242
 20
30.5635
 30
0.0
 11
63.318
 21
30.7771
 31
0.0
  0
LINE
  8
0
 62
     0
 10
63.318
 20
30.7771
 30
0.0
 11
63.0245
 21
31.3683
 31
0.0
  0
LINE
  8
0
 62
     0
 10
63.0245
 20
31.3683
 30
0.0
 11
62.3175
 21
33.2273
 31
0.0
  0
LINE
  8
0
 62
     0
 10
62.3175
 20
33.2273
 30
0.0
 11
61.3862
 21
36.1943
 31
0.0
  0
LINE
  8
0
 62
     0
 10
61.3862
 20
36.1943
 30
0.0
 11
60.5801
 21
39.2257
 31
0.0
  0
LINE
  8
0
 62
     0
 10
60.5801
 20
39.2257
 30
0.0
 11
60.1059
 21
41.2062
 31
0.0
  0
LINE
  8
0
 62
     0
 10
60.1059
 20
41.2062
 30
0.0
 11
59.9599
 21
41.8677
 31
0.0
  0
LINE
  8
0
 62
     0
 10
59.9599
 20
41.8677
 30
0.0
 11
59.9599
 21
41.8677
 31
0.0
  0
LINE
  8
0
 62
     0
 10
59.9599
 20
41.8677
 30
0.0
 11
59.8703
 21
42.3153
 31
0.0
  0
LINE
  8
0
 62
     0
 10
59.8703
 20
42.3153
 30
0.0
 11
59.636
 21
43.495
 31
0.0
  0
LINE
  8
0
 62
     0
 10
59.636
 20
43.495
 30
0.0
 11
59.3065
 21
45.1637
 31
0.0
  0
LINE
  8
0
 62
     0
 10
59.3065
 20
45.1637
 30
0.0
 11
58.9276
 21
47.075
 31
0.0
  0
LINE
  8
0
 62
     0
 10
58.9276
 20
47.075
 30
0.0
 11
58.5474
 21
48.9878
 31
0.0
  0
LINE
  8
0
 62
     0
 10
58.5474
 20
48.9878
 30
0.0
 11
58.2179
 21
50.6568
 31
0.0
  0
LINE
  8
0
 62
     0
 10
58.2179
 20
50.6568
 30
0.0
 11
57.9836
 21
51.8365
 31
0.0
  0
LINE
  8
0
 62
     0
 10
57.9836
 20
51.8365
 30
0.0
 11
57.8954
 21
52.2827
 31
0.0
  0
LINE
  8
0
 62
     0
 10
57.8954
 20
52.2827
 30
0.0
 11
57.8954
 21
52.2827
 31
0.0
  0
LINE
  8
0
 62
     0
 10
57.8954
 20
52.2827
 30
0.0
 11
57.8954
 21
52.2827
 31
0.0
  0
LINE
  8
0
 62
     0
 10
57.8954
 20
52.2827
 30
0.0
 11
57.7716
 21
52.8768
 31
0.0
  0
LINE
  8
0
 62
     0
 10
57.7716
 20
52.8768
 30
0.0
 11
57.4477
 21
54.4393
 31
0.0
  0
LINE
  8
0
 62
     0
 10
57.4477
 20
54.4393
 30
0.0
 11
56.9902
 21
56.6498
 31
0.0
  0
LINE
  8
0
 62
     0
 10
56.9902
 20
56.6498
 30
0.0
 11
56.4653
 21
59.1827
 31
0.0
  0
LINE
  8
0
 62
     0
 10
56.4653
 20
59.1827
 30
0.0
 11
55.94
 21
61.7167
 31
0.0
  0
LINE
  8
0
 62
     0
 10
55.94
 20
61.7167
 30
0.0
 11
55.4824
 21
63.9272
 31
0.0
  0
LINE
  8
0
 62
     0
 10
55.4824
 20
63.9272
 30
0.0
 11
55.1586
 21
65.49
 31
0.0
  0
LINE
  8
0
 62
     0
 10
55.1586
 20
65.49
 30
0.0
 11
55.0362
 21
66.0823
 31
0.0
  0
LINE
  8
0
 62
     0
 10
55.0362
 20
66.0823
 30
0.0
 11
55.0362
 21
66.0823
 31
0.0
  0
LINE
  8
0
 62
     0
 10
55.0362
 20
66.0823
 30
0.0
 11
55.0362
 21
66.0823
 31
0.0
  0
LINE
  8
0
 62
     0
 10
55.0362
 20
66.0823
 30
0.0
 11
54.9437
 21
66.4725
 31
0.0
  0
LINE
  8
0
 62
     0
 10
54.9437
 20
66.4725
 30
0.0
 11
54.7014
 21
67.4991
 31
0.0
  0
LINE
  8
0
 62
     0
 10
54.7014
 20
67.4991
 30
0.0
 11
54.3581
 21
68.9501
 31
0.0
  0
LINE
  8
0
 62
     0
 10
54.3581
 20
68.9501
 30
0.0
 11
53.9655
 21
70.612
 31
0.0
  0
LINE
  8
0
 62
     0
 10
53.9655
 20
70.612
 30
0.0
 11
53.5725
 21
72.2753
 31
0.0
  0
LINE
  8
0
 62
     0
 10
53.5725
 20
72.2753
 30
0.0
 11
53.2296
 21
73.7263
 31
0.0
  0
LINE
  8
0
 62
     0
 10
53.2296
 20
73.7263
 30
0.0
 11
52.9869
 21
74.7529
 31
0.0
  0
LINE
  8
0
 62
     0
 10
52.9869
 20
74.7529
 30
0.0
 11
52.8959
 21
75.1417
 31
0.0
  0
LINE
  8
0
 62
     0
 10
52.8959
 20
75.1417
 30
0.0
 11
52.8959
 21
75.1417
 31
0.0
  0
LINE
  8
0
 62
     0
 10
52.8959
 20
75.1417
 30
0.0
 11
52.7085
 21
75.8335
 31
0.0
  0
LINE
  8
0
 62
     0
 10
52.7085
 20
75.8335
 30
0.0
 11
51.755
 21
79.2868
 31
0.0
  0
LINE
  8
0
 62
     0
 10
51.755
 20
79.2868
 30
0.0
 11
50.643
 21
82.6893
 31
0.0
  0
LINE
  8
0
 62
     0
 10
50.643
 20
82.6893
 30
0.0
 11
50.377
 21
83.3547
 31
0.0
  0
LINE
  8
0
 62
     0
 10
50.377
 20
83.3547
 30
0.0
 11
50.2902
 21
83.5723
 31
0.0
  0
LINE
  8
0
 62
     0
 10
50.2902
 20
83.5723
 30
0.0
 11
50.0119
 21
84.22
 31
0.0
  0
LINE
  8
0
 62
     0
 10
50.0119
 20
84.22
 30
0.0
 11
49.542
 21
85.1588
 31
0.0
  0
LINE
  8
0
 62
     0
 10
49.542
 20
85.1588
 30
0.0
 11
48.9726
 21
86.0185
 31
0.0
  0
LINE
  8
0
 62
     0
 10
48.9726
 20
86.0185
 30
0.0
 11
48.4988
 21
86.5244
 31
0.0
  0
LINE
  8
0
 62
     0
 10
48.4988
 20
86.5244
 30
0.0
 11
48.3112
 21
86.6468
 31
0.0
  0
LINE
  8
0
 62
     0
 10
48.3112
 20
86.6468
 30
0.0
 11
48.1736
 21
86.7364
 31
0.0
  0
LINE
  8
0
 62
     0
 10
48.1736
 20
86.7364
 30
0.0
 11
47.6885
 21
86.8909
 31
0.0
  0
LINE
  8
0
 62
     0
 10
47.6885
 20
86.8909
 30
0.0
 11
47.1205
 21
86.8179
 31
0.0
  0
LINE
  8
0
 62
     0
 10
47.1205
 20
86.8179
 30
0.0
 11
46.6164
 21
86.4941
 31
0.0
  0
LINE
  8
0
 62
     0
 10
46.6164
 20
86.4941
 30
0.0
 11
46.2802
 21
86.1191
 31
0.0
  0
LINE
  8
0
 62
     0
 10
46.2802
 20
86.1191
 30
0.0
 11
46.1906
 21
85.9801
 31
0.0
  0
LINE
  8
0
 62
     0
 10
46.1906
 20
85.9801
 30
0.0
 11
46.0498
 21
85.7649
 31
0.0
  0
LINE
  8
0
 62
     0
 10
46.0498
 20
85.7649
 30
0.0
 11
45.7412
 21
85.047
 31
0.0
  0
LINE
  8
0
 62
     0
 10
45.7412
 20
85.047
 30
0.0
 11
45.387
 21
83.8962
 31
0.0
  0
LINE
  8
0
 62
     0
 10
45.387
 20
83.8962
 30
0.0
 11
45.1196
 21
82.7084
 31
0.0
  0
LINE
  8
0
 62
     0
 10
45.1196
 20
82.7084
 30
0.0
 11
44.9735
 21
81.9245
 31
0.0
  0
LINE
  8
0
 62
     0
 10
44.9735
 20
81.9245
 30
0.0
 11
44.9308
 21
81.661
 31
0.0
  0
LINE
  8
0
 62
     0
 10
44.9308
 20
81.661
 30
0.0
 11
44.8303
 21
81.0588
 31
0.0
  0
LINE
  8
0
 62
     0
 10
44.8303
 20
81.0588
 30
0.0
 11
44.1964
 21
74.9886
 31
0.0
  0
LINE
  8
0
 62
     0
 10
44.1964
 20
74.9886
 30
0.0
 11
44.1551
 21
74.3797
 31
0.0
  0
LINE
  8
0
 62
     0
 10
44.1551
 20
74.3797
 30
0.0
 11
44.1551
 21
74.3797
 31
0.0
  0
LINE
  8
0
 62
     0
 10
44.1551
 20
74.3797
 30
0.0
 11
44.129
 21
73.9965
 31
0.0
  0
LINE
  8
0
 62
     0
 10
44.129
 20
73.9965
 30
0.0
 11
44.0739
 21
73.1531
 31
0.0
  0
LINE
  8
0
 62
     0
 10
44.0739
 20
73.1531
 30
0.0
 11
44.0186
 21
72.3099
 31
0.0
  0
LINE
  8
0
 62
     0
 10
44.0186
 20
72.3099
 30
0.0
 11
43.9939
 21
71.9254
 31
0.0
  0
LINE
  8
0
 62
     0
 10
43.9939
 20
71.9254
 30
0.0
 11
43.9939
 21
71.9254
 31
0.0
  0
LINE
  8
0
 62
     0
 10
43.9939
 20
71.9254
 30
0.0
 11
43.9939
 21
71.9254
 31
0.0
  0
LINE
  8
0
 62
     0
 10
43.9939
 20
71.9254
 30
0.0
 11
43.9801
 21
71.7144
 31
0.0
  0
LINE
  8
0
 62
     0
 10
43.9801
 20
71.7144
 30
0.0
 11
43.9512
 21
71.2488
 31
0.0
  0
LINE
  8
0
 62
     0
 10
43.9512
 20
71.2488
 30
0.0
 11
43.9208
 21
70.7831
 31
0.0
  0
LINE
  8
0
 62
     0
 10
43.9208
 20
70.7831
 30
0.0
 11
43.9085
 21
70.5707
 31
0.0
  0
LINE
  8
0
 62
     0
 10
43.9085
 20
70.5707
 30
0.0
 11
43.9085
 21
70.5707
 31
0.0
  0
LINE
  8
0
 62
     0
 10
43.9085
 20
70.5707
 30
0.0
 11
43.9085
 21
70.5707
 31
0.0
  0
LINE
  8
0
 62
     0
 10
43.9085
 20
70.5707
 30
0.0
 11
43.8947
 21
70.2137
 31
0.0
  0
LINE
  8
0
 62
     0
 10
43.8947
 20
70.2137
 30
0.0
 11
43.8658
 21
69.4284
 31
0.0
  0
LINE
  8
0
 62
     0
 10
43.8658
 20
69.4284
 30
0.0
 11
43.8369
 21
68.6428
 31
0.0
  0
LINE
  8
0
 62
     0
 10
43.8369
 20
68.6428
 30
0.0
 11
43.8245
 21
68.2847
 31
0.0
  0
LINE
  8
0
 62
     0
 10
43.8245
 20
68.2847
 30
0.0
 11
43.8245
 21
68.2847
 31
0.0
  0
LINE
  8
0
 62
     0
 10
43.8245
 20
68.2847
 30
0.0
 11
43.8245
 21
68.2847
 31
0.0
  0
LINE
  8
0
 62
     0
 10
43.8245
 20
68.2847
 30
0.0
 11
43.8108
 21
68.0861
 31
0.0
  0
LINE
  8
0
 62
     0
 10
43.8108
 20
68.0861
 30
0.0
 11
43.7815
 21
67.6494
 31
0.0
  0
LINE
  8
0
 62
     0
 10
43.7815
 20
67.6494
 30
0.0
 11
43.7515
 21
67.2137
 31
0.0
  0
LINE
  8
0
 62
     0
 10
43.7515
 20
67.2137
 30
0.0
 11
43.7388
 21
67.014
 31
0.0
  0
LINE
  8
0
 62
     0
 10
43.7388
 20
67.014
 30
0.0
 11
43.7388
 21
67.014
 31
0.0
  0
LINE
  8
0
 62
     0
 10
43.7388
 20
67.014
 30
0.0
 11
43.7388
 21
67.014
 31
0.0
  0
LINE
  8
0
 62
     0
 10
43.7388
 20
67.014
 30
0.0
 11
43.725
 21
66.4464
 31
0.0
  0
LINE
  8
0
 62
     0
 10
43.725
 20
66.4464
 30
0.0
 11
43.6961
 21
65.1937
 31
0.0
  0
LINE
  8
0
 62
     0
 10
43.6961
 20
65.1937
 30
0.0
 11
43.6672
 21
63.9424
 31
0.0
  0
LINE
  8
0
 62
     0
 10
43.6672
 20
63.9424
 30
0.0
 11
43.6548
 21
63.3734
 31
0.0
  0
LINE
  8
0
 62
     0
 10
43.6548
 20
63.3734
 30
0.0
 11
43.6548
 21
63.3734
 31
0.0
  0
LINE
  8
0
 62
     0
 10
43.6548
 20
63.3734
 30
0.0
 11
43.6548
 21
63.3734
 31
0.0
  0
LINE
  8
0
 62
     0
 10
43.6548
 20
63.3734
 30
0.0
 11
43.6411
 21
63.1486
 31
0.0
  0
LINE
  8
0
 62
     0
 10
43.6411
 20
63.1486
 30
0.0
 11
43.6122
 21
62.654
 31
0.0
  0
LINE
  8
0
 62
     0
 10
43.6122
 20
62.654
 30
0.0
 11
43.5818
 21
62.1605
 31
0.0
  0
LINE
  8
0
 62
     0
 10
43.5818
 20
62.1605
 30
0.0
 11
43.5695
 21
61.9347
 31
0.0
  0
LINE
  8
0
 62
     0
 10
43.5695
 20
61.9347
 30
0.0
 11
43.5695
 21
61.9347
 31
0.0
  0
LINE
  8
0
 62
     0
 10
43.5695
 20
61.9347
 30
0.0
 11
43.5695
 21
61.9347
 31
0.0
  0
LINE
  8
0
 62
     0
 10
43.5695
 20
61.9347
 30
0.0
 11
43.5695
 21
61.5654
 31
0.0
  0
LINE
  8
0
 62
     0
 10
43.5695
 20
61.5654
 30
0.0
 11
43.5695
 21
60.7494
 31
0.0
  0
LINE
  8
0
 62
     0
 10
43.5695
 20
60.7494
 30
0.0
 11
43.5695
 21
59.9338
 31
0.0
  0
LINE
  8
0
 62
     0
 10
43.5695
 20
59.9338
 30
0.0
 11
43.5695
 21
59.563
 31
0.0
  0
LINE
  8
0
 62
     0
 10
43.5695
 20
59.563
 30
0.0
 11
43.5695
 21
59.563
 31
0.0
  0
LINE
  8
0
 62
     0
 10
43.5695
 20
59.563
 30
0.0
 11
43.5695
 21
59.563
 31
0.0
  0
LINE
  8
0
 62
     0
 10
43.5695
 20
59.563
 30
0.0
 11
43.5557
 21
59.3383
 31
0.0
  0
LINE
  8
0
 62
     0
 10
43.5557
 20
59.3383
 30
0.0
 11
43.5268
 21
58.8437
 31
0.0
  0
LINE
  8
0
 62
     0
 10
43.5268
 20
58.8437
 30
0.0
 11
43.4979
 21
58.3501
 31
0.0
  0
LINE
  8
0
 62
     0
 10
43.4979
 20
58.3501
 30
0.0
 11
43.4855
 21
58.1244
 31
0.0
  0
LINE
  8
0
 62
     0
 10
43.4855
 20
58.1244
 30
0.0
 11
43.4855
 21
58.1244
 31
0.0
  0
LINE
  8
0
 62
     0
 10
43.4855
 20
58.1244
 30
0.0
 11
43.4855
 21
58.1244
 31
0.0
  0
LINE
  8
0
 62
     0
 10
43.4855
 20
58.1244
 30
0.0
 11
43.4855
 21
57.9328
 31
0.0
  0
LINE
  8
0
 62
     0
 10
43.4855
 20
57.9328
 30
0.0
 11
43.4855
 21
57.4241
 31
0.0
  0
LINE
  8
0
 62
     0
 10
43.4855
 20
57.4241
 30
0.0
 11
43.4855
 21
56.7048
 31
0.0
  0
LINE
  8
0
 62
     0
 10
43.4855
 20
56.7048
 30
0.0
 11
43.4855
 21
55.8807
 31
0.0
  0
LINE
  8
0
 62
     0
 10
43.4855
 20
55.8807
 30
0.0
 11
43.4855
 21
55.058
 31
0.0
  0
LINE
  8
0
 62
     0
 10
43.4855
 20
55.058
 30
0.0
 11
43.4855
 21
54.3387
 31
0.0
  0
LINE
  8
0
 62
     0
 10
43.4855
 20
54.3387
 30
0.0
 11
43.4855
 21
53.8304
 31
0.0
  0
LINE
  8
0
 62
     0
 10
43.4855
 20
53.8304
 30
0.0
 11
43.4855
 21
53.6374
 31
0.0
  0
LINE
  8
0
 62
     0
 10
43.4855
 20
53.6374
 30
0.0
 11
43.4855
 21
53.6374
 31
0.0
  0
LINE
  8
0
 62
     0
 10
43.4855
 20
53.6374
 30
0.0
 11
43.4855
 21
53.6374
 31
0.0
  0
LINE
  8
0
 62
     0
 10
43.4855
 20
53.6374
 30
0.0
 11
43.4717
 21
53.4127
 31
0.0
  0
LINE
  8
0
 62
     0
 10
43.4717
 20
53.4127
 30
0.0
 11
43.4428
 21
52.9181
 31
0.0
  0
LINE
  8
0
 62
     0
 10
43.4428
 20
52.9181
 30
0.0
 11
43.4125
 21
52.4235
 31
0.0
  0
LINE
  8
0
 62
     0
 10
43.4125
 20
52.4235
 30
0.0
 11
43.3998
 21
52.1974
 31
0.0
  0
LINE
  8
0
 62
     0
 10
43.3998
 20
52.1974
 30
0.0
 11
43.3998
 21
52.1974
 31
0.0
  0
LINE
  8
0
 62
     0
 10
43.3998
 20
52.1974
 30
0.0
 11
43.3998
 21
52.1974
 31
0.0
  0
LINE
  8
0
 62
     0
 10
43.3998
 20
52.1974
 30
0.0
 11
43.3998
 21
51.4738
 31
0.0
  0
LINE
  8
0
 62
     0
 10
43.3998
 20
51.4738
 30
0.0
 11
43.3998
 21
49.5653
 31
0.0
  0
LINE
  8
0
 62
     0
 10
43.3998
 20
49.5653
 30
0.0
 11
43.3998
 21
46.8672
 31
0.0
  0
LINE
  8
0
 62
     0
 10
43.3998
 20
46.8672
 30
0.0
 11
43.3998
 21
43.7734
 31
0.0
  0
LINE
  8
0
 62
     0
 10
43.3998
 20
43.7734
 30
0.0
 11
43.3998
 21
40.6809
 31
0.0
  0
LINE
  8
0
 62
     0
 10
43.3998
 20
40.6809
 30
0.0
 11
43.3998
 21
37.9829
 31
0.0
  0
LINE
  8
0
 62
     0
 10
43.3998
 20
37.9829
 30
0.0
 11
43.3998
 21
36.0744
 31
0.0
  0
LINE
  8
0
 62
     0
 10
43.3998
 20
36.0744
 30
0.0
 11
43.3998
 21
35.3494
 31
0.0
  0
LINE
  8
0
 62
     0
 10
43.3998
 20
35.3494
 30
0.0
 11
43.3998
 21
35.3494
 31
0.0
  0
LINE
  8
0
 62
     0
 10
43.3998
 20
35.3494
 30
0.0
 11
43.3998
 21
35.3494
 31
0.0
  0
LINE
  8
0
 62
     0
 10
43.3998
 20
35.3494
 30
0.0
 11
43.386
 21
35.151
 31
0.0
  0
LINE
  8
0
 62
     0
 10
43.386
 20
35.151
 30
0.0
 11
43.3571
 21
34.7141
 31
0.0
  0
LINE
  8
0
 62
     0
 10
43.3571
 20
34.7141
 30
0.0
 11
43.3282
 21
34.2787
 31
0.0
  0
LINE
  8
0
 62
     0
 10
43.3282
 20
34.2787
 30
0.0
 11
43.3158
 21
34.0789
 31
0.0
  0
LINE
  8
0
 62
     0
 10
43.3158
 20
34.0789
 30
0.0
 11
43.3158
 21
34.0789
 31
0.0
  0
LINE
  8
0
 62
     0
 10
43.3158
 20
34.0789
 30
0.0
 11
43.3158
 21
34.0789
 31
0.0
  0
LINE
  8
0
 62
     0
 10
43.3158
 20
34.0789
 30
0.0
 11
43.3158
 21
33.0867
 31
0.0
  0
LINE
  8
0
 62
     0
 10
43.3158
 20
33.0867
 30
0.0
 11
43.3158
 21
30.9039
 31
0.0
  0
LINE
  8
0
 62
     0
 10
43.3158
 20
30.9039
 30
0.0
 11
43.3158
 21
28.7211
 31
0.0
  0
LINE
  8
0
 62
     0
 10
43.3158
 20
28.7211
 30
0.0
 11
43.3158
 21
27.7289
 31
0.0
  0
LINE
  8
0
 62
     0
 10
43.3158
 20
27.7289
 30
0.0
 11
43.3158
 21
27.7289
 31
0.0
  0
LINE
  8
0
 62
     0
 10
43.3158
 20
27.7289
 30
0.0
 11
43.3158
 21
27.7289
 31
0.0
  0
LINE
  8
0
 62
     0
 10
43.3158
 20
27.7289
 30
0.0
 11
43.3021
 21
27.5305
 31
0.0
  0
LINE
  8
0
 62
     0
 10
43.3021
 20
27.5305
 30
0.0
 11
43.2731
 21
27.0936
 31
0.0
  0
LINE
  8
0
 62
     0
 10
43.2731
 20
27.0936
 30
0.0
 11
43.2442
 21
26.6581
 31
0.0
  0
LINE
  8
0
 62
     0
 10
43.2442
 20
26.6581
 30
0.0
 11
43.2319
 21
26.4583
 31
0.0
  0
LINE
  8
0
 62
     0
 10
43.2319
 20
26.4583
 30
0.0
 11
43.2319
 21
26.4583
 31
0.0
  0
LINE
  8
0
 62
     0
 10
43.2319
 20
26.4583
 30
0.0
 11
43.2319
 21
26.4583
 31
0.0
  0
LINE
  8
0
 62
     0
 10
43.2319
 20
26.4583
 30
0.0
 11
43.2319
 21
25.9691
 31
0.0
  0
LINE
  8
0
 62
     0
 10
43.2319
 20
25.9691
 30
0.0
 11
43.2319
 21
24.8929
 31
0.0
  0
LINE
  8
0
 62
     0
 10
43.2319
 20
24.8929
 30
0.0
 11
43.2319
 21
23.8166
 31
0.0
  0
LINE
  8
0
 62
     0
 10
43.2319
 20
23.8166
 30
0.0
 11
43.2319
 21
23.3261
 31
0.0
  0
LINE
  8
0
 62
     0
 10
43.2319
 20
23.3261
 30
0.0
 11
43.2319
 21
23.3261
 31
0.0
  0
LINE
  8
0
 62
     0
 10
43.2319
 20
23.3261
 30
0.0
 11
43.2319
 21
23.3261
 31
0.0
  0
LINE
  8
0
 62
     0
 10
43.2319
 20
23.3261
 30
0.0
 11
43.2181
 21
23.1014
 31
0.0
  0
LINE
  8
0
 62
     0
 10
43.2181
 20
23.1014
 30
0.0
 11
43.1892
 21
22.6067
 31
0.0
  0
LINE
  8
0
 62
     0
 10
43.1892
 20
22.6067
 30
0.0
 11
43.1588
 21
22.1134
 31
0.0
  0
LINE
  8
0
 62
     0
 10
43.1588
 20
22.1134
 30
0.0
 11
43.1465
 21
21.8874
 31
0.0
  0
LINE
  8
0
 62
     0
 10
43.1465
 20
21.8874
 30
0.0
 11
43.1465
 21
21.8874
 31
0.0
  0
LINE
  8
0
 62
     0
 10
43.1465
 20
21.8874
 30
0.0
 11
43.1465
 21
21.8874
 31
0.0
  0
LINE
  8
0
 62
     0
 10
43.1465
 20
21.8874
 30
0.0
 11
43.1465
 21
21.6228
 31
0.0
  0
LINE
  8
0
 62
     0
 10
43.1465
 20
21.6228
 30
0.0
 11
43.1465
 21
21.0413
 31
0.0
  0
LINE
  8
0
 62
     0
 10
43.1465
 20
21.0413
 30
0.0
 11
43.1465
 21
20.4597
 31
0.0
  0
LINE
  8
0
 62
     0
 10
43.1465
 20
20.4597
 30
0.0
 11
43.1465
 21
20.1938
 31
0.0
  0
LINE
  8
0
 62
     0
 10
43.1465
 20
20.1938
 30
0.0
 11
43.1465
 21
20.1938
 31
0.0
  0
LINE
  8
0
 62
     0
 10
43.1465
 20
20.1938
 30
0.0
 11
43.1465
 21
20.1938
 31
0.0
  0
LINE
  8
0
 62
     0
 10
43.1465
 20
20.1938
 30
0.0
 11
43.1327
 21
20.0353
 31
0.0
  0
LINE
  8
0
 62
     0
 10
43.1327
 20
20.0353
 30
0.0
 11
43.1052
 21
19.6867
 31
0.0
  0
LINE
  8
0
 62
     0
 10
43.1052
 20
19.6867
 30
0.0
 11
43.0773
 21
19.338
 31
0.0
  0
LINE
  8
0
 62
     0
 10
43.0773
 20
19.338
 30
0.0
 11
43.065
 21
19.1782
 31
0.0
  0
LINE
  8
0
 62
     0
 10
43.065
 20
19.1782
 30
0.0
 11
43.065
 21
19.1782
 31
0.0
  0
LINE
  8
0
 62
     0
 10
43.065
 20
19.1782
 30
0.0
 11
43.065
 21
19.1782
 31
0.0
  0
LINE
  8
0
 62
     0
 10
43.065
 20
19.1782
 30
0.0
 11
43.065
 21
18.9536
 31
0.0
  0
LINE
  8
0
 62
     0
 10
43.065
 20
18.9536
 30
0.0
 11
43.065
 21
18.4588
 31
0.0
  0
LINE
  8
0
 62
     0
 10
43.065
 20
18.4588
 30
0.0
 11
43.065
 21
17.9641
 31
0.0
  0
LINE
  8
0
 62
     0
 10
43.065
 20
17.9641
 30
0.0
 11
43.065
 21
17.7381
 31
0.0
  0
LINE
  8
0
 62
     0
 10
43.065
 20
17.7381
 30
0.0
 11
43.065
 21
17.7381
 31
0.0
  0
LINE
  8
0
 62
     0
 10
43.065
 20
17.7381
 30
0.0
 11
43.065
 21
17.7381
 31
0.0
  0
LINE
  8
0
 62
     0
 10
43.065
 20
17.7381
 30
0.0
 11
43.0512
 21
17.5397
 31
0.0
  0
LINE
  8
0
 62
     0
 10
43.0512
 20
17.5397
 30
0.0
 11
43.0209
 21
17.1028
 31
0.0
  0
LINE
  8
0
 62
     0
 10
43.0209
 20
17.1028
 30
0.0
 11
42.9906
 21
16.6674
 31
0.0
  0
LINE
  8
0
 62
     0
 10
42.9906
 20
16.6674
 30
0.0
 11
42.9768
 21
16.4676
 31
0.0
  0
LINE
  8
0
 62
     0
 10
42.9768
 20
16.4676
 30
0.0
 11
42.9768
 21
16.4676
 31
0.0
  0
LINE
  8
0
 62
     0
 10
42.9768
 20
16.4676
 30
0.0
 11
42.9768
 21
16.4676
 31
0.0
  0
LINE
  8
0
 62
     0
 10
42.9768
 20
16.4676
 30
0.0
 11
42.963
 21
16.0845
 31
0.0
  0
LINE
  8
0
 62
     0
 10
42.963
 20
16.0845
 30
0.0
 11
42.9341
 21
15.2411
 31
0.0
  0
LINE
  8
0
 62
     0
 10
42.9341
 20
15.2411
 30
0.0
 11
42.9052
 21
14.3977
 31
0.0
  0
LINE
  8
0
 62
     0
 10
42.9052
 20
14.3977
 30
0.0
 11
42.8928
 21
14.0133
 31
0.0
  0
LINE
  8
0
 62
     0
 10
42.8928
 20
14.0133
 30
0.0
 11
42.8928
 21
14.0133
 31
0.0
  0
LINE
  8
0
 62
     0
 10
42.8928
 20
14.0133
 30
0.0
 11
42.8928
 21
14.0133
 31
0.0
  0
LINE
  8
0
 62
     0
 10
42.8928
 20
14.0133
 30
0.0
 11
42.8544
 21
13.5902
 31
0.0
  0
LINE
  8
0
 62
     0
 10
42.8544
 20
13.5902
 30
0.0
 11
42.8156
 21
13.1658
 31
0.0
  0
LINE
  8
0
 62
     0
 10
42.8156
 20
13.1658
 30
0.0
 11
42.8156
 21
13.1658
 31
0.0
  0
LINE
  8
0
 62
     0
 10
42.8156
 20
13.1658
 30
0.0
 11
42.8156
 21
13.1658
 31
0.0
  0
LINE
  8
0
 62
     0
 10
42.8156
 20
13.1658
 30
0.0
 11
42.8032
 21
12.9811
 31
0.0
  0
LINE
  8
0
 62
     0
 10
42.8032
 20
12.9811
 30
0.0
 11
42.7757
 21
12.5732
 31
0.0
  0
LINE
  8
0
 62
     0
 10
42.7757
 20
12.5732
 30
0.0
 11
42.7482
 21
12.1667
 31
0.0
  0
LINE
  8
0
 62
     0
 10
42.7482
 20
12.1667
 30
0.0
 11
42.7373
 21
11.9807
 31
0.0
  0
LINE
  8
0
 62
     0
 10
42.7373
 20
11.9807
 30
0.0
 11
42.7373
 21
11.9807
 31
0.0
  0
LINE
  8
0
 62
     0
 10
42.7373
 20
11.9807
 30
0.0
 11
42.697
 21
11.5741
 31
0.0
  0
LINE
  8
0
 62
     0
 10
42.697
 20
11.5741
 30
0.0
 11
42.5097
 21
9.56084
 31
0.0
  0
LINE
  8
0
 62
     0
 10
42.5097
 20
9.56084
 30
0.0
 11
42.2314
 21
7.55717
 31
0.0
  0
LINE
  8
0
 62
     0
 10
42.2314
 20
7.55717
 30
0.0
 11
42.1474
 21
7.15479
 31
0.0
  0
LINE
  8
0
 62
     0
 10
42.1474
 20
7.15479
 30
0.0
 11
42.1474
 21
7.15479
 31
0.0
  0
LINE
  8
0
 62
     0
 10
42.1474
 20
7.15479
 30
0.0
 11
42.1047
 21
6.99629
 31
0.0
  0
LINE
  8
0
 62
     0
 10
42.1047
 20
6.99629
 30
0.0
 11
42.0123
 21
6.64767
 31
0.0
  0
LINE
  8
0
 62
     0
 10
42.0123
 20
6.64767
 30
0.0
 11
41.9185
 21
6.29902
 31
0.0
  0
LINE
  8
0
 62
     0
 10
41.9185
 20
6.29902
 30
0.0
 11
41.8772
 21
6.13914
 31
0.0
  0
LINE
  8
0
 62
     0
 10
41.8772
 20
6.13914
 30
0.0
 11
41.8772
 21
6.13914
 31
0.0
  0
LINE
  8
0
 62
     0
 10
41.8772
 20
6.13914
 30
0.0
 11
41.7449
 21
6.21358
 31
0.0
  0
LINE
  8
0
 62
     0
 10
41.7449
 20
6.21358
 30
0.0
 11
41.4362
 21
6.58703
 31
0.0
  0
LINE
  8
0
 62
     0
 10
41.4362
 20
6.58703
 30
0.0
 11
41.0436
 21
7.28708
 31
0.0
  0
LINE
  8
0
 62
     0
 10
41.0436
 20
7.28708
 30
0.0
 11
40.7169
 21
8.04774
 31
0.0
  0
LINE
  8
0
 62
     0
 10
40.7169
 20
8.04774
 30
0.0
 11
40.5335
 21
8.52181
 31
0.0
  0
LINE
  8
0
 62
     0
 10
40.5335
 20
8.52181
 30
0.0
 11
40.4717
 21
8.6789
 31
0.0
  0
LINE
  8
0
 62
     0
 10
40.4717
 20
8.6789
 30
0.0
 11
40.2332
 21
9.27421
 31
0.0
  0
LINE
  8
0
 62
     0
 10
40.2332
 20
9.27421
 30
0.0
 11
38.1896
 21
15.4313
 31
0.0
  0
LINE
  8
0
 62
     0
 10
38.1896
 20
15.4313
 30
0.0
 11
38.0048
 21
16.0445
 31
0.0
  0
LINE
  8
0
 62
     0
 10
38.0048
 20
16.0445
 30
0.0
 11
37.3034
 21
18.3734
 31
0.0
  0
LINE
  8
0
 62
     0
 10
37.3034
 20
18.3734
 30
0.0
 11
30.0867
 21
41.5932
 31
0.0
  0
LINE
  8
0
 62
     0
 10
30.0867
 20
41.5932
 30
0.0
 11
29.3178
 21
43.9
 31
0.0
  0
LINE
  8
0
 62
     0
 10
29.3178
 20
43.9
 30
0.0
 11
29.0807
 21
44.6112
 31
0.0
  0
LINE
  8
0
 62
     0
 10
29.0807
 20
44.6112
 30
0.0
 11
27.7523
 21
48.1722
 31
0.0
  0
LINE
  8
0
 62
     0
 10
27.7523
 20
48.1722
 30
0.0
 11
26.1745
 21
51.6269
 31
0.0
  0
LINE
  8
0
 62
     0
 10
26.1745
 20
51.6269
 30
0.0
 11
25.8148
 21
52.2827
 31
0.0
  0
LINE
  8
0
 62
     0
 10
25.8148
 20
52.2827
 30
0.0
 11
25.7087
 21
52.4757
 31
0.0
  0
LINE
  8
0
 62
     0
 10
25.7087
 20
52.4757
 30
0.0
 11
25.3766
 21
53.0461
 31
0.0
  0
LINE
  8
0
 62
     0
 10
25.3766
 20
53.0461
 30
0.0
 11
24.8185
 21
53.8674
 31
0.0
  0
LINE
  8
0
 62
     0
 10
24.8185
 20
53.8674
 30
0.0
 11
24.1584
 21
54.5786
 31
0.0
  0
LINE
  8
0
 62
     0
 10
24.1584
 20
54.5786
 30
0.0
 11
23.6182
 21
54.9494
 31
0.0
  0
LINE
  8
0
 62
     0
 10
23.6182
 20
54.9494
 30
0.0
 11
23.4198
 21
55.0086
 31
0.0
  0
LINE
  8
0
 62
     0
 10
23.4198
 20
55.0086
 30
0.0
 11
23.1855
 21
55.0788
 31
0.0
  0
LINE
  8
0
 62
     0
 10
23.1855
 20
55.0788
 30
0.0
 11
22.3793
 21
54.9437
 31
0.0
  0
LINE
  8
0
 62
     0
 10
22.3793
 20
54.9437
 30
0.0
 11
21.5525
 21
54.2671
 31
0.0
  0
LINE
  8
0
 62
     0
 10
21.5525
 20
54.2671
 30
0.0
 11
20.9117
 21
53.3012
 31
0.0
  0
LINE
  8
0
 62
     0
 10
20.9117
 20
53.3012
 30
0.0
 11
20.5521
 21
52.6009
 31
0.0
  0
LINE
  8
0
 62
     0
 10
20.5521
 20
52.6009
 30
0.0
 11
20.4349
 21
52.3667
 31
0.0
  0
LINE
  8
0
 62
     0
 10
20.4349
 20
52.3667
 30
0.0
 11
20.1814
 21
51.8626
 31
0.0
  0
LINE
  8
0
 62
     0
 10
20.1814
 20
51.8626
 30
0.0
 11
19.4152
 21
50.3495
 31
0.0
  0
LINE
  8
0
 62
     0
 10
19.4152
 20
50.3495
 30
0.0
 11
18.1832
 21
48.4353
 31
0.0
  0
LINE
  8
0
 62
     0
 10
18.1832
 20
48.4353
 30
0.0
 11
16.5585
 21
47.0048
 31
0.0
  0
LINE
  8
0
 62
     0
 10
16.5585
 20
47.0048
 30
0.0
 11
14.909
 21
46.4414
 31
0.0
  0
LINE
  8
0
 62
     0
 10
14.909
 20
46.4414
 30
0.0
 11
14.3605
 21
46.44
 31
0.0
  0
LINE
  8
0
 62
     0
 10
14.3605
 20
46.44
 30
0.0
 11
14.3605
 21
46.44
 31
0.0
  0
LINE
  8
0
 62
     0
 10
14.3605
 20
46.44
 30
0.0
 11
13.7445
 21
46.44
 31
0.0
  0
LINE
  8
0
 62
     0
 10
13.7445
 20
46.44
 30
0.0
 11
12.124
 21
46.44
 31
0.0
  0
LINE
  8
0
 62
     0
 10
12.124
 20
46.44
 30
0.0
 11
9.8323
 21
46.44
 31
0.0
  0
LINE
  8
0
 62
     0
 10
9.8323
 20
46.44
 30
0.0
 11
7.20577
 21
46.44
 31
0.0
  0
LINE
  8
0
 62
     0
 10
7.20577
 20
46.44
 30
0.0
 11
4.57786
 21
46.44
 31
0.0
  0
LINE
  8
0
 62
     0
 10
4.57786
 20
46.44
 30
0.0
 11
2.28617
 21
46.44
 31
0.0
  0
LINE
  8
0
 62
     0
 10
2.28617
 20
46.44
 30
0.0
 11
0.665593
 21
46.44
 31
0.0
  0
LINE
  8
0
 62
     0
 10
0.665593
 20
46.44
 30
0.0
 11
0.0509873
 21
46.44
 31
0.0
  0
LINE
  8
0
 62
     0
 10
0.0509873
 20
46.44
 30
0.0
 11
0.0509873
 21
46.44
 31
0.0
  0
LINE
  8
0
 62
     0
 10
47.4652
 20
85.5557
 30
0.0
 11
47.6292
 21
85.477
 31
0.0
  0
LINE
  8
0
 62
     0
 10
47.6292
 20
85.477
 30
0.0
 11
48.0356
 21
85.0579
 31
0.0
  0
LINE
  8
0
 62
     0
 10
48.0356
 20
85.0579
 30
0.0
 11
48.5278
 21
84.2821
 31
0.0
  0
LINE
  8
0
 62
     0
 10
48.5278
 20
84.2821
 30
0.0
 11
48.9246
 21
83.4249
 31
0.0
  0
LINE
  8
0
 62
     0
 10
48.9246
 20
83.4249
 30
0.0
 11
49.1451
 21
82.8668
 31
0.0
  0
LINE
  8
0
 62
     0
 10
49.1451
 20
82.8668
 30
0.0
 11
49.2153
 21
82.6781
 31
0.0
  0
LINE
  8
0
 62
     0
 10
49.2153
 20
82.6781
 30
0.0
 11
49.4647
 21
82.0099
 31
0.0
  0
LINE
  8
0
 62
     0
 10
49.4647
 20
82.0099
 30
0.0
 11
51.478
 21
75.2341
 31
0.0
  0
LINE
  8
0
 62
     0
 10
51.478
 20
75.2341
 30
0.0
 11
51.6738
 21
74.549
 31
0.0
  0
LINE
  8
0
 62
     0
 10
51.6738
 20
74.549
 30
0.0
 11
51.6738
 21
74.549
 31
0.0
  0
LINE
  8
0
 62
     0
 10
51.6738
 20
74.549
 30
0.0
 11
51.7412
 21
74.2721
 31
0.0
  0
LINE
  8
0
 62
     0
 10
51.7412
 20
74.2721
 30
0.0
 11
51.8915
 21
73.6604
 31
0.0
  0
LINE
  8
0
 62
     0
 10
51.8915
 20
73.6604
 30
0.0
 11
52.0418
 21
73.0497
 31
0.0
  0
LINE
  8
0
 62
     0
 10
52.0418
 20
73.0497
 30
0.0
 11
52.1106
 21
72.7714
 31
0.0
  0
LINE
  8
0
 62
     0
 10
52.1106
 20
72.7714
 30
0.0
 11
52.1106
 21
72.7714
 31
0.0
  0
LINE
  8
0
 62
     0
 10
52.1106
 20
72.7714
 30
0.0
 11
52.1106
 21
72.7714
 31
0.0
  0
LINE
  8
0
 62
     0
 10
52.1106
 20
72.7714
 30
0.0
 11
52.1628
 21
72.547
 31
0.0
  0
LINE
  8
0
 62
     0
 10
52.1628
 20
72.547
 30
0.0
 11
52.3021
 21
71.9515
 31
0.0
  0
LINE
  8
0
 62
     0
 10
52.3021
 20
71.9515
 30
0.0
 11
52.499
 21
71.1108
 31
0.0
  0
LINE
  8
0
 62
     0
 10
52.499
 20
71.1108
 30
0.0
 11
52.7265
 21
70.1477
 31
0.0
  0
LINE
  8
0
 62
     0
 10
52.7265
 20
70.1477
 30
0.0
 11
52.9527
 21
69.1843
 31
0.0
  0
LINE
  8
0
 62
     0
 10
52.9527
 20
69.1843
 30
0.0
 11
53.1495
 21
68.3436
 31
0.0
  0
LINE
  8
0
 62
     0
 10
53.1495
 20
68.3436
 30
0.0
 11
53.2888
 21
67.7485
 31
0.0
  0
LINE
  8
0
 62
     0
 10
53.2888
 20
67.7485
 30
0.0
 11
53.3425
 21
67.5224
 31
0.0
  0
LINE
  8
0
 62
     0
 10
53.3425
 20
67.5224
 30
0.0
 11
53.3425
 21
67.5224
 31
0.0
  0
LINE
  8
0
 62
     0
 10
53.3425
 20
67.5224
 30
0.0
 11
53.3425
 21
67.5224
 31
0.0
  0
LINE
  8
0
 62
     0
 10
53.3425
 20
67.5224
 30
0.0
 11
53.4871
 21
66.8281
 31
0.0
  0
LINE
  8
0
 62
     0
 10
53.4871
 20
66.8281
 30
0.0
 11
53.8674
 21
64.9965
 31
0.0
  0
LINE
  8
0
 62
     0
 10
53.8674
 20
64.9965
 30
0.0
 11
54.4079
 21
62.4057
 31
0.0
  0
LINE
  8
0
 62
     0
 10
54.4079
 20
62.4057
 30
0.0
 11
55.0263
 21
59.4374
 31
0.0
  0
LINE
  8
0
 62
     0
 10
55.0263
 20
59.4374
 30
0.0
 11
55.6436
 21
56.4691
 31
0.0
  0
LINE
  8
0
 62
     0
 10
55.6436
 20
56.4691
 30
0.0
 11
56.1841
 21
53.8787
 31
0.0
  0
LINE
  8
0
 62
     0
 10
56.1841
 20
53.8787
 30
0.0
 11
56.5644
 21
52.0471
 31
0.0
  0
LINE
  8
0
 62
     0
 10
56.5644
 20
52.0471
 30
0.0
 11
56.7104
 21
51.3514
 31
0.0
  0
LINE
  8
0
 62
     0
 10
56.7104
 20
51.3514
 30
0.0
 11
56.7104
 21
51.3514
 31
0.0
  0
LINE
  8
0
 62
     0
 10
56.7104
 20
51.3514
 30
0.0
 11
56.8949
 21
50.3922
 31
0.0
  0
LINE
  8
0
 62
     0
 10
56.8949
 20
50.3922
 30
0.0
 11
58.8215
 21
40.7857
 31
0.0
  0
LINE
  8
0
 62
     0
 10
58.8215
 20
40.7857
 30
0.0
 11
59.0532
 21
39.835
 31
0.0
  0
LINE
  8
0
 62
     0
 10
59.0532
 20
39.835
 30
0.0
 11
59.2116
 21
39.1806
 31
0.0
  0
LINE
  8
0
 62
     0
 10
59.2116
 20
39.1806
 30
0.0
 11
59.7147
 21
37.2209
 31
0.0
  0
LINE
  8
0
 62
     0
 10
59.7147
 20
37.2209
 30
0.0
 11
60.5247
 21
34.4151
 31
0.0
  0
LINE
  8
0
 62
     0
 10
60.5247
 20
34.4151
 30
0.0
 11
61.4839
 21
31.6742
 31
0.0
  0
LINE
  8
0
 62
     0
 10
61.4839
 20
31.6742
 30
0.0
 11
62.2762
 21
29.8359
 31
0.0
  0
LINE
  8
0
 62
     0
 10
62.2762
 20
29.8359
 30
0.0
 11
62.5948
 21
29.2516
 31
0.0
  0
LINE
  8
0
 62
     0
 10
62.5948
 20
29.2516
 30
0.0
 11
62.7228
 21
29.0173
 31
0.0
  0
LINE
  8
0
 62
     0
 10
62.7228
 20
29.0173
 30
0.0
 11
63.1486
 21
28.3311
 31
0.0
  0
LINE
  8
0
 62
     0
 10
63.1486
 20
28.3311
 30
0.0
 11
63.875
 21
27.3995
 31
0.0
  0
LINE
  8
0
 62
     0
 10
63.875
 20
27.3995
 30
0.0
 11
64.7499
 21
26.6568
 31
0.0
  0
LINE
  8
0
 62
     0
 10
64.7499
 20
26.6568
 30
0.0
 11
65.4967
 21
26.3274
 31
0.0
  0
LINE
  8
0
 62
     0
 10
65.4967
 20
26.3274
 30
0.0
 11
65.7532
 21
26.3054
 31
0.0
  0
LINE
  8
0
 62
     0
 10
65.7532
 20
26.3054
 30
0.0
 11
65.9045
 21
26.293
 31
0.0
  0
LINE
  8
0
 62
     0
 10
65.9045
 20
26.293
 30
0.0
 11
66.3706
 21
26.3715
 31
0.0
  0
LINE
  8
0
 62
     0
 10
66.3706
 20
26.3715
 30
0.0
 11
66.9533
 21
26.632
 31
0.0
  0
LINE
  8
0
 62
     0
 10
66.9533
 20
26.632
 30
0.0
 11
67.473
 21
27.022
 31
0.0
  0
LINE
  8
0
 62
     0
 10
67.473
 20
27.022
 30
0.0
 11
67.8007
 21
27.3541
 31
0.0
  0
LINE
  8
0
 62
     0
 10
67.8007
 20
27.3541
 30
0.0
 11
67.8974
 21
27.4753
 31
0.0
  0
LINE
  8
0
 62
     0
 10
67.8974
 20
27.4753
 30
0.0
 11
68.1302
 21
27.7716
 31
0.0
  0
LINE
  8
0
 62
     0
 10
68.1302
 20
27.7716
 30
0.0
 11
69.0933
 21
29.5782
 31
0.0
  0
LINE
  8
0
 62
     0
 10
69.0933
 20
29.5782
 30
0.0
 11
69.7964
 21
31.5171
 31
0.0
  0
LINE
  8
0
 62
     0
 10
69.7964
 20
31.5171
 30
0.0
 11
69.9012
 21
31.8782
 31
0.0
  0
LINE
  8
0
 62
     0
 10
69.9012
 20
31.8782
 30
0.0
 11
70.2042
 21
32.931
 31
0.0
  0
LINE
  8
0
 62
     0
 10
70.2042
 20
32.931
 30
0.0
 11
71.3588
 21
38.5932
 31
0.0
  0
LINE
  8
0
 62
     0
 10
71.3588
 20
38.5932
 30
0.0
 11
72.1416
 21
44.3329
 31
0.0
  0
LINE
  8
0
 62
     0
 10
72.1416
 20
44.3329
 30
0.0
 11
72.2588
 21
45.4244
 31
0.0
  0
LINE
  8
0
 62
     0
 10
72.2588
 20
45.4244
 30
0.0
 11
72.2588
 21
45.4244
 31
0.0
  0
LINE
  8
0
 62
     0
 10
72.2588
 20
45.4244
 30
0.0
 11
72.2753
 21
45.6061
 31
0.0
  0
LINE
  8
0
 62
     0
 10
72.2753
 20
45.6061
 30
0.0
 11
72.3223
 21
46.0858
 31
0.0
  0
LINE
  8
0
 62
     0
 10
72.3223
 20
46.0858
 30
0.0
 11
72.3882
 21
46.7639
 31
0.0
  0
LINE
  8
0
 62
     0
 10
72.3882
 20
46.7639
 30
0.0
 11
72.4641
 21
47.541
 31
0.0
  0
LINE
  8
0
 62
     0
 10
72.4641
 20
47.541
 30
0.0
 11
72.5399
 21
48.3182
 31
0.0
  0
LINE
  8
0
 62
     0
 10
72.5399
 20
48.3182
 30
0.0
 11
72.6063
 21
48.9962
 31
0.0
  0
LINE
  8
0
 62
     0
 10
72.6063
 20
48.9962
 30
0.0
 11
72.6528
 21
49.4757
 31
0.0
  0
LINE
  8
0
 62
     0
 10
72.6528
 20
49.4757
 30
0.0
 11
72.6708
 21
49.6577
 31
0.0
  0
LINE
  8
0
 62
     0
 10
72.6708
 20
49.6577
 30
0.0
 11
72.6708
 21
49.6577
 31
0.0
  0
LINE
  8
0
 62
     0
 10
72.6708
 20
49.6577
 30
0.0
 11
72.6846
 21
49.7748
 31
0.0
  0
LINE
  8
0
 62
     0
 10
72.6846
 20
49.7748
 30
0.0
 11
72.7371
 21
50.4927
 31
0.0
  0
LINE
  8
0
 62
     0
 10
72.7371
 20
50.4927
 30
0.0
 11
72.8857
 21
51.1694
 31
0.0
  0
LINE
  8
0
 62
     0
 10
72.8857
 20
51.1694
 30
0.0
 11
72.9492
 21
51.2657
 31
0.0
  0
LINE
  8
0
 62
     0
 10
72.9492
 20
51.2657
 30
0.0
 11
72.9933
 21
51.1101
 31
0.0
  0
LINE
  8
0
 62
     0
 10
72.9933
 20
51.1101
 30
0.0
 11
73.4441
 21
50.14
 31
0.0
  0
LINE
  8
0
 62
     0
 10
73.4441
 20
50.14
 30
0.0
 11
73.9881
 21
49.2044
 31
0.0
  0
LINE
  8
0
 62
     0
 10
73.9881
 20
49.2044
 30
0.0
 11
74.0791
 21
49.065
 31
0.0
  0
LINE
  8
0
 62
     0
 10
74.0791
 20
49.065
 30
0.0
 11
74.3437
 21
48.6601
 31
0.0
  0
LINE
  8
0
 62
     0
 10
74.3437
 20
48.6601
 30
0.0
 11
75.2725
 21
47.5259
 31
0.0
  0
LINE
  8
0
 62
     0
 10
75.2725
 20
47.5259
 30
0.0
 11
76.7073
 21
46.2675
 31
0.0
  0
LINE
  8
0
 62
     0
 10
76.7073
 20
46.2675
 30
0.0
 11
78.3869
 21
45.4145
 31
0.0
  0
LINE
  8
0
 62
     0
 10
78.3869
 20
45.4145
 30
0.0
 11
79.8311
 21
45.0906
 31
0.0
  0
LINE
  8
0
 62
     0
 10
79.8311
 20
45.0906
 30
0.0
 11
80.3148
 21
45.0854
 31
0.0
  0
LINE
  8
0
 62
     0
 10
80.3148
 20
45.0854
 30
0.0
 11
80.3148
 21
45.0854
 31
0.0
  0
LINE
  8
0
 62
     0
 10
80.3148
 20
45.0854
 30
0.0
 11
80.7942
 21
45.0854
 31
0.0
  0
LINE
  8
0
 62
     0
 10
80.7942
 20
45.0854
 30
0.0
 11
82.0607
 21
45.0854
 31
0.0
  0
LINE
  8
0
 62
     0
 10
82.0607
 20
45.0854
 30
0.0
 11
83.851
 21
45.0854
 31
0.0
  0
LINE
  8
0
 62
     0
 10
83.851
 20
45.0854
 30
0.0
 11
85.9028
 21
45.0854
 31
0.0
  0
LINE
  8
0
 62
     0
 10
85.9028
 20
45.0854
 30
0.0
 11
87.9531
 21
45.0854
 31
0.0
  0
LINE
  8
0
 62
     0
 10
87.9531
 20
45.0854
 30
0.0
 11
89.7435
 21
45.0854
 31
0.0
  0
LINE
  8
0
 62
     0
 10
89.7435
 20
45.0854
 30
0.0
 11
91.0096
 21
45.0854
 31
0.0
  0
LINE
  8
0
 62
     0
 10
91.0096
 20
45.0854
 30
0.0
 11
91.4908
 21
45.0854
 31
0.0
  0
LINE
  8
0
 62
     0
 10
91.4908
 20
45.0854
 30
0.0
 11
91.4908
 21
45.0854
 31
0.0
  0
LINE
  8
0
 62
     0
 10
91.4908
 20
45.0854
 30
0.0
 11
91.4908
 21
45.0854
 31
0.0
  0
LINE
  8
0
 62
     0
 10
91.4908
 20
45.0854
 30
0.0
 11
91.4908
 21
44.009
 31
0.0
  0
LINE
  8
0
 62
     0
 10
91.4908
 20
44.009
 30
0.0
 11
91.4908
 21
41.1702
 31
0.0
  0
LINE
  8
0
 62
     0
 10
91.4908
 20
41.1702
 30
0.0
 11
91.4908
 21
37.156
 31
0.0
  0
LINE
  8
0
 62
     0
 10
91.4908
 20
37.156
 30
0.0
 11
91.4908
 21
32.5548
 31
0.0
  0
LINE
  8
0
 62
     0
 10
91.4908
 20
32.5548
 30
0.0
 11
91.4908
 21
27.9549
 31
0.0
  0
LINE
  8
0
 62
     0
 10
91.4908
 20
27.9549
 30
0.0
 11
91.4908
 21
23.9407
 31
0.0
  0
LINE
  8
0
 62
     0
 10
91.4908
 20
23.9407
 30
0.0
 11
91.4908
 21
21.1019
 31
0.0
  0
LINE
  8
0
 62
     0
 10
91.4908
 20
21.1019
 30
0.0
 11
91.4908
 21
20.0243
 31
0.0
  0
LINE
  8
0
 62
     0
 10
91.4908
 20
20.0243
 30
0.0
 11
91.4908
 21
20.0243
 31
0.0
  0
LINE
  8
0
 62
     0
 10
91.4908
 20
20.0243
 30
0.0
 11
91.4894
 21
19.6412
 31
0.0
  0
LINE
  8
0
 62
     0
 10
91.4894
 20
19.6412
 30
0.0
 11
91.2206
 21
17.5038
 31
0.0
  0
LINE
  8
0
 62
     0
 10
91.2206
 20
17.5038
 30
0.0
 11
90.7313
 21
15.3982
 31
0.0
  0
LINE
  8
0
 62
     0
 10
90.7313
 20
15.3982
 30
0.0
 11
90.6212
 21
15.0289
 31
0.0
  0
LINE
  8
0
 62
     0
 10
90.6212
 20
15.0289
 30
0.0
 11
90.2684
 21
13.8562
 31
0.0
  0
LINE
  8
0
 62
     0
 10
90.2684
 20
13.8562
 30
0.0
 11
88.6686
 21
10.5006
 31
0.0
  0
LINE
  8
0
 62
     0
 10
88.6686
 20
10.5006
 30
0.0
 11
85.7871
 21
6.63388
 31
0.0
  0
LINE
  8
0
 62
     0
 10
85.7871
 20
6.63388
 30
0.0
 11
82.0896
 21
3.53603
 31
0.0
  0
LINE
  8
0
 62
     0
 10
82.0896
 20
3.53603
 30
0.0
 11
78.8377
 21
1.73771
 31
0.0
  0
LINE
  8
0
 62
     0
 10
78.8377
 20
1.73771
 30
0.0
 11
77.6912
 21
1.30914
 31
0.0
  0
LINE
  8
0
 62
     0
 10
77.6912
 20
1.30914
 30
0.0
 11
77.2513
 21
1.14653
 31
0.0
  0
LINE
  8
0
 62
     0
 10
77.2513
 20
1.14653
 30
0.0
 11
74.6428
 21
0.432703
 31
0.0
  0
LINE
  8
0
 62
     0
 10
74.6428
 20
0.432703
 30
0.0
 11
71.9776
 21
0.0440972
 31
0.0
  0
LINE
  8
0
 62
     0
 10
71.9776
 20
0.0440972
 30
0.0
 11
71.5105
 21
0.0427193
 31
0.0
  0
LINE
  8
0
 62
     0
 10
71.5105
 20
0.0427193
 30
0.0
 11
71.5105
 21
0.0427193
 31
0.0
  0
LINE
  8
0
 62
     0
 10
71.5105
 20
0.0427193
 30
0.0
 11
70.9316
 21
0.0427193
 31
0.0
  0
LINE
  8
0
 62
     0
 10
70.9316
 20
0.0427193
 30
0.0
 11
69.2976
 21
0.0427193
 31
0.0
  0
LINE
  8
0
 62
     0
 10
69.2976
 20
0.0427193
 30
0.0
 11
66.759
 21
0.0427193
 31
0.0
  0
LINE
  8
0
 62
     0
 10
66.759
 20
0.0427193
 30
0.0
 11
63.4668
 21
0.0427193
 31
0.0
  0
LINE
  8
0
 62
     0
 10
63.4668
 20
0.0427193
 30
0.0
 11
59.5697
 21
0.0427193
 31
0.0
  0
LINE
  8
0
 62
     0
 10
59.5697
 20
0.0427193
 30
0.0
 11
55.2221
 21
0.0427193
 31
0.0
  0
LINE
  8
0
 62
     0
 10
55.2221
 20
0.0427193
 30
0.0
 11
50.5714
 21
0.0427193
 31
0.0
  0
LINE
  8
0
 62
     0
 10
50.5714
 20
0.0427193
 30
0.0
 11
45.7715
 21
0.0427193
 31
0.0
  0
LINE
  8
0
 62
     0
 10
45.7715
 20
0.0427193
 30
0.0
 11
40.9706
 21
0.0427193
 31
0.0
  0
LINE
  8
0
 62
     0
 10
40.9706
 20
0.0427193
 30
0.0
 11
36.3195
 21
0.0427193
 31
0.0
  0
LINE
  8
0
 62
     0
 10
36.3195
 20
0.0427193
 30
0.0
 11
31.9719
 21
0.0427193
 31
0.0
  0
LINE
  8
0
 62
     0
 10
31.9719
 20
0.0427193
 30
0.0
 11
28.0748
 21
0.0427193
 31
0.0
  0
LINE
  8
0
 62
     0
 10
28.0748
 20
0.0427193
 30
0.0
 11
24.7826
 21
0.0427193
 31
0.0
  0
LINE
  8
0
 62
     0
 10
24.7826
 20
0.0427193
 30
0.0
 11
22.2443
 21
0.0427193
 31
0.0
  0
LINE
  8
0
 62
     0
 10
22.2443
 20
0.0427193
 30
0.0
 11
20.6099
 21
0.0427193
 31
0.0
  0
LINE
  8
0
 62
     0
 10
20.6099
 20
0.0427193
 30
0.0
 11
20.0326
 21
0.0427193
 31
0.0
  0
LINE
  8
0
 62
     0
 10
20.0326
 20
0.0427193
 30
0.0
 11
20.0326
 21
0.0427193
 31
0.0
  0
LINE
  8
0
 62
     0
 10
20.0326
 20
0.0427193
 30
0.0
 11
19.6481
 21
0.0440972
 31
0.0
  0
LINE
  8
0
 62
     0
 10
19.6481
 20
0.0440972
 30
0.0
 11
17.5107
 21
0.312815
 31
0.0
  0
LINE
  8
0
 62
     0
 10
17.5107
 20
0.312815
 30
0.0
 11
15.4051
 21
0.803395
 31
0.0
  0
LINE
  8
0
 62
     0
 10
15.4051
 20
0.803395
 30
0.0
 11
15.0372
 21
0.913638
 31
0.0
  0
LINE
  8
0
 62
     0
 10
15.0372
 20
0.913638
 30
0.0
 11
14.1235
 21
1.18787
 31
0.0
  0
LINE
  8
0
 62
     0
 10
14.1235
 20
1.18787
 30
0.0
 11
11.4832
 21
2.33715
 31
0.0
  0
LINE
  8
0
 62
     0
 10
11.4832
 20
2.33715
 30
0.0
 11
8.29578
 21
4.34495
 31
0.0
  0
LINE
  8
0
 62
     0
 10
8.29578
 20
4.34495
 30
0.0
 11
5.52178
 21
6.89571
 31
0.0
  0
LINE
  8
0
 62
     0
 10
5.52178
 20
6.89571
 30
0.0
 11
3.71658
 21
9.14192
 31
0.0
  0
LINE
  8
0
 62
     0
 10
3.71658
 20
9.14192
 30
0.0
 11
3.21083
 21
9.94943
 31
0.0
  0
LINE
  8
0
 62
     0
 10
3.21083
 20
9.94943
 30
0.0
 11
2.99723
 21
10.2898
 31
0.0
  0
LINE
  8
0
 62
     0
 10
2.99723
 20
10.2898
 30
0.0
 11
2.02434
 21
12.1322
 31
0.0
  0
LINE
  8
0
 62
     0
 10
2.02434
 20
12.1322
 30
0.0
 11
1.2237
 21
14.0546
 31
0.0
  0
LINE
  8
0
 62
     0
 10
1.2237
 20
14.0546
 30
0.0
 11
1.09692
 21
14.435
 31
0.0
  0
LINE
  8
0
 62
     0
 10
1.09692
 20
14.435
 30
0.0
 11
1.07625
 21
14.497
 31
0.0
  0
LINE
  8
0
 62
     0
 10
1.07625
 20
14.497
 30
0.0
 11
0.996322
 21
14.7478
 31
0.0
  0
LINE
  8
0
 62
     0
 10
0.996322
 20
14.7478
 30
0.0
 11
0.858516
 21
15.2053
 31
0.0
  0
LINE
  8
0
 62
     0
 10
0.858516
 20
15.2053
 30
0.0
 11
0.742763
 21
15.6531
 31
0.0
  0
LINE
  8
0
 62
     0
 10
0.742763
 20
15.6531
 30
0.0
 11
0.701421
 21
15.886
 31
0.0
  0
LINE
  8
0
 62
     0
 10
0.701421
 20
15.886
 30
0.0
 11
0.711069
 21
15.9329
 31
0.0
  0
LINE
  8
0
 62
     0
 10
0.711069
 20
15.9329
 30
0.0
 11
0.71658
 21
15.9673
 31
0.0
  0
LINE
  8
0
 62
     0
 10
0.71658
 20
15.9673
 30
0.0
 11
0.802019
 21
16.1134
 31
0.0
  0
LINE
  8
0
 62
     0
 10
0.802019
 20
16.1134
 30
0.0
 11
0.813043
 21
16.13
 31
0.0
  0
LINE
  8
0
 62
     0
 10
0.813043
 20
16.13
 30
0.0
 11
0.730359
 21
16.1837
 31
0.0
  0
LINE
  8
0
 62
     0
 10
0.730359
 20
16.1837
 30
0.0
 11
0.556729
 21
16.4551
 31
0.0
  0
LINE
  8
0
 62
     0
 10
0.556729
 20
16.4551
 30
0.0
 11
0.402389
 21
16.9388
 31
0.0
  0
LINE
  8
0
 62
     0
 10
0.402389
 20
16.9388
 30
0.0
 11
0.314193
 21
17.4625
 31
0.0
  0
LINE
  8
0
 62
     0
 10
0.314193
 20
17.4625
 30
0.0
 11
0.272852
 21
17.7974
 31
0.0
  0
LINE
  8
0
 62
     0
 10
0.272852
 20
17.7974
 30
0.0
 11
0.256315
 21
17.9076
 31
0.0
  0
LINE
  8
0
 62
     0
 10
0.256315
 20
17.9076
 30
0.0
 11
0.186035
 21
18.3569
 31
0.0
  0
LINE
  8
0
 62
     0
 10
0.186035
 20
18.3569
 30
0.0
 11
0.0482314
 21
20.6113
 31
0.0
  0
LINE
  8
0
 62
     0
 10
0.0482314
 20
20.6113
 30
0.0
 11
0.0509873
 21
22.6481
 31
0.0
  0
LINE
  8
0
 62
     0
 10
0.0509873
 20
22.6481
 30
0.0
 11
0.0509873
 21
23.3261
 31
0.0
  0
LINE
  8
0
 62
     0
 10
0.0509873
 20
23.3261
 30
0.0
 11
0.0509873
 21
23.3261
 31
0.0
  0
LINE
  8
0
 62
     0
 10
0.0509873
 20
23.3261
 30
0.0
 11
0.0509873
 21
24.2617
 31
0.0
  0
LINE
  8
0
 62
     0
 10
0.0509873
 20
24.2617
 30
0.0
 11
0.0509873
 21
26.727
 31
0.0
  0
LINE
  8
0
 62
     0
 10
0.0509873
 20
26.727
 30
0.0
 11
0.0509873
 21
30.2121
 31
0.0
  0
LINE
  8
0
 62
     0
 10
0.0509873
 20
30.2121
 30
0.0
 11
0.0509873
 21
34.2057
 31
0.0
  0
LINE
  8
0
 62
     0
 10
0.0509873
 20
34.2057
 30
0.0
 11
0.0509873
 21
38.2005
 31
0.0
  0
LINE
  8
0
 62
     0
 10
0.0509873
 20
38.2005
 30
0.0
 11
0.0509873
 21
41.6856
 31
0.0
  0
LINE
  8
0
 62
     0
 10
0.0509873
 20
41.6856
 30
0.0
 11
0.0509873
 21
44.1508
 31
0.0
  0
LINE
  8
0
 62
     0
 10
0.0509873
 20
44.1508
 30
0.0
 11
0.0509873
 21
45.0854
 31
0.0
  0
LINE
  8
0
 62
     0
 10
0.0509873
 20
45.0854
 30
0.0
 11
0.0509873
 21
45.0854
 31
0.0
  0
LINE
  8
0
 62
     0
 10
0.0509873
 20
45.0854
 30
0.0
 11
0.0509873
 21
45.0854
 31
0.0
  0
LINE
  8
0
 62
     0
 10
0.0509873
 20
45.0854
 30
0.0
 11
0.54157
 21
45.0854
 31
0.0
  0
LINE
  8
0
 62
     0
 10
0.54157
 20
45.0854
 30
0.0
 11
1.83692
 21
45.0854
 31
0.0
  0
LINE
  8
0
 62
     0
 10
1.83692
 20
45.0854
 30
0.0
 11
3.66695
 21
45.0854
 31
0.0
  0
LINE
  8
0
 62
     0
 10
3.66695
 20
45.0854
 30
0.0
 11
5.76573
 21
45.0854
 31
0.0
  0
LINE
  8
0
 62
     0
 10
5.76573
 20
45.0854
 30
0.0
 11
7.86447
 21
45.0854
 31
0.0
  0
LINE
  8
0
 62
     0
 10
7.86447
 20
45.0854
 30
0.0
 11
9.69451
 21
45.0854
 31
0.0
  0
LINE
  8
0
 62
     0
 10
9.69451
 20
45.0854
 30
0.0
 11
10.9898
 21
45.0854
 31
0.0
  0
LINE
  8
0
 62
     0
 10
10.9898
 20
45.0854
 30
0.0
 11
11.4818
 21
45.0854
 31
0.0
  0
LINE
  8
0
 62
     0
 10
11.4818
 20
45.0854
 30
0.0
 11
11.4818
 21
45.0854
 31
0.0
  0
LINE
  8
0
 62
     0
 10
11.4818
 20
45.0854
 30
0.0
 11
12.2218
 21
45.0854
 31
0.0
  0
LINE
  8
0
 62
     0
 10
12.2218
 20
45.0854
 30
0.0
 11
14.4432
 21
45.0868
 31
0.0
  0
LINE
  8
0
 62
     0
 10
14.4432
 20
45.0868
 30
0.0
 11
16.8245
 21
45.5979
 31
0.0
  0
LINE
  8
0
 62
     0
 10
16.8245
 20
45.5979
 30
0.0
 11
17.2379
 21
45.853
 31
0.0
  0
LINE
  8
0
 62
     0
 10
17.2379
 20
45.853
 30
0.0
 11
17.6375
 21
46.0996
 31
0.0
  0
LINE
  8
0
 62
     0
 10
17.6375
 20
46.0996
 30
0.0
 11
18.7096
 21
47.0546
 31
0.0
  0
LINE
  8
0
 62
     0
 10
18.7096
 20
47.0546
 30
0.0
 11
19.863
 21
48.5292
 31
0.0
  0
LINE
  8
0
 62
     0
 10
19.863
 20
48.5292
 30
0.0
 11
20.8098
 21
50.1675
 31
0.0
  0
LINE
  8
0
 62
     0
 10
20.8098
 20
50.1675
 30
0.0
 11
21.4505
 21
51.4354
 31
0.0
  0
LINE
  8
0
 62
     0
 10
21.4505
 20
51.4354
 30
0.0
 11
21.6628
 21
51.8583
 31
0.0
  0
LINE
  8
0
 62
     0
 10
21.6628
 20
51.8583
 30
0.0
 11
21.7193
 21
51.9726
 31
0.0
  0
LINE
  8
0
 62
     0
 10
21.7193
 20
51.9726
 30
0.0
 11
22.0348
 21
52.6009
 31
0.0
  0
LINE
  8
0
 62
     0
 10
22.0348
 20
52.6009
 30
0.0
 11
22.3904
 21
53.1992
 31
0.0
  0
LINE
  8
0
 62
     0
 10
22.3904
 20
53.1992
 30
0.0
 11
22.4675
 21
53.297
 31
0.0
  0
LINE
  8
0
 62
     0
 10
22.4675
 20
53.297
 30
0.0
 11
22.5103
 21
53.3534
 31
0.0
  0
LINE
  8
0
 62
     0
 10
22.5103
 20
53.3534
 30
0.0
 11
22.7652
 21
53.5961
 31
0.0
  0
LINE
  8
0
 62
     0
 10
22.7652
 20
53.5961
 30
0.0
 11
23.0863
 21
53.6635
 31
0.0
  0
LINE
  8
0
 62
     0
 10
23.0863
 20
53.6635
 30
0.0
 11
23.1648
 21
53.6303
 31
0.0
  0
LINE
  8
0
 62
     0
 10
23.1648
 20
53.6303
 30
0.0
 11
23.2985
 21
53.5753
 31
0.0
  0
LINE
  8
0
 62
     0
 10
23.2985
 20
53.5753
 30
0.0
 11
23.6306
 21
53.2405
 31
0.0
  0
LINE
  8
0
 62
     0
 10
23.6306
 20
53.2405
 30
0.0
 11
24.1143
 21
52.5748
 31
0.0
  0
LINE
  8
0
 62
     0
 10
24.1143
 20
52.5748
 30
0.0
 11
24.5497
 21
51.846
 31
0.0
  0
LINE
  8
0
 62
     0
 10
24.5497
 20
51.846
 30
0.0
 11
24.7895
 21
51.4103
 31
0.0
  0
LINE
  8
0
 62
     0
 10
24.7895
 20
51.4103
 30
0.0
 11
24.8708
 21
51.2657
 31
0.0
  0
LINE
  8
0
 62
     0
 10
24.8708
 20
51.2657
 30
0.0
 11
25.1726
 21
50.7213
 31
0.0
  0
LINE
  8
0
 62
     0
 10
25.1726
 20
50.7213
 30
0.0
 11
26.6265
 21
47.4102
 31
0.0
  0
LINE
  8
0
 62
     0
 10
26.6265
 20
47.4102
 30
0.0
 11
27.8763
 21
43.991
 31
0.0
  0
LINE
  8
0
 62
     0
 10
27.8763
 20
43.991
 30
0.0
 11
28.0761
 21
43.3917
 31
0.0
  0
LINE
  8
0
 62
     0
 10
28.0761
 20
43.3917
 30
0.0
 11
28.0761
 21
43.3917
 31
0.0
  0
LINE
  8
0
 62
     0
 10
28.0761
 20
43.3917
 30
0.0
 11
28.3022
 21
42.6791
 31
0.0
  0
LINE
  8
0
 62
     0
 10
28.3022
 20
42.6791
 30
0.0
 11
28.8988
 21
40.7995
 31
0.0
  0
LINE
  8
0
 62
     0
 10
28.8988
 20
40.7995
 30
0.0
 11
29.7436
 21
38.1413
 31
0.0
  0
LINE
  8
0
 62
     0
 10
29.7436
 20
38.1413
 30
0.0
 11
30.7123
 21
35.0945
 31
0.0
  0
LINE
  8
0
 62
     0
 10
30.7123
 20
35.0945
 30
0.0
 11
31.6797
 21
32.0491
 31
0.0
  0
LINE
  8
0
 62
     0
 10
31.6797
 20
32.0491
 30
0.0
 11
32.5245
 21
29.3908
 31
0.0
  0
LINE
  8
0
 62
     0
 10
32.5245
 20
29.3908
 30
0.0
 11
33.1211
 21
27.5112
 31
0.0
  0
LINE
  8
0
 62
     0
 10
33.1211
 20
27.5112
 30
0.0
 11
33.3485
 21
26.7973
 31
0.0
  0
LINE
  8
0
 62
     0
 10
33.3485
 20
26.7973
 30
0.0
 11
33.3485
 21
26.7973
 31
0.0
  0
LINE
  8
0
 62
     0
 10
33.3485
 20
26.7973
 30
0.0
 11
33.3485
 21
26.7973
 31
0.0
  0
LINE
  8
0
 62
     0
 10
33.3485
 20
26.7973
 30
0.0
 11
33.5235
 21
26.2199
 31
0.0
  0
LINE
  8
0
 62
     0
 10
33.5235
 20
26.2199
 30
0.0
 11
33.988
 21
24.6944
 31
0.0
  0
LINE
  8
0
 62
     0
 10
33.988
 20
24.6944
 30
0.0
 11
34.6439
 21
22.5392
 31
0.0
  0
LINE
  8
0
 62
     0
 10
34.6439
 20
22.5392
 30
0.0
 11
35.3963
 21
20.067
 31
0.0
  0
LINE
  8
0
 62
     0
 10
35.3963
 20
20.067
 30
0.0
 11
36.1488
 21
17.5948
 31
0.0
  0
LINE
  8
0
 62
     0
 10
36.1488
 20
17.5948
 30
0.0
 11
36.8046
 21
15.4395
 31
0.0
  0
LINE
  8
0
 62
     0
 10
36.8046
 20
15.4395
 30
0.0
 11
37.2692
 21
13.914
 31
0.0
  0
LINE
  8
0
 62
     0
 10
37.2692
 20
13.914
 30
0.0
 11
37.4456
 21
13.3353
 31
0.0
  0
LINE
  8
0
 62
     0
 10
37.4456
 20
13.3353
 30
0.0
 11
37.4456
 21
13.3353
 31
0.0
  0
LINE
  8
0
 62
     0
 10
37.4456
 20
13.3353
 30
0.0
 11
37.6135
 21
12.8171
 31
0.0
  0
LINE
  8
0
 62
     0
 10
37.6135
 20
12.8171
 30
0.0
 11
38.614
 21
9.84331
 31
0.0
  0
LINE
  8
0
 62
     0
 10
38.614
 20
9.84331
 30
0.0
 11
39.7524
 21
6.95494
 31
0.0
  0
LINE
  8
0
 62
     0
 10
39.7524
 20
6.95494
 30
0.0
 11
39.9919
 21
6.47816
 31
0.0
  0
LINE
  8
0
 62
     0
 10
39.9919
 20
6.47816
 30
0.0
 11
40.0678
 21
6.32658
 31
0.0
  0
LINE
  8
0
 62
     0
 10
40.0678
 20
6.32658
 30
0.0
 11
40.3172
 21
5.87872
 31
0.0
  0
LINE
  8
0
 62
     0
 10
40.3172
 20
5.87872
 30
0.0
 11
40.7596
 21
5.24895
 31
0.0
  0
LINE
  8
0
 62
     0
 10
40.7596
 20
5.24895
 30
0.0
 11
41.311
 21
4.77354
 31
0.0
  0
LINE
  8
0
 62
     0
 10
41.311
 20
4.77354
 30
0.0
 11
41.8056
 21
4.61504
 31
0.0
  0
LINE
  8
0
 62
     0
 10
41.8056
 20
4.61504
 30
0.0
 11
41.9612
 21
4.63434
 31
0.0
  0
LINE
  8
0
 62
     0
 10
41.9612
 20
4.63434
 30
0.0
 11
42.1252
 21
4.65501
 31
0.0
  0
LINE
  8
0
 62
     0
 10
42.1252
 20
4.65501
 30
0.0
 11
42.5898
 21
4.94026
 31
0.0
  0
LINE
  8
0
 62
     0
 10
42.5898
 20
4.94026
 30
0.0
 11
43.028
 21
5.55212
 31
0.0
  0
LINE
  8
0
 62
     0
 10
43.028
 20
5.55212
 30
0.0
 11
43.313
 21
6.29348
 31
0.0
  0
LINE
  8
0
 62
     0
 10
43.313
 20
6.29348
 30
0.0
 11
43.4481
 21
6.81164
 31
0.0
  0
LINE
  8
0
 62
     0
 10
43.4481
 20
6.81164
 30
0.0
 11
43.4855
 21
6.98528
 31
0.0
  0
LINE
  8
0
 62
     0
 10
43.4855
 20
6.98528
 30
0.0
 11
43.5928
 21
7.50757
 31
0.0
  0
LINE
  8
0
 62
     0
 10
43.5928
 20
7.50757
 30
0.0
 11
44.0186
 21
10.8176
 31
0.0
  0
LINE
  8
0
 62
     0
 10
44.0186
 20
10.8176
 30
0.0
 11
44.2404
 21
14.1552
 31
0.0
  0
LINE
  8
0
 62
     0
 10
44.2404
 20
14.1552
 30
0.0
 11
44.2475
 21
14.6899
 31
0.0
  0
LINE
  8
0
 62
     0
 10
44.2475
 20
14.6899
 30
0.0
 11
44.2475
 21
14.6899
 31
0.0
  0
LINE
  8
0
 62
     0
 10
44.2475
 20
14.6899
 30
0.0
 11
44.2874
 21
15.1143
 31
0.0
  0
LINE
  8
0
 62
     0
 10
44.2874
 20
15.1143
 30
0.0
 11
44.3286
 21
15.5374
 31
0.0
  0
LINE
  8
0
 62
     0
 10
44.3286
 20
15.5374
 30
0.0
 11
44.3286
 21
15.5374
 31
0.0
  0
LINE
  8
0
 62
     0
 10
44.3286
 20
15.5374
 30
0.0
 11
44.3286
 21
15.5374
 31
0.0
  0
LINE
  8
0
 62
     0
 10
44.3286
 20
15.5374
 30
0.0
 11
44.3286
 21
15.6959
 31
0.0
  0
LINE
  8
0
 62
     0
 10
44.3286
 20
15.6959
 30
0.0
 11
44.3286
 21
16.0445
 31
0.0
  0
LINE
  8
0
 62
     0
 10
44.3286
 20
16.0445
 30
0.0
 11
44.3286
 21
16.3932
 31
0.0
  0
LINE
  8
0
 62
     0
 10
44.3286
 20
16.3932
 30
0.0
 11
44.3286
 21
16.5516
 31
0.0
  0
LINE
  8
0
 62
     0
 10
44.3286
 20
16.5516
 30
0.0
 11
44.3286
 21
16.5516
 31
0.0
  0
LINE
  8
0
 62
     0
 10
44.3286
 20
16.5516
 30
0.0
 11
44.3286
 21
16.5516
 31
0.0
  0
LINE
  8
0
 62
     0
 10
44.3286
 20
16.5516
 30
0.0
 11
44.3424
 21
16.7514
 31
0.0
  0
LINE
  8
0
 62
     0
 10
44.3424
 20
16.7514
 30
0.0
 11
44.3727
 21
17.1869
 31
0.0
  0
LINE
  8
0
 62
     0
 10
44.3727
 20
17.1869
 30
0.0
 11
44.4031
 21
17.6237
 31
0.0
  0
LINE
  8
0
 62
     0
 10
44.4031
 20
17.6237
 30
0.0
 11
44.4168
 21
17.8222
 31
0.0
  0
LINE
  8
0
 62
     0
 10
44.4168
 20
17.8222
 30
0.0
 11
44.4168
 21
17.8222
 31
0.0
  0
LINE
  8
0
 62
     0
 10
44.4168
 20
17.8222
 30
0.0
 11
44.4168
 21
17.8222
 31
0.0
  0
LINE
  8
0
 62
     0
 10
44.4168
 20
17.8222
 30
0.0
 11
44.4168
 21
18.0082
 31
0.0
  0
LINE
  8
0
 62
     0
 10
44.4168
 20
18.0082
 30
0.0
 11
44.4168
 21
18.4161
 31
0.0
  0
LINE
  8
0
 62
     0
 10
44.4168
 20
18.4161
 30
0.0
 11
44.4168
 21
18.824
 31
0.0
  0
LINE
  8
0
 62
     0
 10
44.4168
 20
18.824
 30
0.0
 11
44.4168
 21
19.0087
 31
0.0
  0
LINE
  8
0
 62
     0
 10
44.4168
 20
19.0087
 30
0.0
 11
44.4168
 21
19.0087
 31
0.0
  0
LINE
  8
0
 62
     0
 10
44.4168
 20
19.0087
 30
0.0
 11
44.4168
 21
19.0087
 31
0.0
  0
LINE
  8
0
 62
     0
 10
44.4168
 20
19.0087
 30
0.0
 11
44.4292
 21
19.2209
 31
0.0
  0
LINE
  8
0
 62
     0
 10
44.4292
 20
19.2209
 30
0.0
 11
44.4581
 21
19.6867
 31
0.0
  0
LINE
  8
0
 62
     0
 10
44.4581
 20
19.6867
 30
0.0
 11
44.487
 21
20.1524
 31
0.0
  0
LINE
  8
0
 62
     0
 10
44.487
 20
20.1524
 30
0.0
 11
44.5012
 21
20.3633
 31
0.0
  0
LINE
  8
0
 62
     0
 10
44.5012
 20
20.3633
 30
0.0
 11
44.5012
 21
20.3633
 31
0.0
  0
LINE
  8
0
 62
     0
 10
44.5012
 20
20.3633
 30
0.0
 11
44.5012
 21
20.3633
 31
0.0
  0
LINE
  8
0
 62
     0
 10
44.5012
 20
20.3633
 30
0.0
 11
44.5012
 21
20.6416
 31
0.0
  0
LINE
  8
0
 62
     0
 10
44.5012
 20
20.6416
 30
0.0
 11
44.5012
 21
21.2521
 31
0.0
  0
LINE
  8
0
 62
     0
 10
44.5012
 20
21.2521
 30
0.0
 11
44.5012
 21
21.864
 31
0.0
  0
LINE
  8
0
 62
     0
 10
44.5012
 20
21.864
 30
0.0
 11
44.5012
 21
22.1409
 31
0.0
  0
LINE
  8
0
 62
     0
 10
44.5012
 20
22.1409
 30
0.0
 11
44.5012
 21
22.1409
 31
0.0
  0
LINE
  8
0
 62
     0
 10
44.5012
 20
22.1409
 30
0.0
 11
44.5012
 21
22.1409
 31
0.0
  0
LINE
  8
0
 62
     0
 10
44.5012
 20
22.1409
 30
0.0
 11
44.5135
 21
22.3669
 31
0.0
  0
LINE
  8
0
 62
     0
 10
44.5135
 20
22.3669
 30
0.0
 11
44.5438
 21
22.8603
 31
0.0
  0
LINE
  8
0
 62
     0
 10
44.5438
 20
22.8603
 30
0.0
 11
44.5728
 21
23.355
 31
0.0
  0
LINE
  8
0
 62
     0
 10
44.5728
 20
23.355
 30
0.0
 11
44.5865
 21
23.5796
 31
0.0
  0
LINE
  8
0
 62
     0
 10
44.5865
 20
23.5796
 30
0.0
 11
44.5865
 21
23.5796
 31
0.0
  0
LINE
  8
0
 62
     0
 10
44.5865
 20
23.5796
 30
0.0
 11
44.5865
 21
23.5796
 31
0.0
  0
LINE
  8
0
 62
     0
 10
44.5865
 20
23.5796
 30
0.0
 11
44.5865
 21
24.0702
 31
0.0
  0
LINE
  8
0
 62
     0
 10
44.5865
 20
24.0702
 30
0.0
 11
44.5865
 21
25.1465
 31
0.0
  0
LINE
  8
0
 62
     0
 10
44.5865
 20
25.1465
 30
0.0
 11
44.5865
 21
26.2241
 31
0.0
  0
LINE
  8
0
 62
     0
 10
44.5865
 20
26.2241
 30
0.0
 11
44.5865
 21
26.7133
 31
0.0
  0
LINE
  8
0
 62
     0
 10
44.5865
 20
26.7133
 30
0.0
 11
44.5865
 21
26.7133
 31
0.0
  0
LINE
  8
0
 62
     0
 10
44.5865
 20
26.7133
 30
0.0
 11
44.5865
 21
26.7133
 31
0.0
  0
LINE
  8
0
 62
     0
 10
44.5865
 20
26.7133
 30
0.0
 11
44.5989
 21
26.9117
 31
0.0
  0
LINE
  8
0
 62
     0
 10
44.5989
 20
26.9117
 30
0.0
 11
44.6278
 21
27.3485
 31
0.0
  0
LINE
  8
0
 62
     0
 10
44.6278
 20
27.3485
 30
0.0
 11
44.6567
 21
27.7854
 31
0.0
  0
LINE
  8
0
 62
     0
 10
44.6567
 20
27.7854
 30
0.0
 11
44.6705
 21
27.9824
 31
0.0
  0
LINE
  8
0
 62
     0
 10
44.6705
 20
27.9824
 30
0.0
 11
44.6705
 21
27.9824
 31
0.0
  0
LINE
  8
0
 62
     0
 10
44.6705
 20
27.9824
 30
0.0
 11
44.6705
 21
27.9824
 31
0.0
  0
LINE
  8
0
 62
     0
 10
44.6705
 20
27.9824
 30
0.0
 11
44.6705
 21
28.2126
 31
0.0
  0
LINE
  8
0
 62
     0
 10
44.6705
 20
28.2126
 30
0.0
 11
44.6705
 21
28.8162
 31
0.0
  0
LINE
  8
0
 62
     0
 10
44.6705
 20
28.8162
 30
0.0
 11
44.6705
 21
29.6706
 31
0.0
  0
LINE
  8
0
 62
     0
 10
44.6705
 20
29.6706
 30
0.0
 11
44.6705
 21
30.6503
 31
0.0
  0
LINE
  8
0
 62
     0
 10
44.6705
 20
30.6503
 30
0.0
 11
44.6705
 21
31.6301
 31
0.0
  0
LINE
  8
0
 62
     0
 10
44.6705
 20
31.6301
 30
0.0
 11
44.6705
 21
32.4845
 31
0.0
  0
LINE
  8
0
 62
     0
 10
44.6705
 20
32.4845
 30
0.0
 11
44.6705
 21
33.0881
 31
0.0
  0
LINE
  8
0
 62
     0
 10
44.6705
 20
33.0881
 30
0.0
 11
44.6705
 21
33.3168
 31
0.0
  0
LINE
  8
0
 62
     0
 10
44.6705
 20
33.3168
 30
0.0
 11
44.6705
 21
33.3168
 31
0.0
  0
LINE
  8
0
 62
     0
 10
44.6705
 20
33.3168
 30
0.0
 11
44.6705
 21
33.6544
 31
0.0
  0
LINE
  8
0
 62
     0
 10
44.6705
 20
33.6544
 30
0.0
 11
44.6553
 21
34.6659
 31
0.0
  0
LINE
  8
0
 62
     0
 10
44.6553
 20
34.6659
 30
0.0
 11
44.8289
 21
35.7657
 31
0.0
  0
LINE
  8
0
 62
     0
 10
44.8289
 20
35.7657
 30
0.0
 11
44.9241
 21
35.9421
 31
0.0
  0
LINE
  8
0
 62
     0
 10
44.9241
 20
35.9421
 30
0.0
 11
44.8744
 21
35.96
 31
0.0
  0
LINE
  8
0
 62
     0
 10
44.8744
 20
35.96
 30
0.0
 11
44.7629
 21
36.1047
 31
0.0
  0
LINE
  8
0
 62
     0
 10
44.7629
 20
36.1047
 30
0.0
 11
44.7559
 21
36.3142
 31
0.0
  0
LINE
  8
0
 62
     0
 10
44.7559
 20
36.3142
 30
0.0
 11
44.7544
 21
36.365
 31
0.0
  0
LINE
  8
0
 62
     0
 10
44.7544
 20
36.365
 30
0.0
 11
44.7544
 21
36.365
 31
0.0
  0
LINE
  8
0
 62
     0
 10
44.7544
 20
36.365
 30
0.0
 11
44.7544
 21
36.7358
 31
0.0
  0
LINE
  8
0
 62
     0
 10
44.7544
 20
36.7358
 30
0.0
 11
44.7544
 21
37.55
 31
0.0
  0
LINE
  8
0
 62
     0
 10
44.7544
 20
37.55
 30
0.0
 11
44.7544
 21
38.366
 31
0.0
  0
LINE
  8
0
 62
     0
 10
44.7544
 20
38.366
 30
0.0
 11
44.7544
 21
38.7354
 31
0.0
  0
LINE
  8
0
 62
     0
 10
44.7544
 20
38.7354
 30
0.0
 11
44.7544
 21
38.7354
 31
0.0
  0
LINE
  8
0
 62
     0
 10
44.7544
 20
38.7354
 30
0.0
 11
44.7544
 21
38.7354
 31
0.0
  0
LINE
  8
0
 62
     0
 10
44.7544
 20
38.7354
 30
0.0
 11
44.7544
 21
39.1142
 31
0.0
  0
LINE
  8
0
 62
     0
 10
44.7544
 20
39.1142
 30
0.0
 11
44.7544
 21
40.1119
 31
0.0
  0
LINE
  8
0
 62
     0
 10
44.7544
 20
40.1119
 30
0.0
 11
44.7544
 21
41.5216
 31
0.0
  0
LINE
  8
0
 62
     0
 10
44.7544
 20
41.5216
 30
0.0
 11
44.7544
 21
43.138
 31
0.0
  0
LINE
  8
0
 62
     0
 10
44.7544
 20
43.138
 30
0.0
 11
44.7544
 21
44.7559
 31
0.0
  0
LINE
  8
0
 62
     0
 10
44.7544
 20
44.7559
 30
0.0
 11
44.7544
 21
46.1656
 31
0.0
  0
LINE
  8
0
 62
     0
 10
44.7544
 20
46.1656
 30
0.0
 11
44.7544
 21
47.1632
 31
0.0
  0
LINE
  8
0
 62
     0
 10
44.7544
 20
47.1632
 30
0.0
 11
44.7544
 21
47.541
 31
0.0
  0
LINE
  8
0
 62
     0
 10
44.7544
 20
47.541
 30
0.0
 11
44.7544
 21
47.541
 31
0.0
  0
LINE
  8
0
 62
     0
 10
44.7544
 20
47.541
 30
0.0
 11
44.7544
 21
47.541
 31
0.0
  0
LINE
  8
0
 62
     0
 10
44.7544
 20
47.541
 30
0.0
 11
44.7544
 21
47.7559
 31
0.0
  0
LINE
  8
0
 62
     0
 10
44.7544
 20
47.7559
 30
0.0
 11
44.7544
 21
48.3224
 31
0.0
  0
LINE
  8
0
 62
     0
 10
44.7544
 20
48.3224
 30
0.0
 11
44.7544
 21
49.1215
 31
0.0
  0
LINE
  8
0
 62
     0
 10
44.7544
 20
49.1215
 30
0.0
 11
44.7544
 21
50.038
 31
0.0
  0
LINE
  8
0
 62
     0
 10
44.7544
 20
50.038
 30
0.0
 11
44.7544
 21
50.9556
 31
0.0
  0
LINE
  8
0
 62
     0
 10
44.7544
 20
50.9556
 30
0.0
 11
44.7544
 21
51.755
 31
0.0
  0
LINE
  8
0
 62
     0
 10
44.7544
 20
51.755
 30
0.0
 11
44.7544
 21
52.3215
 31
0.0
  0
LINE
  8
0
 62
     0
 10
44.7544
 20
52.3215
 30
0.0
 11
44.7544
 21
52.535
 31
0.0
  0
LINE
  8
0
 62
     0
 10
44.7544
 20
52.535
 30
0.0
 11
44.7544
 21
52.535
 31
0.0
  0
LINE
  8
0
 62
     0
 10
44.7544
 20
52.535
 30
0.0
 11
44.7544
 21
52.535
 31
0.0
  0
LINE
  8
0
 62
     0
 10
44.7544
 20
52.535
 30
0.0
 11
44.7668
 21
52.7611
 31
0.0
  0
LINE
  8
0
 62
     0
 10
44.7668
 20
52.7611
 30
0.0
 11
44.7971
 21
53.2557
 31
0.0
  0
LINE
  8
0
 62
     0
 10
44.7971
 20
53.2557
 30
0.0
 11
44.8261
 21
53.7503
 31
0.0
  0
LINE
  8
0
 62
     0
 10
44.8261
 20
53.7503
 30
0.0
 11
44.8398
 21
53.975
 31
0.0
  0
LINE
  8
0
 62
     0
 10
44.8398
 20
53.975
 30
0.0
 11
44.8398
 21
53.975
 31
0.0
  0
LINE
  8
0
 62
     0
 10
44.8398
 20
53.975
 30
0.0
 11
44.8398
 21
53.975
 31
0.0
  0
LINE
  8
0
 62
     0
 10
44.8398
 20
53.975
 30
0.0
 11
44.8398
 21
54.168
 31
0.0
  0
LINE
  8
0
 62
     0
 10
44.8398
 20
54.168
 30
0.0
 11
44.8398
 21
54.6763
 31
0.0
  0
LINE
  8
0
 62
     0
 10
44.8398
 20
54.6763
 30
0.0
 11
44.8398
 21
55.3956
 31
0.0
  0
LINE
  8
0
 62
     0
 10
44.8398
 20
55.3956
 30
0.0
 11
44.8398
 21
56.2197
 31
0.0
  0
LINE
  8
0
 62
     0
 10
44.8398
 20
56.2197
 30
0.0
 11
44.8398
 21
57.0438
 31
0.0
  0
LINE
  8
0
 62
     0
 10
44.8398
 20
57.0438
 30
0.0
 11
44.8398
 21
57.7631
 31
0.0
  0
LINE
  8
0
 62
     0
 10
44.8398
 20
57.7631
 30
0.0
 11
44.8398
 21
58.2718
 31
0.0
  0
LINE
  8
0
 62
     0
 10
44.8398
 20
58.2718
 30
0.0
 11
44.8398
 21
58.4634
 31
0.0
  0
LINE
  8
0
 62
     0
 10
44.8398
 20
58.4634
 30
0.0
 11
44.8398
 21
58.4634
 31
0.0
  0
LINE
  8
0
 62
     0
 10
44.8398
 20
58.4634
 30
0.0
 11
44.8398
 21
58.4634
 31
0.0
  0
LINE
  8
0
 62
     0
 10
44.8398
 20
58.4634
 30
0.0
 11
44.8525
 21
58.6617
 31
0.0
  0
LINE
  8
0
 62
     0
 10
44.8525
 20
58.6617
 30
0.0
 11
44.8814
 21
59.0984
 31
0.0
  0
LINE
  8
0
 62
     0
 10
44.8814
 20
59.0984
 30
0.0
 11
44.9104
 21
59.5355
 31
0.0
  0
LINE
  8
0
 62
     0
 10
44.9104
 20
59.5355
 30
0.0
 11
44.9241
 21
59.7323
 31
0.0
  0
LINE
  8
0
 62
     0
 10
44.9241
 20
59.7323
 30
0.0
 11
44.9241
 21
59.7323
 31
0.0
  0
LINE
  8
0
 62
     0
 10
44.9241
 20
59.7323
 30
0.0
 11
44.9241
 21
59.7323
 31
0.0
  0
LINE
  8
0
 62
     0
 10
44.9241
 20
59.7323
 30
0.0
 11
44.9241
 21
60.1031
 31
0.0
  0
LINE
  8
0
 62
     0
 10
44.9241
 20
60.1031
 30
0.0
 11
44.9241
 21
60.9191
 31
0.0
  0
LINE
  8
0
 62
     0
 10
44.9241
 20
60.9191
 30
0.0
 11
44.9241
 21
61.7347
 31
0.0
  0
LINE
  8
0
 62
     0
 10
44.9241
 20
61.7347
 30
0.0
 11
44.9241
 21
62.1041
 31
0.0
  0
LINE
  8
0
 62
     0
 10
44.9241
 20
62.1041
 30
0.0
 11
44.9241
 21
62.1041
 31
0.0
  0
LINE
  8
0
 62
     0
 10
44.9241
 20
62.1041
 30
0.0
 11
44.9241
 21
62.1041
 31
0.0
  0
LINE
  8
0
 62
     0
 10
44.9241
 20
62.1041
 30
0.0
 11
44.9365
 21
62.3302
 31
0.0
  0
LINE
  8
0
 62
     0
 10
44.9365
 20
62.3302
 30
0.0
 11
44.9668
 21
62.8234
 31
0.0
  0
LINE
  8
0
 62
     0
 10
44.9668
 20
62.8234
 30
0.0
 11
44.9957
 21
63.318
 31
0.0
  0
LINE
  8
0
 62
     0
 10
44.9957
 20
63.318
 30
0.0
 11
45.0095
 21
63.5427
 31
0.0
  0
LINE
  8
0
 62
     0
 10
45.0095
 20
63.5427
 30
0.0
 11
45.0095
 21
63.5427
 31
0.0
  0
LINE
  8
0
 62
     0
 10
45.0095
 20
63.5427
 30
0.0
 11
45.0095
 21
63.5427
 31
0.0
  0
LINE
  8
0
 62
     0
 10
45.0095
 20
63.5427
 30
0.0
 11
45.0219
 21
64.0994
 31
0.0
  0
LINE
  8
0
 62
     0
 10
45.0219
 20
64.0994
 30
0.0
 11
45.0508
 21
65.3217
 31
0.0
  0
LINE
  8
0
 62
     0
 10
45.0508
 20
65.3217
 30
0.0
 11
45.0797
 21
66.5441
 31
0.0
  0
LINE
  8
0
 62
     0
 10
45.0797
 20
66.5441
 30
0.0
 11
45.0935
 21
67.0994
 31
0.0
  0
LINE
  8
0
 62
     0
 10
45.0935
 20
67.0994
 30
0.0
 11
45.0935
 21
67.0994
 31
0.0
  0
LINE
  8
0
 62
     0
 10
45.0935
 20
67.0994
 30
0.0
 11
45.0935
 21
67.0994
 31
0.0
  0
LINE
  8
0
 62
     0
 10
45.0935
 20
67.0994
 30
0.0
 11
45.1058
 21
67.4038
 31
0.0
  0
LINE
  8
0
 62
     0
 10
45.1058
 20
67.4038
 30
0.0
 11
45.1362
 21
68.0738
 31
0.0
  0
LINE
  8
0
 62
     0
 10
45.1362
 20
68.0738
 30
0.0
 11
45.1651
 21
68.7433
 31
0.0
  0
LINE
  8
0
 62
     0
 10
45.1651
 20
68.7433
 30
0.0
 11
45.1788
 21
69.0467
 31
0.0
  0
LINE
  8
0
 62
     0
 10
45.1788
 20
69.0467
 30
0.0
 11
45.1788
 21
69.0467
 31
0.0
  0
LINE
  8
0
 62
     0
 10
45.1788
 20
69.0467
 30
0.0
 11
45.1788
 21
69.0467
 31
0.0
  0
LINE
  8
0
 62
     0
 10
45.1788
 20
69.0467
 30
0.0
 11
45.1915
 21
69.245
 31
0.0
  0
LINE
  8
0
 62
     0
 10
45.1915
 20
69.245
 30
0.0
 11
45.2205
 21
69.6817
 31
0.0
  0
LINE
  8
0
 62
     0
 10
45.2205
 20
69.6817
 30
0.0
 11
45.2494
 21
70.1188
 31
0.0
  0
LINE
  8
0
 62
     0
 10
45.2494
 20
70.1188
 30
0.0
 11
45.2632
 21
70.3157
 31
0.0
  0
LINE
  8
0
 62
     0
 10
45.2632
 20
70.3157
 30
0.0
 11
45.2632
 21
70.3157
 31
0.0
  0
LINE
  8
0
 62
     0
 10
45.2632
 20
70.3157
 30
0.0
 11
45.2632
 21
70.3157
 31
0.0
  0
LINE
  8
0
 62
     0
 10
45.2632
 20
70.3157
 30
0.0
 11
45.2755
 21
70.6078
 31
0.0
  0
LINE
  8
0
 62
     0
 10
45.2755
 20
70.6078
 30
0.0
 11
45.3058
 21
71.2474
 31
0.0
  0
LINE
  8
0
 62
     0
 10
45.3058
 20
71.2474
 30
0.0
 11
45.3348
 21
71.888
 31
0.0
  0
LINE
  8
0
 62
     0
 10
45.3348
 20
71.888
 30
0.0
 11
45.3485
 21
72.179
 31
0.0
  0
LINE
  8
0
 62
     0
 10
45.3485
 20
72.179
 30
0.0
 11
45.3485
 21
72.179
 31
0.0
  0
LINE
  8
0
 62
     0
 10
45.3485
 20
72.179
 30
0.0
 11
45.3485
 21
72.179
 31
0.0
  0
LINE
  8
0
 62
     0
 10
45.3485
 20
72.179
 30
0.0
 11
45.3595
 21
72.3251
 31
0.0
  0
LINE
  8
0
 62
     0
 10
45.3595
 20
72.3251
 30
0.0
 11
45.3856
 21
72.6447
 31
0.0
  0
LINE
  8
0
 62
     0
 10
45.3856
 20
72.6447
 30
0.0
 11
45.412
 21
72.9657
 31
0.0
  0
LINE
  8
0
 62
     0
 10
45.412
 20
72.9657
 30
0.0
 11
45.4244
 21
73.1104
 31
0.0
  0
LINE
  8
0
 62
     0
 10
45.4244
 20
73.1104
 30
0.0
 11
45.4244
 21
73.1104
 31
0.0
  0
LINE
  8
0
 62
     0
 10
45.4244
 20
73.1104
 30
0.0
 11
45.4656
 21
73.7126
 31
0.0
  0
LINE
  8
0
 62
     0
 10
45.4656
 20
73.7126
 30
0.0
 11
46.0005
 21
79.7084
 31
0.0
  0
LINE
  8
0
 62
     0
 10
46.0005
 20
79.7084
 30
0.0
 11
46.0872
 21
80.3067
 31
0.0
  0
LINE
  8
0
 62
     0
 10
46.0872
 20
80.3067
 30
0.0
 11
46.1352
 21
80.6415
 31
0.0
  0
LINE
  8
0
 62
     0
 10
46.1352
 20
80.6415
 30
0.0
 11
46.2841
 21
81.6462
 31
0.0
  0
LINE
  8
0
 62
     0
 10
46.2841
 20
81.6462
 30
0.0
 11
46.5391
 21
83.0061
 31
0.0
  0
LINE
  8
0
 62
     0
 10
46.5391
 20
83.0061
 30
0.0
 11
46.9124
 21
84.3276
 31
0.0
  0
LINE
  8
0
 62
     0
 10
46.9124
 20
84.3276
 30
0.0
 11
47.2983
 21
85.2646
 31
0.0
  0
LINE
  8
0
 62
     0
 10
47.2983
 20
85.2646
 30
0.0
 11
47.4652
 21
85.5557
 31
0.0
  0
ENDSEC
  0
EOF
