<?xml version="1.0" encoding="UTF-8"?><svg xmlns="http://www.w3.org/2000/svg" xmlns:xlink="http://www.w3.org/1999/xlink" fill-opacity="1" color-rendering="auto" color-interpolation="auto" text-rendering="auto" stroke="black" stroke-linecap="square" width="2998" stroke-miterlimit="10" shape-rendering="auto" stroke-opacity="1" fill="black" stroke-dasharray="none" font-weight="normal" stroke-width="1" height="1282" font-family="'Dialog'" font-style="normal" stroke-linejoin="miter" font-size="12px" stroke-dashoffset="0" image-rendering="auto">
  <!--Generated by ySVG 2.6-->
  <defs id="genericDefs"/>
  <g>
    <defs id="defs1">
      <clipPath clipPathUnits="userSpaceOnUse" id="clipPath1">
        <path d="M0 0 L2998 0 L2998 1282 L0 1282 L0 0 Z"/>
      </clipPath>
      <clipPath clipPathUnits="userSpaceOnUse" id="clipPath2">
        <path d="M-277 -768 L-63.3062 -768 L-63.3062 -676.6206 L-277 -676.6206 L-277 -768 Z"/>
      </clipPath>
    </defs>
    <g fill="white" text-rendering="geometricPrecision" shape-rendering="geometricPrecision" transform="scale(14.0294,14.0294) translate(277,768)" stroke="white">
      <rect x="-277" width="214" height="93" y="-769" clip-path="url(#clipPath2)" stroke="none"/>
    </g>
    <g fill="rgb(244,244,244)" text-rendering="geometricPrecision" shape-rendering="geometricPrecision" transform="matrix(14.0294,0,0,14.0294,3886.1498,10774.5958)" stroke="rgb(244,244,244)">
      <rect x="-230.6069" width="81.2693" height="20.4" y="-745.9928" clip-path="url(#clipPath2)" stroke="none"/>
    </g>
    <g text-rendering="geometricPrecision" stroke-miterlimit="1.45" shape-rendering="geometricPrecision" transform="matrix(14.0294,0,0,14.0294,3886.1498,10774.5958)" stroke-linecap="butt">
      <rect fill="none" x="-230.6069" width="81.2693" height="20.4" y="-745.9928" clip-path="url(#clipPath2)"/>
      <text x="-224.6069" y="-731.0789" clip-path="url(#clipPath2)" font-family="sans-serif" stroke="none" font-weight="bold" xml:space="preserve">t: type</text>
    </g>
    <g fill="rgb(255,255,244)" text-rendering="geometricPrecision" shape-rendering="geometricPrecision" transform="matrix(14.0294,0,0,14.0294,3886.1498,10774.5958)" stroke="rgb(255,255,244)">
      <rect x="-230.6069" width="81.2693" height="20.4" y="-725.5928" clip-path="url(#clipPath2)" stroke="none"/>
    </g>
    <g text-rendering="geometricPrecision" stroke-miterlimit="1.45" shape-rendering="geometricPrecision" transform="matrix(14.0294,0,0,14.0294,3886.1498,10774.5958)" stroke-linecap="butt">
      <rect fill="none" x="-230.6069" width="81.2693" height="20.4" y="-725.5928" clip-path="url(#clipPath2)"/>
      <text x="-224.6069" xml:space="preserve" y="-710.6789" clip-path="url(#clipPath2)" font-family="sans-serif" stroke="none">a1: value 1</text>
    </g>
    <g fill="white" text-rendering="geometricPrecision" shape-rendering="geometricPrecision" transform="matrix(14.0294,0,0,14.0294,3886.1498,10774.5958)" stroke="white">
      <rect x="-242.3525" width="144.6573" height="20.4" y="-766.3928" clip-path="url(#clipPath2)" stroke="none"/>
    </g>
    <g text-rendering="geometricPrecision" stroke-miterlimit="1.45" shape-rendering="geometricPrecision" transform="matrix(14.0294,0,0,14.0294,3886.1498,10774.5958)" stroke-linecap="butt">
      <rect fill="none" x="-242.3525" width="144.6573" height="20.4" y="-766.3928" clip-path="url(#clipPath2)"/>
      <text x="-236.3525" xml:space="preserve" y="-751.4789" clip-path="url(#clipPath2)" font-family="sans-serif" stroke="none">message object</text>
    </g>
    <g fill="white" text-rendering="geometricPrecision" shape-rendering="geometricPrecision" transform="matrix(14.0294,0,0,14.0294,3886.1498,10774.5958)" stroke="white">
      <rect x="-242.3525" width="11.7456" height="61.2" y="-745.9928" clip-path="url(#clipPath2)" stroke="none"/>
    </g>
    <g text-rendering="geometricPrecision" stroke-miterlimit="1.45" shape-rendering="geometricPrecision" transform="matrix(14.0294,0,0,14.0294,3886.1498,10774.5958)" stroke-linecap="butt">
      <rect fill="none" x="-242.3525" width="11.7456" height="61.2" y="-745.9928" clip-path="url(#clipPath2)"/>
    </g>
    <g fill="white" text-rendering="geometricPrecision" shape-rendering="geometricPrecision" transform="matrix(14.0294,0,0,14.0294,3886.1498,10774.5958)" stroke="white">
      <rect x="-149.3376" width="51.6424" height="20.4" y="-745.9928" clip-path="url(#clipPath2)" stroke="none"/>
    </g>
    <g text-rendering="geometricPrecision" stroke-miterlimit="1.45" shape-rendering="geometricPrecision" transform="matrix(14.0294,0,0,14.0294,3886.1498,10774.5958)" stroke-linecap="butt">
      <rect fill="none" x="-149.3376" width="51.6424" height="20.4" y="-745.9928" clip-path="url(#clipPath2)"/>
      <text x="-143.3376" xml:space="preserve" y="-731.0789" clip-path="url(#clipPath2)" font-family="sans-serif" stroke="none">char(1)</text>
    </g>
    <g fill="white" text-rendering="geometricPrecision" shape-rendering="geometricPrecision" transform="matrix(14.0294,0,0,14.0294,3886.1498,10774.5958)" stroke="white">
      <rect x="-149.3376" width="51.6424" height="20.4" y="-725.5928" clip-path="url(#clipPath2)" stroke="none"/>
    </g>
    <g text-rendering="geometricPrecision" stroke-miterlimit="1.45" shape-rendering="geometricPrecision" transform="matrix(14.0294,0,0,14.0294,3886.1498,10774.5958)" stroke-linecap="butt">
      <rect fill="none" x="-149.3376" width="51.6424" height="20.4" y="-725.5928" clip-path="url(#clipPath2)"/>
      <text x="-143.3376" xml:space="preserve" y="-710.6789" clip-path="url(#clipPath2)" font-family="sans-serif" stroke="none">char(64)</text>
    </g>
    <g fill="rgb(255,255,244)" text-rendering="geometricPrecision" shape-rendering="geometricPrecision" transform="matrix(14.0294,0,0,14.0294,3886.1498,10774.5958)" stroke="rgb(255,255,244)">
      <rect x="-230.6069" width="81.2693" height="20.4" y="-705.1928" clip-path="url(#clipPath2)" stroke="none"/>
    </g>
    <g text-rendering="geometricPrecision" stroke-miterlimit="1.45" shape-rendering="geometricPrecision" transform="matrix(14.0294,0,0,14.0294,3886.1498,10774.5958)" stroke-linecap="butt">
      <rect fill="none" x="-230.6069" width="81.2693" height="20.4" y="-705.1928" clip-path="url(#clipPath2)"/>
      <text x="-224.6069" xml:space="preserve" y="-690.2789" clip-path="url(#clipPath2)" font-family="sans-serif" stroke="none">a2: value 2</text>
    </g>
    <g fill="white" text-rendering="geometricPrecision" shape-rendering="geometricPrecision" transform="matrix(14.0294,0,0,14.0294,3886.1498,10774.5958)" stroke="white">
      <rect x="-149.3376" width="51.6424" height="20.4" y="-705.1928" clip-path="url(#clipPath2)" stroke="none"/>
    </g>
    <g text-rendering="geometricPrecision" stroke-miterlimit="1.45" shape-rendering="geometricPrecision" transform="matrix(14.0294,0,0,14.0294,3886.1498,10774.5958)" stroke-linecap="butt">
      <rect fill="none" x="-149.3376" width="51.6424" height="20.4" y="-705.1928" clip-path="url(#clipPath2)"/>
      <text x="-143.3376" xml:space="preserve" y="-690.2789" clip-path="url(#clipPath2)" font-family="sans-serif" stroke="none">bool</text>
    </g>
  </g>
</svg>
