<?xml version="1.0" encoding="UTF-8" standalone="no"?>
<svg xmlns="http://www.w3.org/2000/svg" xmlns:xlink="http://www.w3.org/1999/xlink" contentStyleType="text/css" height="161px" preserveAspectRatio="none" style="width:1365px;height:161px;background:#FFFFFF;" version="1.1" viewBox="0 0 1365 161" width="1365px" zoomAndPan="magnify"><defs/><g><!--MD5=[373743331eba832deb148f5283aaf450]
cluster imu_tracker::data_structures::function_return_types.dart--><g id="cluster_imu_tracker::data_structures::function_return_types.dart"><path d="M8.5,6 L479.5,6 A3.75,3.75 0 0 1 482,8.5 L489,28.2969 L646.5,28.2969 A2.5,2.5 0 0 1 649,30.7969 L649,151.5 A2.5,2.5 0 0 1 646.5,154 L8.5,154 A2.5,2.5 0 0 1 6,151.5 L6,8.5 A2.5,2.5 0 0 1 8.5,6 " style="stroke:#000000;stroke-width:1.5;fill:none;"/><line style="stroke:#000000;stroke-width:1.5;fill:none;" x1="6" x2="489" y1="28.2969" y2="28.2969"/><text fill="#000000" font-family="sans-serif" font-size="14" font-weight="bold" lengthAdjust="spacing" textLength="470" x="10" y="20.9951">imu_tracker::data_structures::function_return_types.dart</text></g><!--MD5=[91feabe03e899624326cf9d7378d1d42]
cluster imu_tracker::data_structures::response_numbers.dart--><g id="cluster_imu_tracker::data_structures::response_numbers.dart"><path d="M675.5,14 L1117.5,14 A3.75,3.75 0 0 1 1120,16.5 L1127,36.2969 L1127.5,36.2969 A2.5,2.5 0 0 1 1130,38.7969 L1130,143.5 A2.5,2.5 0 0 1 1127.5,146 L675.5,146 A2.5,2.5 0 0 1 673,143.5 L673,16.5 A2.5,2.5 0 0 1 675.5,14 " style="stroke:#000000;stroke-width:1.5;fill:none;"/><line style="stroke:#000000;stroke-width:1.5;fill:none;" x1="673" x2="1127" y1="36.2969" y2="36.2969"/><text fill="#000000" font-family="sans-serif" font-size="14" font-weight="bold" lengthAdjust="spacing" textLength="441" x="677" y="28.9951">imu_tracker::data_structures::response_numbers.dart</text></g><!--MD5=[62739af856912375824d930c91f1bc1c]
cluster imu_tracker::main.dart--><g id="cluster_imu_tracker::main.dart"><path d="M1156.5,22.5 L1345.5,22.5 A3.75,3.75 0 0 1 1348,25 L1355,44.7969 L1355.5,44.7969 A2.5,2.5 0 0 1 1358,47.2969 L1358,135 A2.5,2.5 0 0 1 1355.5,137.5 L1156.5,137.5 A2.5,2.5 0 0 1 1154,135 L1154,25 A2.5,2.5 0 0 1 1156.5,22.5 " style="stroke:#000000;stroke-width:1.5;fill:none;"/><line style="stroke:#000000;stroke-width:1.5;fill:none;" x1="1154" x2="1355" y1="44.7969" y2="44.7969"/><text fill="#000000" font-family="sans-serif" font-size="14" font-weight="bold" lengthAdjust="spacing" textLength="188" x="1158" y="37.4951">imu_tracker::main.dart</text></g><!--MD5=[69735a02f8ebbdcf5beb6a37f7da56e6]
class imu_tracker::data_structures::function_return_types.dart::WebSocketTestResultReturnType--><g id="elem_imu_tracker::data_structures::function_return_types.dart::WebSocketTestResultReturnType"><rect codeLine="3" fill="#F1F1F1" height="96.8906" id="imu_tracker::data_structures::function_return_types.dart::WebSocketTestResultReturnType" rx="2.5" ry="2.5" style="stroke:#181818;stroke-width:0.5;" width="278" x="355" y="41"/><ellipse cx="370" cy="57" fill="#ADD1B2" rx="11" ry="11" style="stroke:#181818;stroke-width:1.0;"/><path d="M372.3438,52.6719 C371.4063,52.2344 370.8125,52.0938 369.9375,52.0938 C367.3125,52.0938 365.3125,54.1719 365.3125,56.8906 L365.3125,58.0156 C365.3125,60.5938 367.4219,62.4844 370.3125,62.4844 C371.5313,62.4844 372.6875,62.1875 373.4375,61.6406 C374.0156,61.2344 374.3438,60.7813 374.3438,60.3906 C374.3438,59.9375 373.9531,59.5469 373.4844,59.5469 C373.2656,59.5469 373.0625,59.625 372.875,59.8125 C372.4219,60.2969 372.4219,60.2969 372.2344,60.3906 C371.8125,60.6563 371.125,60.7813 370.3594,60.7813 C368.3125,60.7813 367.0156,59.6875 367.0156,57.9844 L367.0156,56.8906 C367.0156,55.1094 368.2656,53.7969 370,53.7969 C370.5781,53.7969 371.1875,53.9531 371.6563,54.2031 C372.1406,54.4844 372.3125,54.7031 372.4063,55.1094 C372.4688,55.5156 372.5,55.6406 372.6406,55.7656 C372.7813,55.9063 373.0156,56.0156 373.2344,56.0156 C373.5,56.0156 373.7656,55.875 373.9375,55.6563 C374.0469,55.5 374.0781,55.3125 374.0781,54.8906 L374.0781,53.4688 C374.0781,53.0313 374.0625,52.9063 373.9688,52.75 C373.8125,52.4844 373.5313,52.3438 373.2344,52.3438 C372.9375,52.3438 372.7344,52.4375 372.5156,52.75 L372.3438,52.6719 Z " fill="#000000"/><text fill="#000000" font-family="sans-serif" font-size="14" lengthAdjust="spacing" textLength="246" x="384" y="61.8467">WebSocketTestResultReturnType</text><line style="stroke:#181818;stroke-width:0.5;" x1="356" x2="632" y1="73" y2="73"/><ellipse cx="366" cy="84" fill="none" rx="3" ry="3" style="stroke:#038048;stroke-width:1.0;"/><text fill="#000000" font-family="sans-serif" font-size="14" lengthAdjust="spacing" textLength="210" x="375" y="89.9951">bool isWebSocketConnected</text><ellipse cx="366" cy="100.2969" fill="none" rx="3" ry="3" style="stroke:#038048;stroke-width:1.0;"/><text fill="#000000" font-family="sans-serif" font-size="14" lengthAdjust="spacing" textLength="133" x="375" y="106.292">bool isApiKeyValid</text><ellipse cx="366" cy="116.5938" fill="none" rx="3" ry="3" style="stroke:#038048;stroke-width:1.0;"/><text fill="#000000" font-family="sans-serif" font-size="14" lengthAdjust="spacing" textLength="232" x="375" y="122.5889">int webSocketResponseNumber</text><line style="stroke:#181818;stroke-width:0.5;" x1="356" x2="632" y1="129.8906" y2="129.8906"/></g><!--MD5=[8f13a5239178dd33e1e4643a8b6d6da0]
class imu_tracker::data_structures::function_return_types.dart::MessageDecoderReturnType--><g id="elem_imu_tracker::data_structures::function_return_types.dart::MessageDecoderReturnType"><rect codeLine="9" fill="#F1F1F1" height="96.8906" id="imu_tracker::data_structures::function_return_types.dart::MessageDecoderReturnType" rx="2.5" ry="2.5" style="stroke:#181818;stroke-width:0.5;" width="298" x="22" y="41"/><ellipse cx="63.55" cy="57" fill="#ADD1B2" rx="11" ry="11" style="stroke:#181818;stroke-width:1.0;"/><path d="M65.8938,52.6719 C64.9563,52.2344 64.3625,52.0938 63.4875,52.0938 C60.8625,52.0938 58.8625,54.1719 58.8625,56.8906 L58.8625,58.0156 C58.8625,60.5938 60.9719,62.4844 63.8625,62.4844 C65.0813,62.4844 66.2375,62.1875 66.9875,61.6406 C67.5656,61.2344 67.8938,60.7813 67.8938,60.3906 C67.8938,59.9375 67.5031,59.5469 67.0344,59.5469 C66.8156,59.5469 66.6125,59.625 66.425,59.8125 C65.9719,60.2969 65.9719,60.2969 65.7844,60.3906 C65.3625,60.6563 64.675,60.7813 63.9094,60.7813 C61.8625,60.7813 60.5656,59.6875 60.5656,57.9844 L60.5656,56.8906 C60.5656,55.1094 61.8156,53.7969 63.55,53.7969 C64.1281,53.7969 64.7375,53.9531 65.2063,54.2031 C65.6906,54.4844 65.8625,54.7031 65.9563,55.1094 C66.0188,55.5156 66.05,55.6406 66.1906,55.7656 C66.3313,55.9063 66.5656,56.0156 66.7844,56.0156 C67.05,56.0156 67.3156,55.875 67.4875,55.6563 C67.5969,55.5 67.6281,55.3125 67.6281,54.8906 L67.6281,53.4688 C67.6281,53.0313 67.6125,52.9063 67.5188,52.75 C67.3625,52.4844 67.0813,52.3438 66.7844,52.3438 C66.4875,52.3438 66.2844,52.4375 66.0656,52.75 L65.8938,52.6719 Z " fill="#000000"/><text fill="#000000" font-family="sans-serif" font-size="14" lengthAdjust="spacing" textLength="207" x="83.45" y="61.8467">MessageDecoderReturnType</text><line style="stroke:#181818;stroke-width:0.5;" x1="23" x2="319" y1="73" y2="73"/><ellipse cx="33" cy="84" fill="none" rx="3" ry="3" style="stroke:#038048;stroke-width:1.0;"/><text fill="#000000" font-family="sans-serif" font-size="14" lengthAdjust="spacing" textLength="212" x="42" y="89.9951">bool hasMessageRightFormat</text><ellipse cx="33" cy="100.2969" fill="none" rx="3" ry="3" style="stroke:#038048;stroke-width:1.0;"/><text fill="#000000" font-family="sans-serif" font-size="14" lengthAdjust="spacing" textLength="235" x="42" y="106.292">String webSocketResponseType</text><ellipse cx="33" cy="116.5938" fill="none" rx="3" ry="3" style="stroke:#038048;stroke-width:1.0;"/><text fill="#000000" font-family="sans-serif" font-size="14" lengthAdjust="spacing" textLength="272" x="42" y="122.5889">dynamic webSocketResponseNumber</text><line style="stroke:#181818;stroke-width:0.5;" x1="23" x2="319" y1="129.8906" y2="129.8906"/></g><!--MD5=[b7526ed725df1ede3c9edcc6e33acf6f]
class imu_tracker::data_structures::response_numbers.dart::ResponseType--><g id="elem_imu_tracker::data_structures::response_numbers.dart::ResponseType"><rect codeLine="15" fill="#F1F1F1" height="80.5938" id="imu_tracker::data_structures::response_numbers.dart::ResponseType" rx="2.5" ry="2.5" style="stroke:#181818;stroke-width:0.5;" width="184" x="809" y="49"/><ellipse cx="844.7" cy="65" fill="#ADD1B2" rx="11" ry="11" style="stroke:#181818;stroke-width:1.0;"/><path d="M847.0438,60.6719 C846.1063,60.2344 845.5125,60.0938 844.6375,60.0938 C842.0125,60.0938 840.0125,62.1719 840.0125,64.8906 L840.0125,66.0156 C840.0125,68.5938 842.1219,70.4844 845.0125,70.4844 C846.2313,70.4844 847.3875,70.1875 848.1375,69.6406 C848.7156,69.2344 849.0438,68.7813 849.0438,68.3906 C849.0438,67.9375 848.6531,67.5469 848.1844,67.5469 C847.9656,67.5469 847.7625,67.625 847.575,67.8125 C847.1219,68.2969 847.1219,68.2969 846.9344,68.3906 C846.5125,68.6563 845.825,68.7813 845.0594,68.7813 C843.0125,68.7813 841.7156,67.6875 841.7156,65.9844 L841.7156,64.8906 C841.7156,63.1094 842.9656,61.7969 844.7,61.7969 C845.2781,61.7969 845.8875,61.9531 846.3563,62.2031 C846.8406,62.4844 847.0125,62.7031 847.1063,63.1094 C847.1688,63.5156 847.2,63.6406 847.3406,63.7656 C847.4813,63.9063 847.7156,64.0156 847.9344,64.0156 C848.2,64.0156 848.4656,63.875 848.6375,63.6563 C848.7469,63.5 848.7781,63.3125 848.7781,62.8906 L848.7781,61.4688 C848.7781,61.0313 848.7625,60.9063 848.6688,60.75 C848.5125,60.4844 848.2313,60.3438 847.9344,60.3438 C847.6375,60.3438 847.4344,60.4375 847.2156,60.75 L847.0438,60.6719 Z " fill="#000000"/><text fill="#000000" font-family="sans-serif" font-size="14" lengthAdjust="spacing" textLength="106" x="863.3" y="69.8467">ResponseType</text><line style="stroke:#181818;stroke-width:0.5;" x1="810" x2="992" y1="81" y2="81"/><ellipse cx="820" cy="92" fill="none" rx="3" ry="3" style="stroke:#038048;stroke-width:1.0;"/><text fill="#000000" font-family="sans-serif" font-size="14" lengthAdjust="spacing" textLength="147" x="829" y="97.9951">int responseNumber</text><ellipse cx="820" cy="108.2969" fill="none" rx="3" ry="3" style="stroke:#038048;stroke-width:1.0;"/><text fill="#000000" font-family="sans-serif" font-size="14" lengthAdjust="spacing" textLength="158" x="829" y="114.292">String responseString</text><line style="stroke:#181818;stroke-width:0.5;" x1="810" x2="992" y1="121.5938" y2="121.5938"/></g><!--MD5=[ee2ee1453b01b2ef53e93617132856e3]
class imu_tracker::main.dart::MyApp--><g id="elem_imu_tracker::main.dart::MyApp"><rect codeLine="20" fill="#F1F1F1" height="64.2969" id="imu_tracker::main.dart::MyApp" rx="2.5" ry="2.5" style="stroke:#181818;stroke-width:0.5;" width="127" x="1192.5" y="57.5"/><ellipse cx="1227.75" cy="73.5" fill="#ADD1B2" rx="11" ry="11" style="stroke:#181818;stroke-width:1.0;"/><path d="M1230.0938,69.1719 C1229.1563,68.7344 1228.5625,68.5938 1227.6875,68.5938 C1225.0625,68.5938 1223.0625,70.6719 1223.0625,73.3906 L1223.0625,74.5156 C1223.0625,77.0938 1225.1719,78.9844 1228.0625,78.9844 C1229.2813,78.9844 1230.4375,78.6875 1231.1875,78.1406 C1231.7656,77.7344 1232.0938,77.2813 1232.0938,76.8906 C1232.0938,76.4375 1231.7031,76.0469 1231.2344,76.0469 C1231.0156,76.0469 1230.8125,76.125 1230.625,76.3125 C1230.1719,76.7969 1230.1719,76.7969 1229.9844,76.8906 C1229.5625,77.1563 1228.875,77.2813 1228.1094,77.2813 C1226.0625,77.2813 1224.7656,76.1875 1224.7656,74.4844 L1224.7656,73.3906 C1224.7656,71.6094 1226.0156,70.2969 1227.75,70.2969 C1228.3281,70.2969 1228.9375,70.4531 1229.4063,70.7031 C1229.8906,70.9844 1230.0625,71.2031 1230.1563,71.6094 C1230.2188,72.0156 1230.25,72.1406 1230.3906,72.2656 C1230.5313,72.4063 1230.7656,72.5156 1230.9844,72.5156 C1231.25,72.5156 1231.5156,72.375 1231.6875,72.1563 C1231.7969,72 1231.8281,71.8125 1231.8281,71.3906 L1231.8281,69.9688 C1231.8281,69.5313 1231.8125,69.4063 1231.7188,69.25 C1231.5625,68.9844 1231.2813,68.8438 1230.9844,68.8438 C1230.6875,68.8438 1230.4844,68.9375 1230.2656,69.25 L1230.0938,69.1719 Z " fill="#000000"/><text fill="#000000" font-family="sans-serif" font-size="14" lengthAdjust="spacing" textLength="50" x="1246.25" y="78.3467">MyApp</text><line style="stroke:#181818;stroke-width:0.5;" x1="1193.5" x2="1318.5" y1="89.5" y2="89.5"/><line style="stroke:#181818;stroke-width:0.5;" x1="1193.5" x2="1318.5" y1="97.5" y2="97.5"/><ellipse cx="1203.5" cy="108.5" fill="#84BE84" rx="3" ry="3" style="stroke:#038048;stroke-width:1.0;"/><text fill="#000000" font-family="sans-serif" font-size="14" lengthAdjust="spacing" textLength="101" x="1212.5" y="114.4951">Widget build()</text></g><!--MD5=[4614e1bafa0a1c97e57d9975e9f0198f]
@startuml
set namespaceSeparator ::

class "imu_tracker::data_structures::function_return_types.dart::WebSocketTestResultReturnType" {
  +bool isWebSocketConnected
  +bool isApiKeyValid
  +int webSocketResponseNumber
}

class "imu_tracker::data_structures::function_return_types.dart::MessageDecoderReturnType" {
  +bool hasMessageRightFormat
  +String webSocketResponseType
  +dynamic webSocketResponseNumber
}

class "imu_tracker::data_structures::response_numbers.dart::ResponseType" {
  +int responseNumber
  +String responseString
}

class "imu_tracker::main.dart::MyApp" {
  +Widget build()
}
@enduml

PlantUML version 1.2022.4beta2(Unknown compile time)
(GPL source distribution)
Java Runtime: Java(TM) SE Runtime Environment
JVM: Java HotSpot(TM) 64-Bit Server VM
Default Encoding: UTF-8
Language: en
Country: US
--></g></svg>