<?xml version="1.0" encoding="UTF-8"?><svg xmlns="http://www.w3.org/2000/svg" xmlns:xlink="http://www.w3.org/1999/xlink" fill-opacity="1" color-rendering="auto" color-interpolation="auto" text-rendering="auto" stroke="black" stroke-linecap="square" width="487" stroke-miterlimit="10" shape-rendering="auto" stroke-opacity="1" fill="black" stroke-dasharray="none" font-weight="normal" stroke-width="1" height="561" font-family="'Dialog'" font-style="normal" stroke-linejoin="miter" font-size="12px" stroke-dashoffset="0" image-rendering="auto">
  <!--Generated by ySVG 2.5-->
  <defs id="genericDefs"/>
  <g>
    <defs id="defs1">
      <clipPath clipPathUnits="userSpaceOnUse" id="clipPath1">
        <path d="M0 0 L487 0 L487 561 L0 561 L0 0 Z"/>
      </clipPath>
      <clipPath clipPathUnits="userSpaceOnUse" id="clipPath2">
        <path d="M585 298 L1072 298 L1072 859 L585 859 L585 298 Z"/>
      </clipPath>
    </defs>
    <g fill="white" text-rendering="geometricPrecision" shape-rendering="geometricPrecision" transform="translate(-585,-298)" stroke="white">
      <rect x="585" width="487" height="561" y="298" clip-path="url(#clipPath2)" stroke="none"/>
    </g>
    <g text-rendering="geometricPrecision" stroke-miterlimit="1.45" shape-rendering="geometricPrecision" transform="matrix(1,0,0,1,-585,-298)" stroke-linecap="butt">
      <rect fill="none" x="835.1068" width="221.0017" height="238.7306" y="604.8696" clip-path="url(#clipPath2)"/>
      <text x="908.2561" font-size="14px" y="624.9448" clip-path="url(#clipPath2)" font-family="sans-serif" stroke="none" xml:space="preserve">settings to s</text>
      <line y2="628.021" fill="none" x1="908.2561" clip-path="url(#clipPath2)" x2="982.9592" y1="628.021"/>
      <rect fill="none" x="606.5347" width="190.3997" height="157.2925" y="475.9448" clip-path="url(#clipPath2)"/>
      <text x="637.1554" font-size="14px" y="496.02" clip-path="url(#clipPath2)" font-family="sans-serif" stroke="none" xml:space="preserve">measurement to wss</text>
      <line y2="499.0962" fill="none" x1="637.1554" clip-path="url(#clipPath2)" x2="766.3136" y1="499.0962"/>
      <rect fill="none" x="866.8008" width="167.5449" height="102.6593" y="323.14" clip-path="url(#clipPath2)"/>
      <text x="931.501" font-size="14px" y="343.2152" clip-path="url(#clipPath2)" font-family="sans-serif" stroke="none" xml:space="preserve">logout</text>
      <line y2="346.2914" fill="none" x1="931.501" clip-path="url(#clipPath2)" x2="969.6455" y1="346.2914"/>
      <rect fill="none" x="600.6619" width="158.369" height="121.2182" y="313.5291" clip-path="url(#clipPath2)"/>
      <text x="665.0568" font-size="14px" y="333.6043" clip-path="url(#clipPath2)" font-family="sans-serif" stroke="none" xml:space="preserve">login</text>
      <line y2="336.6805" fill="none" x1="665.0568" clip-path="url(#clipPath2)" x2="694.6359" y1="336.6805"/>
    </g>
    <g fill="rgb(244,244,244)" text-rendering="geometricPrecision" shape-rendering="geometricPrecision" transform="matrix(1,0,0,1,-585,-298)" stroke="rgb(244,244,244)">
      <rect x="618.2803" width="83.8908" height="20.4" y="364.2697" clip-path="url(#clipPath2)" stroke="none"/>
    </g>
    <g text-rendering="geometricPrecision" stroke-miterlimit="1.45" shape-rendering="geometricPrecision" transform="matrix(1,0,0,1,-585,-298)" stroke-linecap="butt">
      <rect fill="none" x="618.2803" width="83.8908" height="20.4" y="364.2697" clip-path="url(#clipPath2)"/>
      <text x="624.2803" y="379.1835" clip-path="url(#clipPath2)" font-family="sans-serif" stroke="none" font-weight="bold" xml:space="preserve">t: i</text>
    </g>
    <g fill="rgb(255,255,244)" text-rendering="geometricPrecision" shape-rendering="geometricPrecision" transform="matrix(1,0,0,1,-585,-298)" stroke="rgb(255,255,244)">
      <rect x="618.2803" width="83.8908" height="20.4" y="384.6697" clip-path="url(#clipPath2)" stroke="none"/>
    </g>
    <g text-rendering="geometricPrecision" stroke-miterlimit="1.45" shape-rendering="geometricPrecision" transform="matrix(1,0,0,1,-585,-298)" stroke-linecap="butt">
      <rect fill="none" x="618.2803" width="83.8908" height="20.4" y="384.6697" clip-path="url(#clipPath2)"/>
      <text x="624.2803" xml:space="preserve" y="399.5835" clip-path="url(#clipPath2)" font-family="sans-serif" stroke="none">a: apikey</text>
    </g>
    <g fill="rgb(244,244,244)" text-rendering="geometricPrecision" shape-rendering="geometricPrecision" transform="matrix(1,0,0,1,-585,-298)" stroke="rgb(244,244,244)">
      <rect x="852.7252" width="144.6573" height="20.4" y="655.6102" clip-path="url(#clipPath2)" stroke="none"/>
    </g>
    <g text-rendering="geometricPrecision" stroke-miterlimit="1.45" shape-rendering="geometricPrecision" transform="matrix(1,0,0,1,-585,-298)" stroke-linecap="butt">
      <rect fill="none" x="852.7252" width="144.6573" height="20.4" y="655.6102" clip-path="url(#clipPath2)"/>
      <text x="858.7252" y="670.524" clip-path="url(#clipPath2)" font-family="sans-serif" stroke="none" font-weight="bold" xml:space="preserve">t: s</text>
    </g>
    <g fill="rgb(244,244,244)" text-rendering="geometricPrecision" shape-rendering="geometricPrecision" transform="matrix(1,0,0,1,-585,-298)" stroke="rgb(244,244,244)">
      <rect x="624.1531" width="115.2989" height="20.4" y="526.6854" clip-path="url(#clipPath2)" stroke="none"/>
    </g>
    <g text-rendering="geometricPrecision" stroke-miterlimit="1.45" shape-rendering="geometricPrecision" transform="matrix(1,0,0,1,-585,-298)" stroke-linecap="butt">
      <rect fill="none" x="624.1531" width="115.2989" height="20.4" y="526.6854" clip-path="url(#clipPath2)"/>
      <text x="630.1531" y="541.5992" clip-path="url(#clipPath2)" font-family="sans-serif" stroke="none" font-weight="bold" xml:space="preserve">t: m</text>
    </g>
    <g fill="rgb(255,255,244)" text-rendering="geometricPrecision" shape-rendering="geometricPrecision" transform="matrix(1,0,0,1,-585,-298)" stroke="rgb(255,255,244)">
      <rect x="624.1531" width="115.2989" height="20.4" y="547.0854" clip-path="url(#clipPath2)" stroke="none"/>
    </g>
    <g text-rendering="geometricPrecision" stroke-miterlimit="1.45" shape-rendering="geometricPrecision" transform="matrix(1,0,0,1,-585,-298)" stroke-linecap="butt">
      <rect fill="none" x="624.1531" width="115.2989" height="20.4" y="547.0854" clip-path="url(#clipPath2)"/>
      <text x="630.1531" xml:space="preserve" y="561.9993" clip-path="url(#clipPath2)" font-family="sans-serif" stroke="none">a: acceleration</text>
    </g>
    <g fill="rgb(255,255,244)" text-rendering="geometricPrecision" shape-rendering="geometricPrecision" transform="matrix(1,0,0,1,-585,-298)" stroke="rgb(255,255,244)">
      <rect x="624.1531" width="115.2989" height="20.4" y="567.4854" clip-path="url(#clipPath2)" stroke="none"/>
    </g>
    <g text-rendering="geometricPrecision" stroke-miterlimit="1.45" shape-rendering="geometricPrecision" transform="matrix(1,0,0,1,-585,-298)" stroke-linecap="butt">
      <rect fill="none" x="624.1531" width="115.2989" height="20.4" y="567.4854" clip-path="url(#clipPath2)"/>
      <text x="630.1531" xml:space="preserve" y="582.3992" clip-path="url(#clipPath2)" font-family="sans-serif" stroke="none">r: rotation</text>
    </g>
    <g fill="rgb(255,255,244)" text-rendering="geometricPrecision" shape-rendering="geometricPrecision" transform="matrix(1,0,0,1,-585,-298)" stroke="rgb(255,255,244)">
      <rect x="624.1531" width="115.2989" height="20.4" y="587.8854" clip-path="url(#clipPath2)" stroke="none"/>
    </g>
    <g text-rendering="geometricPrecision" stroke-miterlimit="1.45" shape-rendering="geometricPrecision" transform="matrix(1,0,0,1,-585,-298)" stroke-linecap="butt">
      <rect fill="none" x="624.1531" width="115.2989" height="20.4" y="587.8854" clip-path="url(#clipPath2)"/>
      <text x="630.1531" xml:space="preserve" y="602.7993" clip-path="url(#clipPath2)" font-family="sans-serif" stroke="none">tp: temperature</text>
    </g>
    <g fill="white" text-rendering="geometricPrecision" shape-rendering="geometricPrecision" transform="matrix(1,0,0,1,-585,-298)" stroke="white">
      <rect x="606.5347" width="147.2787" height="20.4" y="343.8697" clip-path="url(#clipPath2)" stroke="none"/>
    </g>
    <g text-rendering="geometricPrecision" stroke-miterlimit="1.45" shape-rendering="geometricPrecision" transform="matrix(1,0,0,1,-585,-298)" stroke-linecap="butt">
      <rect fill="none" x="606.5347" width="147.2787" height="20.4" y="343.8697" clip-path="url(#clipPath2)"/>
      <text x="612.5347" xml:space="preserve" y="358.7835" clip-path="url(#clipPath2)" font-family="sans-serif" stroke="none">message object</text>
    </g>
    <g fill="white" text-rendering="geometricPrecision" shape-rendering="geometricPrecision" transform="matrix(1,0,0,1,-585,-298)" stroke="white">
      <rect x="840.9796" width="208.0452" height="20.4" y="635.2102" clip-path="url(#clipPath2)" stroke="none"/>
    </g>
    <g text-rendering="geometricPrecision" stroke-miterlimit="1.45" shape-rendering="geometricPrecision" transform="matrix(1,0,0,1,-585,-298)" stroke-linecap="butt">
      <rect fill="none" x="840.9796" width="208.0452" height="20.4" y="635.2102" clip-path="url(#clipPath2)"/>
      <text x="846.9796" xml:space="preserve" y="650.124" clip-path="url(#clipPath2)" font-family="sans-serif" stroke="none">message object</text>
    </g>
    <g fill="white" text-rendering="geometricPrecision" shape-rendering="geometricPrecision" transform="matrix(1,0,0,1,-585,-298)" stroke="white">
      <rect x="612.4075" width="178.6868" height="20.4" y="506.2854" clip-path="url(#clipPath2)" stroke="none"/>
    </g>
    <g text-rendering="geometricPrecision" stroke-miterlimit="1.45" shape-rendering="geometricPrecision" transform="matrix(1,0,0,1,-585,-298)" stroke-linecap="butt">
      <rect fill="none" x="612.4075" width="178.6868" height="20.4" y="506.2854" clip-path="url(#clipPath2)"/>
      <text x="618.4075" xml:space="preserve" y="521.1992" clip-path="url(#clipPath2)" font-family="sans-serif" stroke="none">message object</text>
    </g>
    <g fill="white" text-rendering="geometricPrecision" shape-rendering="geometricPrecision" transform="matrix(1,0,0,1,-585,-298)" stroke="white">
      <rect x="612.4075" width="11.7456" height="100.5405" y="526.6854" clip-path="url(#clipPath2)" stroke="none"/>
    </g>
    <g text-rendering="geometricPrecision" stroke-miterlimit="1.45" shape-rendering="geometricPrecision" transform="matrix(1,0,0,1,-585,-298)" stroke-linecap="butt">
      <rect fill="none" x="612.4075" width="11.7456" height="100.5405" y="526.6854" clip-path="url(#clipPath2)"/>
    </g>
    <g fill="white" text-rendering="geometricPrecision" shape-rendering="geometricPrecision" transform="matrix(1,0,0,1,-585,-298)" stroke="white">
      <rect x="840.9796" width="11.7456" height="183.6" y="655.6102" clip-path="url(#clipPath2)" stroke="none"/>
    </g>
    <g text-rendering="geometricPrecision" stroke-miterlimit="1.45" shape-rendering="geometricPrecision" transform="matrix(1,0,0,1,-585,-298)" stroke-linecap="butt">
      <rect fill="none" x="840.9796" width="11.7456" height="183.6" y="655.6102" clip-path="url(#clipPath2)"/>
    </g>
    <g fill="white" text-rendering="geometricPrecision" shape-rendering="geometricPrecision" transform="matrix(1,0,0,1,-585,-298)" stroke="white">
      <rect x="606.5347" width="11.7456" height="61.2" y="364.2697" clip-path="url(#clipPath2)" stroke="none"/>
    </g>
    <g text-rendering="geometricPrecision" stroke-miterlimit="1.45" shape-rendering="geometricPrecision" transform="matrix(1,0,0,1,-585,-298)" stroke-linecap="butt">
      <rect fill="none" x="606.5347" width="11.7456" height="61.2" y="364.2697" clip-path="url(#clipPath2)"/>
    </g>
    <g fill="rgb(255,255,244)" text-rendering="geometricPrecision" shape-rendering="geometricPrecision" transform="matrix(1,0,0,1,-585,-298)" stroke="rgb(255,255,244)">
      <rect x="624.1531" width="115.2989" height="20.4" y="606.8259" clip-path="url(#clipPath2)" stroke="none"/>
    </g>
    <g text-rendering="geometricPrecision" stroke-miterlimit="1.45" shape-rendering="geometricPrecision" transform="matrix(1,0,0,1,-585,-298)" stroke-linecap="butt">
      <rect fill="none" x="624.1531" width="115.2989" height="20.4" y="606.8259" clip-path="url(#clipPath2)"/>
      <text x="630.1531" xml:space="preserve" y="621.7398" clip-path="url(#clipPath2)" font-family="sans-serif" stroke="none">b: battery</text>
    </g>
    <g fill="rgb(244,244,244)" text-rendering="geometricPrecision" shape-rendering="geometricPrecision" transform="matrix(1,0,0,1,-585,-298)" stroke="rgb(244,244,244)">
      <rect x="887.0538" width="88.9493" height="20.4" y="373.8806" clip-path="url(#clipPath2)" stroke="none"/>
    </g>
    <g text-rendering="geometricPrecision" stroke-miterlimit="1.45" shape-rendering="geometricPrecision" transform="matrix(1,0,0,1,-585,-298)" stroke-linecap="butt">
      <rect fill="none" x="887.0538" width="88.9493" height="20.4" y="373.8806" clip-path="url(#clipPath2)"/>
      <text x="893.0538" y="388.7944" clip-path="url(#clipPath2)" font-family="sans-serif" stroke="none" font-weight="bold" xml:space="preserve">t: o</text>
    </g>
    <g fill="rgb(255,255,244)" text-rendering="geometricPrecision" shape-rendering="geometricPrecision" transform="matrix(1,0,0,1,-585,-298)" stroke="rgb(255,255,244)">
      <rect x="887.0538" width="88.9493" height="20.4" y="394.2806" clip-path="url(#clipPath2)" stroke="none"/>
    </g>
    <g text-rendering="geometricPrecision" stroke-miterlimit="1.45" shape-rendering="geometricPrecision" transform="matrix(1,0,0,1,-585,-298)" stroke-linecap="butt">
      <rect fill="none" x="887.0538" width="88.9493" height="20.4" y="394.2806" clip-path="url(#clipPath2)"/>
      <text x="893.0538" xml:space="preserve" y="409.1945" clip-path="url(#clipPath2)" font-family="sans-serif" stroke="none">p: pin (sha256)</text>
    </g>
    <g fill="white" text-rendering="geometricPrecision" shape-rendering="geometricPrecision" transform="matrix(1,0,0,1,-585,-298)" stroke="white">
      <rect x="875.3082" width="150.5301" height="20.4" y="353.4806" clip-path="url(#clipPath2)" stroke="none"/>
    </g>
    <g text-rendering="geometricPrecision" stroke-miterlimit="1.45" shape-rendering="geometricPrecision" transform="matrix(1,0,0,1,-585,-298)" stroke-linecap="butt">
      <rect fill="none" x="875.3082" width="150.5301" height="20.4" y="353.4806" clip-path="url(#clipPath2)"/>
      <text x="881.3082" xml:space="preserve" y="368.3944" clip-path="url(#clipPath2)" font-family="sans-serif" stroke="none">message object</text>
    </g>
    <g fill="white" text-rendering="geometricPrecision" shape-rendering="geometricPrecision" transform="matrix(1,0,0,1,-585,-298)" stroke="white">
      <rect x="875.3082" width="11.7456" height="40.8" y="373.8806" clip-path="url(#clipPath2)" stroke="none"/>
    </g>
    <g text-rendering="geometricPrecision" stroke-miterlimit="1.45" shape-rendering="geometricPrecision" transform="matrix(1,0,0,1,-585,-298)" stroke-linecap="butt">
      <rect fill="none" x="875.3082" width="11.7456" height="40.8" y="373.8806" clip-path="url(#clipPath2)"/>
    </g>
    <g fill="white" text-rendering="geometricPrecision" shape-rendering="geometricPrecision" transform="matrix(1,0,0,1,-585,-298)" stroke="white">
      <rect x="702.171" width="51.6424" height="20.4" y="364.2697" clip-path="url(#clipPath2)" stroke="none"/>
    </g>
    <g text-rendering="geometricPrecision" stroke-miterlimit="1.45" shape-rendering="geometricPrecision" transform="matrix(1,0,0,1,-585,-298)" stroke-linecap="butt">
      <rect fill="none" x="702.171" width="51.6424" height="20.4" y="364.2697" clip-path="url(#clipPath2)"/>
      <text x="708.171" xml:space="preserve" y="379.1835" clip-path="url(#clipPath2)" font-family="sans-serif" stroke="none">char(1)</text>
    </g>
    <g fill="white" text-rendering="geometricPrecision" shape-rendering="geometricPrecision" transform="matrix(1,0,0,1,-585,-298)" stroke="white">
      <rect x="702.171" width="51.6424" height="20.4" y="384.6697" clip-path="url(#clipPath2)" stroke="none"/>
    </g>
    <g text-rendering="geometricPrecision" stroke-miterlimit="1.45" shape-rendering="geometricPrecision" transform="matrix(1,0,0,1,-585,-298)" stroke-linecap="butt">
      <rect fill="none" x="702.171" width="51.6424" height="20.4" y="384.6697" clip-path="url(#clipPath2)"/>
      <text x="708.171" xml:space="preserve" y="399.5835" clip-path="url(#clipPath2)" font-family="sans-serif" stroke="none">char(64)</text>
    </g>
    <g fill="white" text-rendering="geometricPrecision" shape-rendering="geometricPrecision" transform="matrix(1,0,0,1,-585,-298)" stroke="white">
      <rect x="974.1959" width="51.6424" height="20.4" y="373.8806" clip-path="url(#clipPath2)" stroke="none"/>
    </g>
    <g text-rendering="geometricPrecision" stroke-miterlimit="1.45" shape-rendering="geometricPrecision" transform="matrix(1,0,0,1,-585,-298)" stroke-linecap="butt">
      <rect fill="none" x="974.1959" width="51.6424" height="20.4" y="373.8806" clip-path="url(#clipPath2)"/>
      <text x="980.1959" xml:space="preserve" y="388.7944" clip-path="url(#clipPath2)" font-family="sans-serif" stroke="none">char(1)</text>
    </g>
    <g fill="white" text-rendering="geometricPrecision" shape-rendering="geometricPrecision" transform="matrix(1,0,0,1,-585,-298)" stroke="white">
      <rect x="974.1959" width="51.6424" height="20.4" y="394.2806" clip-path="url(#clipPath2)" stroke="none"/>
    </g>
    <g text-rendering="geometricPrecision" stroke-miterlimit="1.45" shape-rendering="geometricPrecision" transform="matrix(1,0,0,1,-585,-298)" stroke-linecap="butt">
      <rect fill="none" x="974.1959" width="51.6424" height="20.4" y="394.2806" clip-path="url(#clipPath2)"/>
      <text x="980.1959" xml:space="preserve" y="409.1945" clip-path="url(#clipPath2)" font-family="sans-serif" stroke="none">char(64)</text>
    </g>
    <g fill="white" text-rendering="geometricPrecision" shape-rendering="geometricPrecision" transform="matrix(1,0,0,1,-585,-298)" stroke="white">
      <rect x="739.4519" width="51.6424" height="20.4" y="526.6854" clip-path="url(#clipPath2)" stroke="none"/>
    </g>
    <g text-rendering="geometricPrecision" stroke-miterlimit="1.45" shape-rendering="geometricPrecision" transform="matrix(1,0,0,1,-585,-298)" stroke-linecap="butt">
      <rect fill="none" x="739.4519" width="51.6424" height="20.4" y="526.6854" clip-path="url(#clipPath2)"/>
      <text x="745.452" xml:space="preserve" y="541.5992" clip-path="url(#clipPath2)" font-family="sans-serif" stroke="none">char(1)</text>
    </g>
    <g fill="white" text-rendering="geometricPrecision" shape-rendering="geometricPrecision" transform="matrix(1,0,0,1,-585,-298)" stroke="white">
      <rect x="739.4519" width="51.6424" height="20.4" y="547.0854" clip-path="url(#clipPath2)" stroke="none"/>
    </g>
    <g text-rendering="geometricPrecision" stroke-miterlimit="1.45" shape-rendering="geometricPrecision" transform="matrix(1,0,0,1,-585,-298)" stroke-linecap="butt">
      <rect fill="none" x="739.4519" width="51.6424" height="20.4" y="547.0854" clip-path="url(#clipPath2)"/>
      <text x="745.452" xml:space="preserve" y="561.9993" clip-path="url(#clipPath2)" font-family="sans-serif" stroke="none">float</text>
    </g>
    <g fill="white" text-rendering="geometricPrecision" shape-rendering="geometricPrecision" transform="matrix(1,0,0,1,-585,-298)" stroke="white">
      <rect x="739.4519" width="51.6424" height="20.4" y="567.4854" clip-path="url(#clipPath2)" stroke="none"/>
    </g>
    <g text-rendering="geometricPrecision" stroke-miterlimit="1.45" shape-rendering="geometricPrecision" transform="matrix(1,0,0,1,-585,-298)" stroke-linecap="butt">
      <rect fill="none" x="739.4519" width="51.6424" height="20.4" y="567.4854" clip-path="url(#clipPath2)"/>
      <text x="745.452" xml:space="preserve" y="582.3992" clip-path="url(#clipPath2)" font-family="sans-serif" stroke="none">float</text>
    </g>
    <g fill="white" text-rendering="geometricPrecision" shape-rendering="geometricPrecision" transform="matrix(1,0,0,1,-585,-298)" stroke="white">
      <rect x="739.4519" width="51.6424" height="20.4" y="587.8854" clip-path="url(#clipPath2)" stroke="none"/>
    </g>
    <g text-rendering="geometricPrecision" stroke-miterlimit="1.45" shape-rendering="geometricPrecision" transform="matrix(1,0,0,1,-585,-298)" stroke-linecap="butt">
      <rect fill="none" x="739.4519" width="51.6424" height="20.4" y="587.8854" clip-path="url(#clipPath2)"/>
      <text x="745.452" xml:space="preserve" y="602.7993" clip-path="url(#clipPath2)" font-family="sans-serif" stroke="none">float</text>
    </g>
    <g fill="white" text-rendering="geometricPrecision" shape-rendering="geometricPrecision" transform="matrix(1,0,0,1,-585,-298)" stroke="white">
      <rect x="739.4519" width="51.6424" height="20.4" y="606.8259" clip-path="url(#clipPath2)" stroke="none"/>
    </g>
    <g text-rendering="geometricPrecision" stroke-miterlimit="1.45" shape-rendering="geometricPrecision" transform="matrix(1,0,0,1,-585,-298)" stroke-linecap="butt">
      <rect fill="none" x="739.4519" width="51.6424" height="20.4" y="606.8259" clip-path="url(#clipPath2)"/>
      <text x="745.452" xml:space="preserve" y="621.7398" clip-path="url(#clipPath2)" font-family="sans-serif" stroke="none">byte</text>
    </g>
    <g fill="white" text-rendering="geometricPrecision" shape-rendering="geometricPrecision" transform="matrix(1,0,0,1,-585,-298)" stroke="white">
      <rect x="997.3825" width="51.6424" height="20.4" y="655.6102" clip-path="url(#clipPath2)" stroke="none"/>
    </g>
    <g text-rendering="geometricPrecision" stroke-miterlimit="1.45" shape-rendering="geometricPrecision" transform="matrix(1,0,0,1,-585,-298)" stroke-linecap="butt">
      <rect fill="none" x="997.3825" width="51.6424" height="20.4" y="655.6102" clip-path="url(#clipPath2)"/>
      <text x="1003.3825" xml:space="preserve" y="670.524" clip-path="url(#clipPath2)" font-family="sans-serif" stroke="none">char(1)</text>
    </g>
    <g fill="rgb(255,255,244)" text-rendering="geometricPrecision" shape-rendering="geometricPrecision" transform="matrix(1,0,0,1,-585,-298)" stroke="rgb(255,255,244)">
      <rect x="852.7252" width="144.6573" height="20.4" y="676.0102" clip-path="url(#clipPath2)" stroke="none"/>
    </g>
    <g text-rendering="geometricPrecision" stroke-miterlimit="1.45" shape-rendering="geometricPrecision" transform="matrix(1,0,0,1,-585,-298)" stroke-linecap="butt">
      <rect fill="none" x="852.7252" width="144.6573" height="20.4" y="676.0102" clip-path="url(#clipPath2)"/>
      <text x="858.7252" xml:space="preserve" y="690.924" clip-path="url(#clipPath2)" font-family="sans-serif" stroke="none">it: idle timeout</text>
    </g>
    <g fill="rgb(255,255,244)" text-rendering="geometricPrecision" shape-rendering="geometricPrecision" transform="matrix(1,0,0,1,-585,-298)" stroke="rgb(255,255,244)">
      <rect x="852.7252" width="144.6573" height="20.4" y="696.4102" clip-path="url(#clipPath2)" stroke="none"/>
    </g>
    <g text-rendering="geometricPrecision" stroke-miterlimit="1.45" shape-rendering="geometricPrecision" transform="matrix(1,0,0,1,-585,-298)" stroke-linecap="butt">
      <rect fill="none" x="852.7252" width="144.6573" height="20.4" y="696.4102" clip-path="url(#clipPath2)"/>
      <text x="858.7252" xml:space="preserve" y="711.324" clip-path="url(#clipPath2)" font-family="sans-serif" stroke="none">b: battery warning</text>
    </g>
    <g fill="white" text-rendering="geometricPrecision" shape-rendering="geometricPrecision" transform="matrix(1,0,0,1,-585,-298)" stroke="white">
      <rect x="997.3825" width="51.6424" height="20.4" y="676.0102" clip-path="url(#clipPath2)" stroke="none"/>
    </g>
    <g text-rendering="geometricPrecision" stroke-miterlimit="1.45" shape-rendering="geometricPrecision" transform="matrix(1,0,0,1,-585,-298)" stroke-linecap="butt">
      <rect fill="none" x="997.3825" width="51.6424" height="20.4" y="676.0102" clip-path="url(#clipPath2)"/>
      <text x="1003.3825" xml:space="preserve" y="690.924" clip-path="url(#clipPath2)" font-family="sans-serif" stroke="none">int</text>
    </g>
    <g fill="white" text-rendering="geometricPrecision" shape-rendering="geometricPrecision" transform="matrix(1,0,0,1,-585,-298)" stroke="white">
      <rect x="997.3825" width="51.6424" height="20.4" y="696.4102" clip-path="url(#clipPath2)" stroke="none"/>
    </g>
    <g text-rendering="geometricPrecision" stroke-miterlimit="1.45" shape-rendering="geometricPrecision" transform="matrix(1,0,0,1,-585,-298)" stroke-linecap="butt">
      <rect fill="none" x="997.3825" width="51.6424" height="20.4" y="696.4102" clip-path="url(#clipPath2)"/>
      <text x="1003.3825" xml:space="preserve" y="711.324" clip-path="url(#clipPath2)" font-family="sans-serif" stroke="none">byte</text>
    </g>
    <g fill="rgb(255,255,244)" text-rendering="geometricPrecision" shape-rendering="geometricPrecision" transform="matrix(1,0,0,1,-585,-298)" stroke="rgb(255,255,244)">
      <rect x="852.7252" width="144.6573" height="20.4" y="737.2102" clip-path="url(#clipPath2)" stroke="none"/>
    </g>
    <g text-rendering="geometricPrecision" stroke-miterlimit="1.45" shape-rendering="geometricPrecision" transform="matrix(1,0,0,1,-585,-298)" stroke-linecap="butt">
      <rect fill="none" x="852.7252" width="144.6573" height="20.4" y="737.2102" clip-path="url(#clipPath2)"/>
      <text x="858.7252" xml:space="preserve" y="752.124" clip-path="url(#clipPath2)" font-family="sans-serif" stroke="none">m: measurement interval</text>
    </g>
    <g fill="white" text-rendering="geometricPrecision" shape-rendering="geometricPrecision" transform="matrix(1,0,0,1,-585,-298)" stroke="white">
      <rect x="997.3825" width="51.6424" height="20.4" y="737.2102" clip-path="url(#clipPath2)" stroke="none"/>
    </g>
    <g text-rendering="geometricPrecision" stroke-miterlimit="1.45" shape-rendering="geometricPrecision" transform="matrix(1,0,0,1,-585,-298)" stroke-linecap="butt">
      <rect fill="none" x="997.3825" width="51.6424" height="20.4" y="737.2102" clip-path="url(#clipPath2)"/>
      <text x="1003.3825" xml:space="preserve" y="752.124" clip-path="url(#clipPath2)" font-family="sans-serif" stroke="none">int</text>
    </g>
    <g fill="rgb(255,255,244)" text-rendering="geometricPrecision" shape-rendering="geometricPrecision" transform="matrix(1,0,0,1,-585,-298)" stroke="rgb(255,255,244)">
      <rect x="852.7252" width="144.6573" height="20.4" y="757.6102" clip-path="url(#clipPath2)" stroke="none"/>
    </g>
    <g text-rendering="geometricPrecision" stroke-miterlimit="1.45" shape-rendering="geometricPrecision" transform="matrix(1,0,0,1,-585,-298)" stroke-linecap="butt">
      <rect fill="none" x="852.7252" width="144.6573" height="20.4" y="757.6102" clip-path="url(#clipPath2)"/>
      <text x="858.7252" xml:space="preserve" y="772.524" clip-path="url(#clipPath2)" font-family="sans-serif" stroke="none">ai: acceleration min</text>
    </g>
    <g fill="white" text-rendering="geometricPrecision" shape-rendering="geometricPrecision" transform="matrix(1,0,0,1,-585,-298)" stroke="white">
      <rect x="997.3825" width="51.6424" height="20.4" y="757.6102" clip-path="url(#clipPath2)" stroke="none"/>
    </g>
    <g text-rendering="geometricPrecision" stroke-miterlimit="1.45" shape-rendering="geometricPrecision" transform="matrix(1,0,0,1,-585,-298)" stroke-linecap="butt">
      <rect fill="none" x="997.3825" width="51.6424" height="20.4" y="757.6102" clip-path="url(#clipPath2)"/>
      <text x="1003.3825" xml:space="preserve" y="772.524" clip-path="url(#clipPath2)" font-family="sans-serif" stroke="none">float</text>
    </g>
    <g fill="rgb(255,255,244)" text-rendering="geometricPrecision" shape-rendering="geometricPrecision" transform="matrix(1,0,0,1,-585,-298)" stroke="rgb(255,255,244)">
      <rect x="852.7252" width="144.6573" height="20.4" y="778.0102" clip-path="url(#clipPath2)" stroke="none"/>
    </g>
    <g text-rendering="geometricPrecision" stroke-miterlimit="1.45" shape-rendering="geometricPrecision" transform="matrix(1,0,0,1,-585,-298)" stroke-linecap="butt">
      <rect fill="none" x="852.7252" width="144.6573" height="20.4" y="778.0102" clip-path="url(#clipPath2)"/>
      <text x="858.7252" xml:space="preserve" y="792.924" clip-path="url(#clipPath2)" font-family="sans-serif" stroke="none">a: acceleration max</text>
    </g>
    <g fill="white" text-rendering="geometricPrecision" shape-rendering="geometricPrecision" transform="matrix(1,0,0,1,-585,-298)" stroke="white">
      <rect x="997.3825" width="51.6424" height="20.4" y="778.0102" clip-path="url(#clipPath2)" stroke="none"/>
    </g>
    <g text-rendering="geometricPrecision" stroke-miterlimit="1.45" shape-rendering="geometricPrecision" transform="matrix(1,0,0,1,-585,-298)" stroke-linecap="butt">
      <rect fill="none" x="997.3825" width="51.6424" height="20.4" y="778.0102" clip-path="url(#clipPath2)"/>
      <text x="1003.3825" xml:space="preserve" y="792.924" clip-path="url(#clipPath2)" font-family="sans-serif" stroke="none">float</text>
    </g>
    <g fill="rgb(255,255,244)" text-rendering="geometricPrecision" shape-rendering="geometricPrecision" transform="matrix(1,0,0,1,-585,-298)" stroke="rgb(255,255,244)">
      <rect x="852.7252" width="144.6573" height="20.4" y="798.4102" clip-path="url(#clipPath2)" stroke="none"/>
    </g>
    <g text-rendering="geometricPrecision" stroke-miterlimit="1.45" shape-rendering="geometricPrecision" transform="matrix(1,0,0,1,-585,-298)" stroke-linecap="butt">
      <rect fill="none" x="852.7252" width="144.6573" height="20.4" y="798.4102" clip-path="url(#clipPath2)"/>
      <text x="858.7252" xml:space="preserve" y="813.324" clip-path="url(#clipPath2)" font-family="sans-serif" stroke="none">ri: rotation min</text>
    </g>
    <g fill="white" text-rendering="geometricPrecision" shape-rendering="geometricPrecision" transform="matrix(1,0,0,1,-585,-298)" stroke="white">
      <rect x="997.3825" width="51.6424" height="20.4" y="798.4102" clip-path="url(#clipPath2)" stroke="none"/>
    </g>
    <g text-rendering="geometricPrecision" stroke-miterlimit="1.45" shape-rendering="geometricPrecision" transform="matrix(1,0,0,1,-585,-298)" stroke-linecap="butt">
      <rect fill="none" x="997.3825" width="51.6424" height="20.4" y="798.4102" clip-path="url(#clipPath2)"/>
      <text x="1003.3825" xml:space="preserve" y="813.324" clip-path="url(#clipPath2)" font-family="sans-serif" stroke="none">float</text>
    </g>
    <g fill="rgb(255,255,244)" text-rendering="geometricPrecision" shape-rendering="geometricPrecision" transform="matrix(1,0,0,1,-585,-298)" stroke="rgb(255,255,244)">
      <rect x="852.7252" width="144.6573" height="20.4" y="818.8102" clip-path="url(#clipPath2)" stroke="none"/>
    </g>
    <g text-rendering="geometricPrecision" stroke-miterlimit="1.45" shape-rendering="geometricPrecision" transform="matrix(1,0,0,1,-585,-298)" stroke-linecap="butt">
      <rect fill="none" x="852.7252" width="144.6573" height="20.4" y="818.8102" clip-path="url(#clipPath2)"/>
      <text x="858.7252" xml:space="preserve" y="833.724" clip-path="url(#clipPath2)" font-family="sans-serif" stroke="none">r: rotation max</text>
    </g>
    <g fill="white" text-rendering="geometricPrecision" shape-rendering="geometricPrecision" transform="matrix(1,0,0,1,-585,-298)" stroke="white">
      <rect x="997.3825" width="51.6424" height="20.4" y="818.8102" clip-path="url(#clipPath2)" stroke="none"/>
    </g>
    <g text-rendering="geometricPrecision" stroke-miterlimit="1.45" shape-rendering="geometricPrecision" transform="matrix(1,0,0,1,-585,-298)" stroke-linecap="butt">
      <rect fill="none" x="997.3825" width="51.6424" height="20.4" y="818.8102" clip-path="url(#clipPath2)"/>
      <text x="1003.3825" xml:space="preserve" y="833.724" clip-path="url(#clipPath2)" font-family="sans-serif" stroke="none">float</text>
    </g>
    <g fill="rgb(255,255,244)" text-rendering="geometricPrecision" shape-rendering="geometricPrecision" transform="matrix(1,0,0,1,-585,-298)" stroke="rgb(255,255,244)">
      <rect x="852.7252" width="144.6573" height="20.4" y="716.8102" clip-path="url(#clipPath2)" stroke="none"/>
    </g>
    <g text-rendering="geometricPrecision" stroke-miterlimit="1.45" shape-rendering="geometricPrecision" transform="matrix(1,0,0,1,-585,-298)" stroke-linecap="butt">
      <rect fill="none" x="852.7252" width="144.6573" height="20.4" y="716.8102" clip-path="url(#clipPath2)"/>
      <text x="858.7252" xml:space="preserve" y="731.724" clip-path="url(#clipPath2)" font-family="sans-serif" stroke="none">c: connection timeout</text>
    </g>
    <g fill="white" text-rendering="geometricPrecision" shape-rendering="geometricPrecision" transform="matrix(1,0,0,1,-585,-298)" stroke="white">
      <rect x="997.3825" width="51.6424" height="20.4" y="716.8102" clip-path="url(#clipPath2)" stroke="none"/>
    </g>
    <g text-rendering="geometricPrecision" stroke-miterlimit="1.45" shape-rendering="geometricPrecision" transform="matrix(1,0,0,1,-585,-298)" stroke-linecap="butt">
      <rect fill="none" x="997.3825" width="51.6424" height="20.4" y="716.8102" clip-path="url(#clipPath2)"/>
      <text x="1003.3825" xml:space="preserve" y="731.724" clip-path="url(#clipPath2)" font-family="sans-serif" stroke="none">int</text>
      <rect fill="none" x="849.786" width="167.5449" height="102.6593" y="477.1532" clip-path="url(#clipPath2)"/>
      <text x="891.5345" font-size="14px" y="497.2284" clip-path="url(#clipPath2)" font-family="sans-serif" stroke="none" xml:space="preserve">response to s</text>
      <line y2="500.3046" fill="none" x1="891.5345" clip-path="url(#clipPath2)" x2="975.5824" y1="500.3046"/>
    </g>
    <g fill="white" text-rendering="geometricPrecision" shape-rendering="geometricPrecision" transform="matrix(1,0,0,1,-585,-298)" stroke="white">
      <rect x="857.3898" width="11.7456" height="40.8" y="527.8937" clip-path="url(#clipPath2)" stroke="none"/>
    </g>
    <g text-rendering="geometricPrecision" stroke-miterlimit="1.45" shape-rendering="geometricPrecision" transform="matrix(1,0,0,1,-585,-298)" stroke-linecap="butt">
      <rect fill="none" x="857.3898" width="11.7456" height="40.8" y="527.8937" clip-path="url(#clipPath2)"/>
    </g>
    <g fill="white" text-rendering="geometricPrecision" shape-rendering="geometricPrecision" transform="matrix(1,0,0,1,-585,-298)" stroke="white">
      <rect x="857.3898" width="152.3373" height="20.4" y="507.4937" clip-path="url(#clipPath2)" stroke="none"/>
    </g>
    <g text-rendering="geometricPrecision" stroke-miterlimit="1.45" shape-rendering="geometricPrecision" transform="matrix(1,0,0,1,-585,-298)" stroke-linecap="butt">
      <rect fill="none" x="857.3898" width="152.3373" height="20.4" y="507.4937" clip-path="url(#clipPath2)"/>
      <text x="863.3898" xml:space="preserve" y="522.4076" clip-path="url(#clipPath2)" font-family="sans-serif" stroke="none">message object</text>
    </g>
    <g fill="rgb(255,255,244)" text-rendering="geometricPrecision" shape-rendering="geometricPrecision" transform="matrix(1,0,0,1,-585,-298)" stroke="rgb(255,255,244)">
      <rect x="869.1354" width="88.9493" height="20.4" y="548.2937" clip-path="url(#clipPath2)" stroke="none"/>
    </g>
    <g text-rendering="geometricPrecision" stroke-miterlimit="1.45" shape-rendering="geometricPrecision" transform="matrix(1,0,0,1,-585,-298)" stroke-linecap="butt">
      <rect fill="none" x="869.1354" width="88.9493" height="20.4" y="548.2937" clip-path="url(#clipPath2)"/>
      <text x="875.1354" xml:space="preserve" y="563.2076" clip-path="url(#clipPath2)" font-family="sans-serif" stroke="none">i: response id </text>
    </g>
    <g fill="rgb(244,244,244)" text-rendering="geometricPrecision" shape-rendering="geometricPrecision" transform="matrix(1,0,0,1,-585,-298)" stroke="rgb(244,244,244)">
      <rect x="869.1354" width="88.9493" height="20.4" y="527.8937" clip-path="url(#clipPath2)" stroke="none"/>
    </g>
    <g text-rendering="geometricPrecision" stroke-miterlimit="1.45" shape-rendering="geometricPrecision" transform="matrix(1,0,0,1,-585,-298)" stroke-linecap="butt">
      <rect fill="none" x="869.1354" width="88.9493" height="20.4" y="527.8937" clip-path="url(#clipPath2)"/>
      <text x="875.1354" y="542.8076" clip-path="url(#clipPath2)" font-family="sans-serif" stroke="none" font-weight="bold" xml:space="preserve">t: r</text>
    </g>
    <g fill="white" text-rendering="geometricPrecision" shape-rendering="geometricPrecision" transform="matrix(1,0,0,1,-585,-298)" stroke="white">
      <rect x="958.0847" width="51.6424" height="20.4" y="527.8937" clip-path="url(#clipPath2)" stroke="none"/>
    </g>
    <g text-rendering="geometricPrecision" stroke-miterlimit="1.45" shape-rendering="geometricPrecision" transform="matrix(1,0,0,1,-585,-298)" stroke-linecap="butt">
      <rect fill="none" x="958.0847" width="51.6424" height="20.4" y="527.8937" clip-path="url(#clipPath2)"/>
      <text x="964.0847" xml:space="preserve" y="542.8076" clip-path="url(#clipPath2)" font-family="sans-serif" stroke="none">char(1)</text>
    </g>
    <g fill="white" text-rendering="geometricPrecision" shape-rendering="geometricPrecision" transform="matrix(1,0,0,1,-585,-298)" stroke="white">
      <rect x="958.0847" width="51.6424" height="20.4" y="548.2937" clip-path="url(#clipPath2)" stroke="none"/>
    </g>
    <g text-rendering="geometricPrecision" stroke-miterlimit="1.45" shape-rendering="geometricPrecision" transform="matrix(1,0,0,1,-585,-298)" stroke-linecap="butt">
      <rect fill="none" x="958.0847" width="51.6424" height="20.4" y="548.2937" clip-path="url(#clipPath2)"/>
      <text x="964.0847" xml:space="preserve" y="563.2076" clip-path="url(#clipPath2)" font-family="sans-serif" stroke="none">byte</text>
    </g>
    <g fill="rgb(255,255,244)" text-rendering="geometricPrecision" shape-rendering="geometricPrecision" transform="matrix(1,0,0,1,-585,-298)" stroke="rgb(255,255,244)">
      <rect x="618.2803" width="83.8908" height="20.4" y="405.0697" clip-path="url(#clipPath2)" stroke="none"/>
    </g>
    <g text-rendering="geometricPrecision" stroke-miterlimit="1.45" shape-rendering="geometricPrecision" transform="matrix(1,0,0,1,-585,-298)" stroke-linecap="butt">
      <rect fill="none" x="618.2803" width="83.8908" height="20.4" y="405.0697" clip-path="url(#clipPath2)"/>
      <text x="624.2803" xml:space="preserve" y="419.9835" clip-path="url(#clipPath2)" font-family="sans-serif" stroke="none">c: validate key</text>
    </g>
    <g fill="white" text-rendering="geometricPrecision" shape-rendering="geometricPrecision" transform="matrix(1,0,0,1,-585,-298)" stroke="white">
      <rect x="702.171" width="51.6424" height="20.4" y="405.0697" clip-path="url(#clipPath2)" stroke="none"/>
    </g>
    <g text-rendering="geometricPrecision" stroke-miterlimit="1.45" shape-rendering="geometricPrecision" transform="matrix(1,0,0,1,-585,-298)" stroke-linecap="butt">
      <rect fill="none" x="702.171" width="51.6424" height="20.4" y="405.0697" clip-path="url(#clipPath2)"/>
      <text x="708.171" xml:space="preserve" y="419.9835" clip-path="url(#clipPath2)" font-family="sans-serif" stroke="none">bool</text>
    </g>
  </g>
</svg>
