<?xml version="1.0" encoding="UTF-8"?><svg xmlns="http://www.w3.org/2000/svg" xmlns:xlink="http://www.w3.org/1999/xlink" fill-opacity="1" color-rendering="auto" color-interpolation="auto" text-rendering="auto" stroke="black" stroke-linecap="square" width="219" stroke-miterlimit="10" shape-rendering="auto" stroke-opacity="1" fill="black" stroke-dasharray="none" font-weight="normal" stroke-width="1" height="179" font-family="'Dialog'" font-style="normal" stroke-linejoin="miter" font-size="12px" stroke-dashoffset="0" image-rendering="auto">
  <!--Generated by ySVG 2.5-->
  <defs id="genericDefs"/>
  <g>
    <defs id="defs1">
      <clipPath clipPathUnits="userSpaceOnUse" id="clipPath1">
        <path d="M0 0 L219 0 L219 179 L0 179 L0 0 Z"/>
      </clipPath>
      <clipPath clipPathUnits="userSpaceOnUse" id="clipPath2">
        <path d="M1096 460 L1315 460 L1315 639 L1096 639 L1096 460 Z"/>
      </clipPath>
    </defs>
    <g fill="white" text-rendering="geometricPrecision" shape-rendering="geometricPrecision" transform="translate(-1096,-460)" stroke="white">
      <rect x="1096" width="219" height="179" y="460" clip-path="url(#clipPath2)" stroke="none"/>
    </g>
    <g text-rendering="geometricPrecision" stroke-miterlimit="1.45" stroke-width="2" shape-rendering="geometricPrecision" transform="matrix(1,0,0,1,-1096,-460)" stroke-linecap="butt">
      <rect fill="none" x="1111.2023" width="188.4029" height="147.7398" y="475.8797" clip-path="url(#clipPath2)"/>
      <text x="1170.3867" font-size="14px" y="495.9549" clip-path="url(#clipPath2)" font-family="sans-serif" stroke="none" stroke-width="1" xml:space="preserve">QR - Code</text>
      <line clip-path="url(#clipPath2)" fill="none" x1="1170.3867" x2="1240.4209" y1="499.0311" y2="499.0311" stroke-width="1"/>
      <text x="1170.3867" font-size="14px" y="513.1063" clip-path="url(#clipPath2)" font-family="sans-serif" stroke="none" stroke-width="1" xml:space="preserve">Information</text>
      <line clip-path="url(#clipPath2)" fill="none" x1="1170.3867" x2="1240.4209" y1="516.1824" y2="516.1824" stroke-width="1"/>
    </g>
    <g fill="rgb(255,255,244)" text-rendering="geometricPrecision" shape-rendering="geometricPrecision" transform="matrix(1,0,0,1,-1096,-460)" stroke="rgb(255,255,244)">
      <rect x="1128.8207" width="122.0474" height="20.4" y="542.9018" clip-path="url(#clipPath2)" stroke="none"/>
    </g>
    <g text-rendering="geometricPrecision" stroke-miterlimit="1.45" shape-rendering="geometricPrecision" transform="matrix(1,0,0,1,-1096,-460)" stroke-linecap="butt">
      <rect fill="none" x="1128.8207" width="122.0474" height="20.4" y="542.9018" clip-path="url(#clipPath2)"/>
      <text x="1134.8207" xml:space="preserve" y="557.8157" clip-path="url(#clipPath2)" font-family="sans-serif" stroke="none">host: IP-Address</text>
    </g>
    <g fill="white" text-rendering="geometricPrecision" shape-rendering="geometricPrecision" transform="matrix(1,0,0,1,-1096,-460)" stroke="white">
      <rect x="1117.1661" width="175.1953" height="20.4" y="522.5018" clip-path="url(#clipPath2)" stroke="none"/>
    </g>
    <g text-rendering="geometricPrecision" stroke-miterlimit="1.45" shape-rendering="geometricPrecision" transform="matrix(1,0,0,1,-1096,-460)" stroke-linecap="butt">
      <rect fill="none" x="1117.1661" width="175.1953" height="20.4" y="522.5018" clip-path="url(#clipPath2)"/>
      <text x="1123.1661" xml:space="preserve" y="537.4157" clip-path="url(#clipPath2)" font-family="sans-serif" stroke="none">SetUp information</text>
    </g>
    <g fill="white" text-rendering="geometricPrecision" shape-rendering="geometricPrecision" transform="matrix(1,0,0,1,-1096,-460)" stroke="white">
      <rect x="1117.0751" width="11.7456" height="61.2" y="542.9018" clip-path="url(#clipPath2)" stroke="none"/>
    </g>
    <g text-rendering="geometricPrecision" stroke-miterlimit="1.45" shape-rendering="geometricPrecision" transform="matrix(1,0,0,1,-1096,-460)" stroke-linecap="butt">
      <rect fill="none" x="1117.0751" width="11.7456" height="61.2" y="542.9018" clip-path="url(#clipPath2)"/>
    </g>
    <g fill="white" text-rendering="geometricPrecision" shape-rendering="geometricPrecision" transform="matrix(1,0,0,1,-1096,-460)" stroke="white">
      <rect x="1250.8681" width="41.4024" height="20.4" y="542.9018" clip-path="url(#clipPath2)" stroke="none"/>
    </g>
    <g text-rendering="geometricPrecision" stroke-miterlimit="1.45" shape-rendering="geometricPrecision" transform="matrix(1,0,0,1,-1096,-460)" stroke-linecap="butt">
      <rect fill="none" x="1250.8681" width="41.4024" height="20.4" y="542.9018" clip-path="url(#clipPath2)"/>
      <text x="1256.868" xml:space="preserve" y="557.8157" clip-path="url(#clipPath2)" font-family="sans-serif" stroke="none">string</text>
    </g>
    <g fill="white" text-rendering="geometricPrecision" shape-rendering="geometricPrecision" transform="matrix(1,0,0,1,-1096,-460)" stroke="white">
      <rect x="1250.8681" width="41.4024" height="20.4" y="563.3018" clip-path="url(#clipPath2)" stroke="none"/>
    </g>
    <g text-rendering="geometricPrecision" stroke-miterlimit="1.45" shape-rendering="geometricPrecision" transform="matrix(1,0,0,1,-1096,-460)" stroke-linecap="butt">
      <rect fill="none" x="1250.8681" width="41.4024" height="20.4" y="563.3018" clip-path="url(#clipPath2)"/>
      <text x="1256.868" xml:space="preserve" y="578.2157" clip-path="url(#clipPath2)" font-family="sans-serif" stroke="none">string</text>
    </g>
    <g fill="rgb(255,255,244)" text-rendering="geometricPrecision" shape-rendering="geometricPrecision" transform="matrix(1,0,0,1,-1096,-460)" stroke="rgb(255,255,244)">
      <rect x="1128.8207" width="122.0474" height="20.4" y="583.7018" clip-path="url(#clipPath2)" stroke="none"/>
    </g>
    <g text-rendering="geometricPrecision" stroke-miterlimit="1.45" shape-rendering="geometricPrecision" transform="matrix(1,0,0,1,-1096,-460)" stroke-linecap="butt">
      <rect fill="none" x="1128.8207" width="122.0474" height="20.4" y="583.7018" clip-path="url(#clipPath2)"/>
      <text x="1134.8207" xml:space="preserve" y="598.6157" clip-path="url(#clipPath2)" font-family="sans-serif" stroke="none">apiKey: apiKey</text>
    </g>
    <g fill="white" text-rendering="geometricPrecision" shape-rendering="geometricPrecision" transform="matrix(1,0,0,1,-1096,-460)" stroke="white">
      <rect x="1250.8681" width="41.4024" height="20.4" y="583.7018" clip-path="url(#clipPath2)" stroke="none"/>
    </g>
    <g text-rendering="geometricPrecision" stroke-miterlimit="1.45" shape-rendering="geometricPrecision" transform="matrix(1,0,0,1,-1096,-460)" stroke-linecap="butt">
      <rect fill="none" x="1250.8681" width="41.4024" height="20.4" y="583.7018" clip-path="url(#clipPath2)"/>
      <text x="1256.868" xml:space="preserve" y="598.6157" clip-path="url(#clipPath2)" font-family="sans-serif" stroke="none">string</text>
    </g>
    <g fill="rgb(255,255,244)" text-rendering="geometricPrecision" shape-rendering="geometricPrecision" transform="matrix(1,0,0,1,-1096,-460)" stroke="rgb(255,255,244)">
      <rect x="1128.8207" width="122.0474" height="20.4" y="563.3018" clip-path="url(#clipPath2)" stroke="none"/>
    </g>
    <g text-rendering="geometricPrecision" stroke-miterlimit="1.45" shape-rendering="geometricPrecision" transform="matrix(1,0,0,1,-1096,-460)" stroke-linecap="butt">
      <rect fill="none" x="1128.8207" width="122.0474" height="20.4" y="563.3018" clip-path="url(#clipPath2)"/>
      <text x="1134.8207" xml:space="preserve" y="578.2157" clip-path="url(#clipPath2)" font-family="sans-serif" stroke="none">port: Websocket Port</text>
    </g>
  </g>
</svg>
