<?xml version="1.0" encoding="UTF-8" standalone="no"?>
<svg xmlns="http://www.w3.org/2000/svg" xmlns:xlink="http://www.w3.org/1999/xlink" contentStyleType="text/css" height="356px" preserveAspectRatio="none" style="width:1894px;height:356px;background:#FFFFFF;" version="1.1" viewBox="0 0 1894 356" width="1894px" zoomAndPan="magnify"><defs/><g><!--MD5=[26c9a7f4f11621a1371bea9cc4369758]
cluster imu_tracker::screens::main_page--><g id="cluster_imu_tracker::screens::main_page"><path d="M8.5,6 L277.5,6 A3.75,3.75 0 0 1 280,8.5 L287,28.2969 L664.5,28.2969 A2.5,2.5 0 0 1 667,30.7969 L667,346.5 A2.5,2.5 0 0 1 664.5,349 L8.5,349 A2.5,2.5 0 0 1 6,346.5 L6,8.5 A2.5,2.5 0 0 1 8.5,6 " style="stroke:#000000;stroke-width:1.5;fill:none;"/><line style="stroke:#000000;stroke-width:1.5;fill:none;" x1="6" x2="287" y1="28.2969" y2="28.2969"/><text fill="#000000" font-family="sans-serif" font-size="14" font-weight="bold" lengthAdjust="spacing" textLength="268" x="10" y="20.9951">imu_tracker::screens::main_page</text></g><!--MD5=[efef3392b5e03aa5a0d00da2e2dd0b1a]
cluster imu_tracker::screens::qr_code_found_page--><g id="cluster_imu_tracker::screens::qr_code_found_page"><path d="M693.5,87.5 L1038.5,87.5 A3.75,3.75 0 0 1 1041,90 L1048,109.7969 L1154.5,109.7969 A2.5,2.5 0 0 1 1157,112.2969 L1157,265 A2.5,2.5 0 0 1 1154.5,267.5 L693.5,267.5 A2.5,2.5 0 0 1 691,265 L691,90 A2.5,2.5 0 0 1 693.5,87.5 " style="stroke:#000000;stroke-width:1.5;fill:none;"/><line style="stroke:#000000;stroke-width:1.5;fill:none;" x1="691" x2="1048" y1="109.7969" y2="109.7969"/><text fill="#000000" font-family="sans-serif" font-size="14" font-weight="bold" lengthAdjust="spacing" textLength="344" x="695" y="102.4951">imu_tracker::screens::qr_code_found_page</text></g><!--MD5=[8c7cbfa6db4a94e3bfdff67004c7027a]
cluster imu_tracker::screens::qr_code_registration_screen--><g id="cluster_imu_tracker::screens::qr_code_registration_screen"><path d="M1183.5,54.5 L1593.5,54.5 A3.75,3.75 0 0 1 1596,57 L1603,76.7969 L1884.5,76.7969 A2.5,2.5 0 0 1 1887,79.2969 L1887,298 A2.5,2.5 0 0 1 1884.5,300.5 L1183.5,300.5 A2.5,2.5 0 0 1 1181,298 L1181,57 A2.5,2.5 0 0 1 1183.5,54.5 " style="stroke:#000000;stroke-width:1.5;fill:none;"/><line style="stroke:#000000;stroke-width:1.5;fill:none;" x1="1181" x2="1603" y1="76.7969" y2="76.7969"/><text fill="#000000" font-family="sans-serif" font-size="14" font-weight="bold" lengthAdjust="spacing" textLength="409" x="1185" y="69.4951">imu_tracker::screens::qr_code_registration_screen</text></g><!--MD5=[4a8fb919b73ffa16f0d350ba5c0e8fe7]
class imu_tracker::screens::main_page.dart::MainPage--><g id="elem_imu_tracker::screens::main_page.dart::MainPage"><rect codeLine="1" fill="#F1F1F1" height="64.2969" id="imu_tracker::screens::main_page.dart::MainPage" rx="2.5" ry="2.5" style="stroke:#181818;stroke-width:0.5;" width="262" x="389" y="155"/><ellipse cx="461.75" cy="171" fill="#ADD1B2" rx="11" ry="11" style="stroke:#181818;stroke-width:1.0;"/><path d="M464.0938,166.6719 C463.1563,166.2344 462.5625,166.0938 461.6875,166.0938 C459.0625,166.0938 457.0625,168.1719 457.0625,170.8906 L457.0625,172.0156 C457.0625,174.5938 459.1719,176.4844 462.0625,176.4844 C463.2813,176.4844 464.4375,176.1875 465.1875,175.6406 C465.7656,175.2344 466.0938,174.7813 466.0938,174.3906 C466.0938,173.9375 465.7031,173.5469 465.2344,173.5469 C465.0156,173.5469 464.8125,173.625 464.625,173.8125 C464.1719,174.2969 464.1719,174.2969 463.9844,174.3906 C463.5625,174.6563 462.875,174.7813 462.1094,174.7813 C460.0625,174.7813 458.7656,173.6875 458.7656,171.9844 L458.7656,170.8906 C458.7656,169.1094 460.0156,167.7969 461.75,167.7969 C462.3281,167.7969 462.9375,167.9531 463.4063,168.2031 C463.8906,168.4844 464.0625,168.7031 464.1563,169.1094 C464.2188,169.5156 464.25,169.6406 464.3906,169.7656 C464.5313,169.9063 464.7656,170.0156 464.9844,170.0156 C465.25,170.0156 465.5156,169.875 465.6875,169.6563 C465.7969,169.5 465.8281,169.3125 465.8281,168.8906 L465.8281,167.4688 C465.8281,167.0313 465.8125,166.9063 465.7188,166.75 C465.5625,166.4844 465.2813,166.3438 464.9844,166.3438 C464.6875,166.3438 464.4844,166.4375 464.2656,166.75 L464.0938,166.6719 Z " fill="#000000"/><text fill="#000000" font-family="sans-serif" font-size="14" lengthAdjust="spacing" textLength="108" x="482.25" y="175.8467">dart::MainPage</text><line style="stroke:#181818;stroke-width:0.5;" x1="390" x2="650" y1="187" y2="187"/><line style="stroke:#181818;stroke-width:0.5;" x1="390" x2="650" y1="195" y2="195"/><ellipse cx="400" cy="206" fill="#84BE84" rx="3" ry="3" style="stroke:#038048;stroke-width:1.0;"/><text fill="#000000" font-family="sans-serif" font-size="14" lengthAdjust="spacing" textLength="236" x="409" y="211.9951">_MyMainPageState createState()</text></g><!--MD5=[05da7eee7e809a5ac676bb1cb0400f16]
class imu_tracker::screens::main_page.dart::_MyMainPageState--><g id="elem_imu_tracker::screens::main_page.dart::_MyMainPageState"><rect codeLine="5" fill="#F1F1F1" height="292.4531" id="imu_tracker::screens::main_page.dart::_MyMainPageState" rx="2.5" ry="2.5" style="stroke:#181818;stroke-width:0.5;" width="332" x="22" y="41"/><ellipse cx="96.25" cy="57" fill="#ADD1B2" rx="11" ry="11" style="stroke:#181818;stroke-width:1.0;"/><path d="M98.5938,52.6719 C97.6563,52.2344 97.0625,52.0938 96.1875,52.0938 C93.5625,52.0938 91.5625,54.1719 91.5625,56.8906 L91.5625,58.0156 C91.5625,60.5938 93.6719,62.4844 96.5625,62.4844 C97.7813,62.4844 98.9375,62.1875 99.6875,61.6406 C100.2656,61.2344 100.5938,60.7813 100.5938,60.3906 C100.5938,59.9375 100.2031,59.5469 99.7344,59.5469 C99.5156,59.5469 99.3125,59.625 99.125,59.8125 C98.6719,60.2969 98.6719,60.2969 98.4844,60.3906 C98.0625,60.6563 97.375,60.7813 96.6094,60.7813 C94.5625,60.7813 93.2656,59.6875 93.2656,57.9844 L93.2656,56.8906 C93.2656,55.1094 94.5156,53.7969 96.25,53.7969 C96.8281,53.7969 97.4375,53.9531 97.9063,54.2031 C98.3906,54.4844 98.5625,54.7031 98.6563,55.1094 C98.7188,55.5156 98.75,55.6406 98.8906,55.7656 C99.0313,55.9063 99.2656,56.0156 99.4844,56.0156 C99.75,56.0156 100.0156,55.875 100.1875,55.6563 C100.2969,55.5 100.3281,55.3125 100.3281,54.8906 L100.3281,53.4688 C100.3281,53.0313 100.3125,52.9063 100.2188,52.75 C100.0625,52.4844 99.7813,52.3438 99.4844,52.3438 C99.1875,52.3438 98.9844,52.4375 98.7656,52.75 L98.5938,52.6719 Z " fill="#000000"/><text fill="#000000" font-family="sans-serif" font-size="14" lengthAdjust="spacing" textLength="175" x="116.75" y="61.8467">dart::_MyMainPageState</text><line style="stroke:#181818;stroke-width:0.5;" x1="23" x2="353" y1="73" y2="73"/><rect fill="none" height="6" style="stroke:#C82930;stroke-width:1.0;" width="6" x="30" y="81"/><text fill="#000000" font-family="sans-serif" font-size="14" lengthAdjust="spacing" textLength="229" x="42" y="89.9951">WebSocketHandler _websocket</text><rect fill="none" height="6" style="stroke:#C82930;stroke-width:1.0;" width="6" x="30" y="97.2969"/><text fill="#000000" font-family="sans-serif" font-size="14" lengthAdjust="spacing" textLength="281" x="42" y="106.292">InternalSensorService _internalSensors</text><rect fill="none" height="6" style="stroke:#C82930;stroke-width:1.0;" width="6" x="30" y="113.5938"/><text fill="#000000" font-family="sans-serif" font-size="14" lengthAdjust="spacing" textLength="267" x="42" y="122.5889">bool _connectionWarningDialogOpen</text><rect fill="none" height="6" style="stroke:#C82930;stroke-width:1.0;" width="6" x="30" y="129.8906"/><text fill="#000000" font-family="sans-serif" font-size="14" lengthAdjust="spacing" textLength="265" x="42" y="138.8857">bool _movementWarningDialogOpen</text><rect fill="none" height="6" style="stroke:#C82930;stroke-width:1.0;" width="6" x="30" y="146.1875"/><text fill="#000000" font-family="sans-serif" font-size="14" lengthAdjust="spacing" textLength="241" x="42" y="155.1826">bool _batteryWarningDialogOpen</text><ellipse cx="33" cy="165.4844" fill="none" rx="3" ry="3" style="stroke:#038048;stroke-width:1.0;"/><text fill="#000000" font-family="sans-serif" font-size="14" lengthAdjust="spacing" textLength="93" x="42" y="171.4795">Timer? timer</text><rect fill="none" height="6" style="stroke:#C82930;stroke-width:1.0;" width="6" x="30" y="178.7813"/><text fill="#000000" font-family="sans-serif" font-size="14" lengthAdjust="spacing" textLength="306" x="42" y="187.7764">TextEditingController _textFieldController</text><rect fill="none" height="6" style="stroke:#C82930;stroke-width:1.0;" width="6" x="30" y="195.0781"/><text fill="#000000" font-family="sans-serif" font-size="14" lengthAdjust="spacing" textLength="125" x="42" y="204.0732">String _valueText</text><line style="stroke:#181818;stroke-width:0.5;" x1="23" x2="353" y1="211.375" y2="211.375"/><ellipse cx="33" cy="222.375" fill="#84BE84" rx="3" ry="3" style="stroke:#038048;stroke-width:1.0;"/><text fill="#000000" font-family="sans-serif" font-size="14" lengthAdjust="spacing" textLength="108" x="42" y="228.3701">void initState()</text><ellipse cx="33" cy="238.6719" fill="#84BE84" rx="3" ry="3" style="stroke:#038048;stroke-width:1.0;"/><text fill="#000000" font-family="sans-serif" font-size="14" lengthAdjust="spacing" textLength="101" x="42" y="244.667">Widget build()</text><rect fill="#F24D5C" height="6" style="stroke:#C82930;stroke-width:1.0;" width="6" x="30" y="251.9688"/><text fill="#000000" font-family="sans-serif" font-size="14" lengthAdjust="spacing" textLength="259" x="42" y="260.9639">dynamic _getConnectionStateIcon()</text><rect fill="#F24D5C" height="6" style="stroke:#C82930;stroke-width:1.0;" width="6" x="30" y="268.2656"/><text fill="#000000" font-family="sans-serif" font-size="14" lengthAdjust="spacing" textLength="252" x="42" y="277.2607">Future&lt;void&gt; _showLogOutDialog()</text><rect fill="#F24D5C" height="6" style="stroke:#C82930;stroke-width:1.0;" width="6" x="30" y="284.5625"/><text fill="#000000" font-family="sans-serif" font-size="14" lengthAdjust="spacing" textLength="255" x="42" y="293.5576">Future&lt;void&gt; _showBatteryDialog()</text><rect fill="#F24D5C" height="6" style="stroke:#C82930;stroke-width:1.0;" width="6" x="30" y="300.8594"/><text fill="#000000" font-family="sans-serif" font-size="14" lengthAdjust="spacing" textLength="277" x="42" y="309.8545">Future&lt;void&gt; _showMovementDialog()</text><rect fill="#F24D5C" height="6" style="stroke:#C82930;stroke-width:1.0;" width="6" x="30" y="317.1563"/><text fill="#000000" font-family="sans-serif" font-size="14" lengthAdjust="spacing" textLength="283" x="42" y="326.1514">Future&lt;void&gt; _showConnectionDialog()</text></g><!--MD5=[25328ef9173cfa002f74ecc7247e970a]
class imu_tracker::screens::qr_code_found_page.dart::QrCodeFoundPage--><g id="elem_imu_tracker::screens::qr_code_found_page.dart::QrCodeFoundPage"><rect codeLine="23" fill="#F1F1F1" height="129.4844" id="imu_tracker::screens::qr_code_found_page.dart::QrCodeFoundPage" rx="2.5" ry="2.5" style="stroke:#181818;stroke-width:0.5;" width="434" x="707" y="122.5"/><ellipse cx="833.75" cy="138.5" fill="#ADD1B2" rx="11" ry="11" style="stroke:#181818;stroke-width:1.0;"/><path d="M836.0938,134.1719 C835.1563,133.7344 834.5625,133.5938 833.6875,133.5938 C831.0625,133.5938 829.0625,135.6719 829.0625,138.3906 L829.0625,139.5156 C829.0625,142.0938 831.1719,143.9844 834.0625,143.9844 C835.2813,143.9844 836.4375,143.6875 837.1875,143.1406 C837.7656,142.7344 838.0938,142.2813 838.0938,141.8906 C838.0938,141.4375 837.7031,141.0469 837.2344,141.0469 C837.0156,141.0469 836.8125,141.125 836.625,141.3125 C836.1719,141.7969 836.1719,141.7969 835.9844,141.8906 C835.5625,142.1563 834.875,142.2813 834.1094,142.2813 C832.0625,142.2813 830.7656,141.1875 830.7656,139.4844 L830.7656,138.3906 C830.7656,136.6094 832.0156,135.2969 833.75,135.2969 C834.3281,135.2969 834.9375,135.4531 835.4063,135.7031 C835.8906,135.9844 836.0625,136.2031 836.1563,136.6094 C836.2188,137.0156 836.25,137.1406 836.3906,137.2656 C836.5313,137.4063 836.7656,137.5156 836.9844,137.5156 C837.25,137.5156 837.5156,137.375 837.6875,137.1563 C837.7969,137 837.8281,136.8125 837.8281,136.3906 L837.8281,134.9688 C837.8281,134.5313 837.8125,134.4063 837.7188,134.25 C837.5625,133.9844 837.2813,133.8438 836.9844,133.8438 C836.6875,133.8438 836.4844,133.9375 836.2656,134.25 L836.0938,134.1719 Z " fill="#000000"/><text fill="#000000" font-family="sans-serif" font-size="14" lengthAdjust="spacing" textLength="172" x="854.25" y="143.3467">dart::QrCodeFoundPage</text><line style="stroke:#181818;stroke-width:0.5;" x1="708" x2="1140" y1="154.5" y2="154.5"/><ellipse cx="718" cy="165.5" fill="none" rx="3" ry="3" style="stroke:#038048;stroke-width:1.0;"/><text fill="#000000" font-family="sans-serif" font-size="14" lengthAdjust="spacing" textLength="169" x="727" y="171.4951">dynamic qrCheckResult</text><ellipse cx="718" cy="181.7969" fill="none" rx="3" ry="3" style="stroke:#038048;stroke-width:1.0;"/><text fill="#000000" font-family="sans-serif" font-size="14" lengthAdjust="spacing" textLength="408" x="727" y="187.792">WebSocketTestResultReturnType webSocketTestResult</text><line style="stroke:#181818;stroke-width:0.5;" x1="708" x2="1140" y1="195.0938" y2="195.0938"/><ellipse cx="718" cy="206.0938" fill="#84BE84" rx="3" ry="3" style="stroke:#038048;stroke-width:1.0;"/><text fill="#000000" font-family="sans-serif" font-size="14" lengthAdjust="spacing" textLength="101" x="727" y="212.0889">Widget build()</text><rect fill="#F24D5C" height="6" style="stroke:#C82930;stroke-width:1.0;" width="6" x="715" y="219.3906"/><text fill="#000000" font-family="sans-serif" font-size="14" lengthAdjust="spacing" textLength="178" x="727" y="228.3857">dynamic _getCheckBox()</text><rect fill="#F24D5C" height="6" style="stroke:#C82930;stroke-width:1.0;" width="6" x="715" y="235.6875"/><text fill="#000000" font-family="sans-serif" font-size="14" lengthAdjust="spacing" textLength="302" x="727" y="244.6826">dynamic _getWebsocketResponseString()</text></g><!--MD5=[684723d217675741713a7160b2320bbd]
class imu_tracker::screens::qr_code_registration_screen.dart::RegistrationScreen--><g id="elem_imu_tracker::screens::qr_code_registration_screen.dart::RegistrationScreen"><rect codeLine="31" fill="#F1F1F1" height="64.2969" id="imu_tracker::screens::qr_code_registration_screen.dart::RegistrationScreen" rx="2.5" ry="2.5" style="stroke:#181818;stroke-width:0.5;" width="299" x="1571.5" y="155"/><ellipse cx="1627.25" cy="171" fill="#ADD1B2" rx="11" ry="11" style="stroke:#181818;stroke-width:1.0;"/><path d="M1629.5938,166.6719 C1628.6563,166.2344 1628.0625,166.0938 1627.1875,166.0938 C1624.5625,166.0938 1622.5625,168.1719 1622.5625,170.8906 L1622.5625,172.0156 C1622.5625,174.5938 1624.6719,176.4844 1627.5625,176.4844 C1628.7813,176.4844 1629.9375,176.1875 1630.6875,175.6406 C1631.2656,175.2344 1631.5938,174.7813 1631.5938,174.3906 C1631.5938,173.9375 1631.2031,173.5469 1630.7344,173.5469 C1630.5156,173.5469 1630.3125,173.625 1630.125,173.8125 C1629.6719,174.2969 1629.6719,174.2969 1629.4844,174.3906 C1629.0625,174.6563 1628.375,174.7813 1627.6094,174.7813 C1625.5625,174.7813 1624.2656,173.6875 1624.2656,171.9844 L1624.2656,170.8906 C1624.2656,169.1094 1625.5156,167.7969 1627.25,167.7969 C1627.8281,167.7969 1628.4375,167.9531 1628.9063,168.2031 C1629.3906,168.4844 1629.5625,168.7031 1629.6563,169.1094 C1629.7188,169.5156 1629.75,169.6406 1629.8906,169.7656 C1630.0313,169.9063 1630.2656,170.0156 1630.4844,170.0156 C1630.75,170.0156 1631.0156,169.875 1631.1875,169.6563 C1631.2969,169.5 1631.3281,169.3125 1631.3281,168.8906 L1631.3281,167.4688 C1631.3281,167.0313 1631.3125,166.9063 1631.2188,166.75 C1631.0625,166.4844 1630.7813,166.3438 1630.4844,166.3438 C1630.1875,166.3438 1629.9844,166.4375 1629.7656,166.75 L1629.5938,166.6719 Z " fill="#000000"/><text fill="#000000" font-family="sans-serif" font-size="14" lengthAdjust="spacing" textLength="179" x="1647.75" y="175.8467">dart::RegistrationScreen</text><line style="stroke:#181818;stroke-width:0.5;" x1="1572.5" x2="1869.5" y1="187" y2="187"/><line style="stroke:#181818;stroke-width:0.5;" x1="1572.5" x2="1869.5" y1="195" y2="195"/><ellipse cx="1582.5" cy="206" fill="#84BE84" rx="3" ry="3" style="stroke:#038048;stroke-width:1.0;"/><text fill="#000000" font-family="sans-serif" font-size="14" lengthAdjust="spacing" textLength="273" x="1591.5" y="211.9951">State&lt;StatefulWidget&gt; createState()</text></g><!--MD5=[3d0e4732b8235c8904789d6b2e6d700f]
class imu_tracker::screens::qr_code_registration_screen.dart::_RegistrationScreen--><g id="elem_imu_tracker::screens::qr_code_registration_screen.dart::_RegistrationScreen"><rect codeLine="36" fill="#F1F1F1" height="194.6719" id="imu_tracker::screens::qr_code_registration_screen.dart::_RegistrationScreen" rx="2.5" ry="2.5" style="stroke:#181818;stroke-width:0.5;" width="339" x="1197.5" y="89.5"/><ellipse cx="1269.75" cy="105.5" fill="#ADD1B2" rx="11" ry="11" style="stroke:#181818;stroke-width:1.0;"/><path d="M1272.0938,101.1719 C1271.1563,100.7344 1270.5625,100.5938 1269.6875,100.5938 C1267.0625,100.5938 1265.0625,102.6719 1265.0625,105.3906 L1265.0625,106.5156 C1265.0625,109.0938 1267.1719,110.9844 1270.0625,110.9844 C1271.2813,110.9844 1272.4375,110.6875 1273.1875,110.1406 C1273.7656,109.7344 1274.0938,109.2813 1274.0938,108.8906 C1274.0938,108.4375 1273.7031,108.0469 1273.2344,108.0469 C1273.0156,108.0469 1272.8125,108.125 1272.625,108.3125 C1272.1719,108.7969 1272.1719,108.7969 1271.9844,108.8906 C1271.5625,109.1563 1270.875,109.2813 1270.1094,109.2813 C1268.0625,109.2813 1266.7656,108.1875 1266.7656,106.4844 L1266.7656,105.3906 C1266.7656,103.6094 1268.0156,102.2969 1269.75,102.2969 C1270.3281,102.2969 1270.9375,102.4531 1271.4063,102.7031 C1271.8906,102.9844 1272.0625,103.2031 1272.1563,103.6094 C1272.2188,104.0156 1272.25,104.1406 1272.3906,104.2656 C1272.5313,104.4063 1272.7656,104.5156 1272.9844,104.5156 C1273.25,104.5156 1273.5156,104.375 1273.6875,104.1563 C1273.7969,104 1273.8281,103.8125 1273.8281,103.3906 L1273.8281,101.9688 C1273.8281,101.5313 1273.8125,101.4063 1273.7188,101.25 C1273.5625,100.9844 1273.2813,100.8438 1272.9844,100.8438 C1272.6875,100.8438 1272.4844,100.9375 1272.2656,101.25 L1272.0938,101.1719 Z " fill="#000000"/><text fill="#000000" font-family="sans-serif" font-size="14" lengthAdjust="spacing" textLength="186" x="1290.25" y="110.3467">dart::_RegistrationScreen</text><line style="stroke:#181818;stroke-width:0.5;" x1="1198.5" x2="1535.5" y1="121.5" y2="121.5"/><ellipse cx="1208.5" cy="132.5" fill="none" rx="3" ry="3" style="stroke:#038048;stroke-width:1.0;"/><text fill="#000000" font-family="sans-serif" font-size="14" lengthAdjust="spacing" textLength="111" x="1217.5" y="138.4951">Barcode? result</text><ellipse cx="1208.5" cy="148.7969" fill="none" rx="3" ry="3" style="stroke:#038048;stroke-width:1.0;"/><text fill="#000000" font-family="sans-serif" font-size="14" lengthAdjust="spacing" textLength="210" x="1217.5" y="154.792">QRViewController? controller</text><ellipse cx="1208.5" cy="165.0938" fill="none" rx="3" ry="3" style="stroke:#038048;stroke-width:1.0;"/><text fill="#000000" font-family="sans-serif" font-size="14" lengthAdjust="spacing" textLength="313" x="1217.5" y="171.0889">GlobalKey&lt;State&lt;StatefulWidget&gt;&gt; qrKey</text><line style="stroke:#181818;stroke-width:0.5;" x1="1198.5" x2="1535.5" y1="178.3906" y2="178.3906"/><ellipse cx="1208.5" cy="189.3906" fill="#84BE84" rx="3" ry="3" style="stroke:#038048;stroke-width:1.0;"/><text fill="#000000" font-family="sans-serif" font-size="14" lengthAdjust="spacing" textLength="127" x="1217.5" y="195.3857">void reassemble()</text><ellipse cx="1208.5" cy="205.6875" fill="#84BE84" rx="3" ry="3" style="stroke:#038048;stroke-width:1.0;"/><text fill="#000000" font-family="sans-serif" font-size="14" lengthAdjust="spacing" textLength="101" x="1217.5" y="211.6826">Widget build()</text><rect fill="#F24D5C" height="6" style="stroke:#C82930;stroke-width:1.0;" width="6" x="1205.5" y="218.9844"/><text fill="#000000" font-family="sans-serif" font-size="14" lengthAdjust="spacing" textLength="159" x="1217.5" y="227.9795">Widget _buildQrView()</text><rect fill="#F24D5C" height="6" style="stroke:#C82930;stroke-width:1.0;" width="6" x="1205.5" y="235.2813"/><text fill="#000000" font-family="sans-serif" font-size="14" lengthAdjust="spacing" textLength="182" x="1217.5" y="244.2764">void _onQRViewCreated()</text><rect fill="#F24D5C" height="6" style="stroke:#C82930;stroke-width:1.0;" width="6" x="1205.5" y="251.5781"/><text fill="#000000" font-family="sans-serif" font-size="14" lengthAdjust="spacing" textLength="172" x="1217.5" y="260.5732">void _onPermissionSet()</text><ellipse cx="1208.5" cy="270.875" fill="#84BE84" rx="3" ry="3" style="stroke:#038048;stroke-width:1.0;"/><text fill="#000000" font-family="sans-serif" font-size="14" lengthAdjust="spacing" textLength="99" x="1217.5" y="276.8701">void dispose()</text></g><!--MD5=[c16558e6ed95f66ed8f06e8c7c2a08af]
@startuml
class "imu_tracker::screens::main_page.dart::MainPage" {
  +_MyMainPageState createState()
}

class "imu_tracker::screens::main_page.dart::_MyMainPageState" {
  -WebSocketHandler _websocket
  -InternalSensorService _internalSensors
  -bool _connectionWarningDialogOpen
  -bool _movementWarningDialogOpen
  -bool _batteryWarningDialogOpen
  +Timer? timer
  -TextEditingController _textFieldController
  -String _valueText
  +void initState()
  +Widget build()
  -dynamic _getConnectionStateIcon()
  -Future<void> _showLogOutDialog()
  -Future<void> _showBatteryDialog()
  -Future<void> _showMovementDialog()
  -Future<void> _showConnectionDialog()
}

class "imu_tracker::screens::qr_code_found_page.dart::QrCodeFoundPage" {
  +dynamic qrCheckResult
  +WebSocketTestResultReturnType webSocketTestResult
  +Widget build()
  -dynamic _getCheckBox()
  -dynamic _getWebsocketResponseString()
}

class "imu_tracker::screens::qr_code_registration_screen.dart::RegistrationScreen" {
  +State<StatefulWidget> createState()
}


class "imu_tracker::screens::qr_code_registration_screen.dart::_RegistrationScreen" {
  +Barcode? result
  +QRViewController? controller
  +GlobalKey<State<StatefulWidget>> qrKey
  +void reassemble()
  +Widget build()
  -Widget _buildQrView()
  -void _onQRViewCreated()
  -void _onPermissionSet()
  +void dispose()
}
@enduml

PlantUML version 1.2022.4beta2(Unknown compile time)
(GPL source distribution)
Java Runtime: Java(TM) SE Runtime Environment
JVM: Java HotSpot(TM) 64-Bit Server VM
Default Encoding: UTF-8
Language: en
Country: US
--></g></svg>