<?xml version="1.0" encoding="UTF-8"?><svg xmlns="http://www.w3.org/2000/svg" xmlns:xlink="http://www.w3.org/1999/xlink" fill-opacity="1" color-rendering="auto" color-interpolation="auto" text-rendering="auto" stroke="black" stroke-linecap="square" width="589" stroke-miterlimit="10" shape-rendering="auto" stroke-opacity="1" fill="black" stroke-dasharray="none" font-weight="normal" stroke-width="1" height="223" font-family="'Dialog'" font-style="normal" stroke-linejoin="miter" font-size="12px" stroke-dashoffset="0" image-rendering="auto">
  <!--Generated by ySVG 2.5-->
  <defs id="genericDefs"/>
  <g>
    <defs id="defs1">
      <clipPath clipPathUnits="userSpaceOnUse" id="clipPath1">
        <path d="M0 0 L589 0 L589 223 L0 223 L0 0 Z"/>
      </clipPath>
      <clipPath clipPathUnits="userSpaceOnUse" id="clipPath2">
        <path d="M273 261 L862 261 L862 484 L273 484 L273 261 Z"/>
      </clipPath>
    </defs>
    <g fill="white" text-rendering="geometricPrecision" shape-rendering="geometricPrecision" transform="translate(-273,-261)" stroke="white">
      <rect x="273" width="589" height="223" y="261" clip-path="url(#clipPath2)" stroke="none"/>
    </g>
    <g fill="rgb(255,204,0)" text-rendering="geometricPrecision" shape-rendering="geometricPrecision" transform="matrix(1,0,0,1,-273,-261)" stroke="rgb(255,204,0)">
      <rect x="494.75" y="337.8331" clip-path="url(#clipPath2)" width="117" rx="4" ry="4" height="68.64" stroke="none"/>
    </g>
    <g text-rendering="geometricPrecision" stroke-miterlimit="1.45" shape-rendering="geometricPrecision" transform="matrix(1,0,0,1,-273,-261)" stroke-linecap="butt">
      <rect x="494.75" y="337.8331" clip-path="url(#clipPath2)" fill="none" width="117" rx="4" ry="4" height="68.64"/>
      <text x="511.5635" xml:space="preserve" y="355.8976" clip-path="url(#clipPath2)" font-family="sans-serif" stroke="none">Service Locator</text>
    </g>
    <g fill="rgb(204,255,204)" text-rendering="geometricPrecision" shape-rendering="geometricPrecision" transform="matrix(1,0,0,1,-273,-261)" stroke="rgb(204,255,204)">
      <rect x="721" y="276.5131" clip-path="url(#clipPath2)" width="126" rx="4" ry="4" height="52" stroke="none"/>
    </g>
    <g text-rendering="geometricPrecision" stroke-miterlimit="1.45" shape-rendering="geometricPrecision" transform="matrix(1,0,0,1,-273,-261)" stroke-linecap="butt">
      <rect x="721" y="276.5131" clip-path="url(#clipPath2)" fill="none" width="126" rx="4" ry="4" height="52"/>
      <text x="758.3242" xml:space="preserve" y="307.227" clip-path="url(#clipPath2)" font-family="sans-serif" stroke="none">Service A</text>
    </g>
    <g fill="rgb(204,255,204)" text-rendering="geometricPrecision" shape-rendering="geometricPrecision" transform="matrix(1,0,0,1,-273,-261)" stroke="rgb(204,255,204)">
      <rect x="721" y="416.5731" clip-path="url(#clipPath2)" width="126" rx="4" ry="4" height="52" stroke="none"/>
    </g>
    <g text-rendering="geometricPrecision" stroke-miterlimit="1.45" shape-rendering="geometricPrecision" transform="matrix(1,0,0,1,-273,-261)" stroke-linecap="butt">
      <rect x="721" y="416.5731" clip-path="url(#clipPath2)" fill="none" width="126" rx="4" ry="4" height="52"/>
      <text x="758.3242" xml:space="preserve" y="447.287" clip-path="url(#clipPath2)" font-family="sans-serif" stroke="none">Service B</text>
    </g>
    <g fill="rgb(255,255,153)" text-rendering="geometricPrecision" shape-rendering="geometricPrecision" transform="matrix(1,0,0,1,-273,-261)" stroke="rgb(255,255,153)">
      <rect x="288.68" y="346.1531" clip-path="url(#clipPath2)" width="126" rx="4" ry="4" height="52" stroke="none"/>
    </g>
    <g text-rendering="geometricPrecision" stroke-miterlimit="1.45" shape-rendering="geometricPrecision" transform="matrix(1,0,0,1,-273,-261)" stroke-linecap="butt">
      <rect x="288.68" y="346.1531" clip-path="url(#clipPath2)" fill="none" width="126" rx="4" ry="4" height="52"/>
      <text x="310.9896" xml:space="preserve" y="376.8669" clip-path="url(#clipPath2)" font-family="sans-serif" stroke="none">App- Ansichten</text>
      <text x="511.2022" font-size="10px" y="378.2758" clip-path="url(#clipPath2)" font-family="sans-serif" stroke="none" xml:space="preserve">•Service A()</text>
      <text x="511.2022" font-size="10px" y="390.5268" clip-path="url(#clipPath2)" font-family="sans-serif" stroke="none" xml:space="preserve">•Service B()</text>
      <path fill="none" d="M611.7544 372.1531 L774 372.1531 L778.375 371.5281 L781.5 369.6531 L783.375 366.5281 L784 362.1531 L784 336.5261" clip-path="url(#clipPath2)"/>
      <path d="M784 328.5261 L779 340.5261 L784 337.5261 L789 340.5261 Z" clip-path="url(#clipPath2)" stroke="none"/>
      <path fill="none" d="M611.7544 372.1531 L774 372.1531 L778.375 372.7781 L781.5 374.6531 L783.375 377.7781 L784 382.1531 L784 408.5438" clip-path="url(#clipPath2)"/>
      <path d="M784 416.5438 L789 404.5438 L784 407.5438 L779 404.5438 Z" clip-path="url(#clipPath2)" stroke="none"/>
      <rect x="635.243" y="362.8025" clip-path="url(#clipPath2)" fill="white" width="121.375" height="18.7012" stroke="none"/>
      <text x="637.243" xml:space="preserve" y="376.8669" clip-path="url(#clipPath2)" font-family="sans-serif" stroke="none">lokalisiert / instanziiert</text>
      <path fill="none" d="M414.7198 372.1531 L486.7738 372.1531" clip-path="url(#clipPath2)"/>
      <path d="M494.7738 372.1531 L482.7738 367.1531 L485.7738 372.1531 L482.7738 377.1531 Z" clip-path="url(#clipPath2)" stroke="none"/>
      <rect x="434.7004" y="362.8025" clip-path="url(#clipPath2)" fill="white" width="40.0293" height="18.7012" stroke="none"/>
      <text x="436.7003" xml:space="preserve" y="376.8669" clip-path="url(#clipPath2)" font-family="sans-serif" stroke="none">nutzen</text>
    </g>
  </g>
</svg>
