<?xml version="1.0" encoding="UTF-8" standalone="no"?>
<svg xmlns="http://www.w3.org/2000/svg" xmlns:xlink="http://www.w3.org/1999/xlink" contentStyleType="text/css" height="503px" preserveAspectRatio="none" style="width:1357px;height:503px;background:#FFFFFF;" version="1.1" viewBox="0 0 1357 503" width="1357px" zoomAndPan="magnify"><defs/><g><!--MD5=[a1836146e1977d70e818fe350a669225]
cluster imu_tracker::services::device_settings_handler--><g id="cluster_imu_tracker::services::device_settings_handler"><path d="M8.5,169 L389.5,169 A3.75,3.75 0 0 1 392,171.5 L399,191.2969 L443.5,191.2969 A2.5,2.5 0 0 1 446,193.7969 L446,330.5 A2.5,2.5 0 0 1 443.5,333 L8.5,333 A2.5,2.5 0 0 1 6,330.5 L6,171.5 A2.5,2.5 0 0 1 8.5,169 " style="stroke:#000000;stroke-width:1.5;fill:none;"/><line style="stroke:#000000;stroke-width:1.5;fill:none;" x1="6" x2="399" y1="191.2969" y2="191.2969"/><text fill="#000000" font-family="sans-serif" font-size="14" font-weight="bold" lengthAdjust="spacing" textLength="380" x="10" y="183.9951">imu_tracker::services::device_settings_handler</text></g><!--MD5=[67be189bc512d0874ff6bd826099a80d]
cluster imu_tracker::services::internal_sensor_service--><g id="cluster_imu_tracker::services::internal_sensor_service"><path d="M472.5,6 L848.5,6 A3.75,3.75 0 0 1 851,8.5 L858,28.2969 L949.5,28.2969 A2.5,2.5 0 0 1 952,30.7969 L952,493.5 A2.5,2.5 0 0 1 949.5,496 L472.5,496 A2.5,2.5 0 0 1 470,493.5 L470,8.5 A2.5,2.5 0 0 1 472.5,6 " style="stroke:#000000;stroke-width:1.5;fill:none;"/><line style="stroke:#000000;stroke-width:1.5;fill:none;" x1="470" x2="858" y1="28.2969" y2="28.2969"/><text fill="#000000" font-family="sans-serif" font-size="14" font-weight="bold" lengthAdjust="spacing" textLength="375" x="474" y="20.9951">imu_tracker::services::internal_sensor_service</text></g><!--MD5=[17198d4f0ab4fd6b2fcdcb478f29edaf]
cluster imu_tracker::services::localstorage_service--><g id="cluster_imu_tracker::services::localstorage_service"><path d="M978.5,95.5 L1331.5,95.5 A3.75,3.75 0 0 1 1334,98 L1341,117.7969 L1347.5,117.7969 A2.5,2.5 0 0 1 1350,120.2969 L1350,404 A2.5,2.5 0 0 1 1347.5,406.5 L978.5,406.5 A2.5,2.5 0 0 1 976,404 L976,98 A2.5,2.5 0 0 1 978.5,95.5 " style="stroke:#000000;stroke-width:1.5;fill:none;"/><line style="stroke:#000000;stroke-width:1.5;fill:none;" x1="976" x2="1341" y1="117.7969" y2="117.7969"/><text fill="#000000" font-family="sans-serif" font-size="14" font-weight="bold" lengthAdjust="spacing" textLength="352" x="980" y="110.4951">imu_tracker::services::localstorage_service</text></g><!--MD5=[2258d656ff880ad4280ddf255d79cf68]
class imu_tracker::services::device_settings_handler.dart::DeviceSettingsHandler--><g id="elem_imu_tracker::services::device_settings_handler.dart::DeviceSettingsHandler"><rect codeLine="1" fill="#F1F1F1" height="113.1875" id="imu_tracker::services::device_settings_handler.dart::DeviceSettingsHandler" rx="2.5" ry="2.5" style="stroke:#181818;stroke-width:0.5;" width="408" x="22" y="204"/><ellipse cx="119.25" cy="220" fill="#ADD1B2" rx="11" ry="11" style="stroke:#181818;stroke-width:1.0;"/><path d="M121.5938,215.6719 C120.6563,215.2344 120.0625,215.0938 119.1875,215.0938 C116.5625,215.0938 114.5625,217.1719 114.5625,219.8906 L114.5625,221.0156 C114.5625,223.5938 116.6719,225.4844 119.5625,225.4844 C120.7813,225.4844 121.9375,225.1875 122.6875,224.6406 C123.2656,224.2344 123.5938,223.7813 123.5938,223.3906 C123.5938,222.9375 123.2031,222.5469 122.7344,222.5469 C122.5156,222.5469 122.3125,222.625 122.125,222.8125 C121.6719,223.2969 121.6719,223.2969 121.4844,223.3906 C121.0625,223.6563 120.375,223.7813 119.6094,223.7813 C117.5625,223.7813 116.2656,222.6875 116.2656,220.9844 L116.2656,219.8906 C116.2656,218.1094 117.5156,216.7969 119.25,216.7969 C119.8281,216.7969 120.4375,216.9531 120.9063,217.2031 C121.3906,217.4844 121.5625,217.7031 121.6563,218.1094 C121.7188,218.5156 121.75,218.6406 121.8906,218.7656 C122.0313,218.9063 122.2656,219.0156 122.4844,219.0156 C122.75,219.0156 123.0156,218.875 123.1875,218.6563 C123.2969,218.5 123.3281,218.3125 123.3281,217.8906 L123.3281,216.4688 C123.3281,216.0313 123.3125,215.9063 123.2188,215.75 C123.0625,215.4844 122.7813,215.3438 122.4844,215.3438 C122.1875,215.3438 121.9844,215.4375 121.7656,215.75 L121.5938,215.6719 Z " fill="#000000"/><text fill="#000000" font-family="sans-serif" font-size="14" lengthAdjust="spacing" textLength="205" x="139.75" y="224.8467">dart::DeviceSettingsHandler</text><line style="stroke:#181818;stroke-width:0.5;" x1="23" x2="429" y1="236" y2="236"/><ellipse cx="33" cy="247" fill="none" rx="3" ry="3" style="stroke:#038048;stroke-width:1.0;"/><text fill="#000000" font-family="sans-serif" font-size="14" lengthAdjust="spacing" textLength="172" x="42" y="252.9951">dynamic deviceSettings</text><line style="stroke:#181818;stroke-width:0.5;" x1="23" x2="429" y1="260.2969" y2="260.2969"/><ellipse cx="33" cy="271.2969" fill="#84BE84" rx="3" ry="3" style="stroke:#038048;stroke-width:1.0;"/><text fill="#000000" font-family="sans-serif" font-size="14" lengthAdjust="spacing" textLength="382" x="42" y="277.292">dynamic writeNewDeviceSettingsToInternalStorage()</text><ellipse cx="33" cy="287.5938" fill="#84BE84" rx="3" ry="3" style="stroke:#038048;stroke-width:1.0;"/><text fill="#000000" font-family="sans-serif" font-size="14" lengthAdjust="spacing" textLength="304" x="42" y="293.5889">dynamic getDeviceSettingsFromMemory()</text><rect fill="#F24D5C" height="6" style="stroke:#C82930;stroke-width:1.0;" width="6" x="30" y="300.8906"/><text fill="#000000" font-family="sans-serif" font-size="14" lengthAdjust="spacing" textLength="256" x="42" y="309.8857">dynamic _decodeSettingsMessage()</text></g><!--MD5=[4d7a23fd2ed1f94c2225b863f232ac03]
class imu_tracker::services::internal_sensor_service.dart::InternalSensorService--><g id="elem_imu_tracker::services::internal_sensor_service.dart::InternalSensorService"><rect codeLine="8" fill="#F1F1F1" height="439.125" id="imu_tracker::services::internal_sensor_service.dart::InternalSensorService" rx="2.5" ry="2.5" style="stroke:#181818;stroke-width:0.5;" width="450" x="486" y="41"/><ellipse cx="607.75" cy="57" fill="#ADD1B2" rx="11" ry="11" style="stroke:#181818;stroke-width:1.0;"/><path d="M610.0938,52.6719 C609.1563,52.2344 608.5625,52.0938 607.6875,52.0938 C605.0625,52.0938 603.0625,54.1719 603.0625,56.8906 L603.0625,58.0156 C603.0625,60.5938 605.1719,62.4844 608.0625,62.4844 C609.2813,62.4844 610.4375,62.1875 611.1875,61.6406 C611.7656,61.2344 612.0938,60.7813 612.0938,60.3906 C612.0938,59.9375 611.7031,59.5469 611.2344,59.5469 C611.0156,59.5469 610.8125,59.625 610.625,59.8125 C610.1719,60.2969 610.1719,60.2969 609.9844,60.3906 C609.5625,60.6563 608.875,60.7813 608.1094,60.7813 C606.0625,60.7813 604.7656,59.6875 604.7656,57.9844 L604.7656,56.8906 C604.7656,55.1094 606.0156,53.7969 607.75,53.7969 C608.3281,53.7969 608.9375,53.9531 609.4063,54.2031 C609.8906,54.4844 610.0625,54.7031 610.1563,55.1094 C610.2188,55.5156 610.25,55.6406 610.3906,55.7656 C610.5313,55.9063 610.7656,56.0156 610.9844,56.0156 C611.25,56.0156 611.5156,55.875 611.6875,55.6563 C611.7969,55.5 611.8281,55.3125 611.8281,54.8906 L611.8281,53.4688 C611.8281,53.0313 611.8125,52.9063 611.7188,52.75 C611.5625,52.4844 611.2813,52.3438 610.9844,52.3438 C610.6875,52.3438 610.4844,52.4375 610.2656,52.75 L610.0938,52.6719 Z " fill="#000000"/><text fill="#000000" font-family="sans-serif" font-size="14" lengthAdjust="spacing" textLength="198" x="628.25" y="61.8467">dart::InternalSensorService</text><line style="stroke:#181818;stroke-width:0.5;" x1="487" x2="935" y1="73" y2="73"/><rect fill="none" height="6" style="stroke:#C82930;stroke-width:1.0;" width="6" x="494" y="81"/><text fill="#000000" font-family="sans-serif" font-size="14" lengthAdjust="spacing" textLength="284" x="506" y="89.9951">DeviceSettingsHandler _deviceSettings</text><rect fill="none" height="6" style="stroke:#C82930;stroke-width:1.0;" width="6" x="494" y="97.2969"/><text fill="#000000" font-family="sans-serif" font-size="14" lengthAdjust="spacing" textLength="286" x="506" y="106.292">NotificationService _notificationService</text><rect fill="none" height="6" style="stroke:#C82930;stroke-width:1.0;" width="6" x="494" y="113.5938"/><text fill="#000000" font-family="sans-serif" font-size="14" lengthAdjust="spacing" textLength="192" x="506" y="122.5889">BatteryInfoPlugin _battery</text><rect fill="none" height="6" style="stroke:#C82930;stroke-width:1.0;" width="6" x="494" y="129.8906"/><text fill="#000000" font-family="sans-serif" font-size="14" lengthAdjust="spacing" textLength="424" x="506" y="138.8857">StreamSubscription&lt;dynamic&gt;? _accelerationSubscription</text><rect fill="none" height="6" style="stroke:#C82930;stroke-width:1.0;" width="6" x="494" y="146.1875"/><text fill="#000000" font-family="sans-serif" font-size="14" lengthAdjust="spacing" textLength="410" x="506" y="155.1826">StreamSubscription&lt;dynamic&gt;? _gyroscopeSubscription</text><rect fill="none" height="6" style="stroke:#C82930;stroke-width:1.0;" width="6" x="494" y="162.4844"/><text fill="#000000" font-family="sans-serif" font-size="14" lengthAdjust="spacing" textLength="181" x="506" y="171.4795">Timer? _movementTimer</text><rect fill="none" height="6" style="stroke:#C82930;stroke-width:1.0;" width="6" x="494" y="178.7813"/><text fill="#000000" font-family="sans-serif" font-size="14" lengthAdjust="spacing" textLength="206" x="506" y="187.7764">dynamic _accelerationValues</text><rect fill="none" height="6" style="stroke:#C82930;stroke-width:1.0;" width="6" x="494" y="195.0781"/><text fill="#000000" font-family="sans-serif" font-size="14" lengthAdjust="spacing" textLength="192" x="506" y="204.0732">dynamic _gyroscopeValues</text><ellipse cx="497" cy="214.375" fill="none" rx="3" ry="3" style="stroke:#038048;stroke-width:1.0;"/><text fill="#000000" font-family="sans-serif" font-size="14" lengthAdjust="spacing" textLength="249" x="506" y="220.3701">dynamic magnitudeAccelerometer</text><ellipse cx="497" cy="230.6719" fill="none" rx="3" ry="3" style="stroke:#038048;stroke-width:1.0;"/><text fill="#000000" font-family="sans-serif" font-size="14" lengthAdjust="spacing" textLength="218" x="506" y="236.667">dynamic magnitudeGyroscope</text><ellipse cx="497" cy="246.9688" fill="none" rx="3" ry="3" style="stroke:#038048;stroke-width:1.0;"/><text fill="#000000" font-family="sans-serif" font-size="14" lengthAdjust="spacing" textLength="157" x="506" y="252.9639">dynamic batteryLevel</text><ellipse cx="497" cy="263.2656" fill="none" rx="3" ry="3" style="stroke:#038048;stroke-width:1.0;"/><text fill="#000000" font-family="sans-serif" font-size="14" lengthAdjust="spacing" textLength="206" x="506" y="269.2607">dynamic deviceTemperature</text><ellipse cx="497" cy="279.5625" fill="none" rx="3" ry="3" style="stroke:#038048;stroke-width:1.0;"/><text fill="#000000" font-family="sans-serif" font-size="14" lengthAdjust="spacing" textLength="311" x="506" y="285.5576">ValueNotifier&lt;bool&gt; movementAlarmstate</text><ellipse cx="497" cy="295.8594" fill="none" rx="3" ry="3" style="stroke:#038048;stroke-width:1.0;"/><text fill="#000000" font-family="sans-serif" font-size="14" lengthAdjust="spacing" textLength="287" x="506" y="301.8545">ValueNotifier&lt;bool&gt; batteryAlarmstate</text><line style="stroke:#181818;stroke-width:0.5;" x1="487" x2="935" y1="309.1563" y2="309.1563"/><ellipse cx="497" cy="320.1563" fill="#84BE84" rx="3" ry="3" style="stroke:#038048;stroke-width:1.0;"/><text fill="#000000" font-family="sans-serif" font-size="14" lengthAdjust="spacing" textLength="221" x="506" y="326.1514">dynamic startInternalSensors()</text><rect fill="#F24D5C" height="6" style="stroke:#C82930;stroke-width:1.0;" width="6" x="494" y="333.4531"/><text fill="#000000" font-family="sans-serif" font-size="14" lengthAdjust="spacing" textLength="242" x="506" y="342.4482">dynamic _startGyroscopeSensor()</text><rect fill="#F24D5C" height="6" style="stroke:#C82930;stroke-width:1.0;" width="6" x="494" y="349.75"/><text fill="#000000" font-family="sans-serif" font-size="14" lengthAdjust="spacing" textLength="256" x="506" y="358.7451">dynamic _startAccelerationSensor()</text><rect fill="#F24D5C" height="6" style="stroke:#C82930;stroke-width:1.0;" width="6" x="494" y="366.0469"/><text fill="#000000" font-family="sans-serif" font-size="14" lengthAdjust="spacing" textLength="220" x="506" y="375.042">dynamic _startBatterySensor()</text><ellipse cx="497" cy="385.3438" fill="#84BE84" rx="3" ry="3" style="stroke:#038048;stroke-width:1.0;"/><text fill="#000000" font-family="sans-serif" font-size="14" lengthAdjust="spacing" textLength="200" x="506" y="391.3389">dynamic getCurrentValues()</text><rect fill="#F24D5C" height="6" style="stroke:#C82930;stroke-width:1.0;" width="6" x="494" y="398.6406"/><text fill="#000000" font-family="sans-serif" font-size="14" lengthAdjust="spacing" textLength="297" x="506" y="407.6357">dynamic _calculateGyroscopeMagnitude()</text><rect fill="#F24D5C" height="6" style="stroke:#C82930;stroke-width:1.0;" width="6" x="494" y="414.9375"/><text fill="#000000" font-family="sans-serif" font-size="14" lengthAdjust="spacing" textLength="328" x="506" y="423.9326">dynamic _calculateAccelerometerMagnitude()</text><rect fill="#F24D5C" height="6" style="stroke:#C82930;stroke-width:1.0;" width="6" x="494" y="431.2344"/><text fill="#000000" font-family="sans-serif" font-size="14" lengthAdjust="spacing" textLength="261" x="506" y="440.2295">dynamic _checkMovementTimeout()</text><rect fill="#F24D5C" height="6" style="stroke:#C82930;stroke-width:1.0;" width="6" x="494" y="447.5313"/><text fill="#000000" font-family="sans-serif" font-size="14" lengthAdjust="spacing" textLength="259" x="506" y="456.5264">dynamic _checkBatteryAlarmstate()</text><rect fill="#F24D5C" height="6" style="stroke:#C82930;stroke-width:1.0;" width="6" x="494" y="463.8281"/><text fill="#000000" font-family="sans-serif" font-size="14" lengthAdjust="spacing" textLength="162" x="506" y="472.8232">dynamic _sqrVariable()</text></g><!--MD5=[bc51c07b408346f236d279b7a32bade8]
class imu_tracker::services::localstorage_service.dart::LocalStorageService--><g id="elem_imu_tracker::services::localstorage_service.dart::LocalStorageService"><rect codeLine="35" fill="#F1F1F1" height="259.8594" id="imu_tracker::services::localstorage_service.dart::LocalStorageService" rx="2.5" ry="2.5" style="stroke:#181818;stroke-width:0.5;" width="341" x="992.5" y="130.5"/><ellipse cx="1065.25" cy="146.5" fill="#ADD1B2" rx="11" ry="11" style="stroke:#181818;stroke-width:1.0;"/><path d="M1067.5938,142.1719 C1066.6563,141.7344 1066.0625,141.5938 1065.1875,141.5938 C1062.5625,141.5938 1060.5625,143.6719 1060.5625,146.3906 L1060.5625,147.5156 C1060.5625,150.0938 1062.6719,151.9844 1065.5625,151.9844 C1066.7813,151.9844 1067.9375,151.6875 1068.6875,151.1406 C1069.2656,150.7344 1069.5938,150.2813 1069.5938,149.8906 C1069.5938,149.4375 1069.2031,149.0469 1068.7344,149.0469 C1068.5156,149.0469 1068.3125,149.125 1068.125,149.3125 C1067.6719,149.7969 1067.6719,149.7969 1067.4844,149.8906 C1067.0625,150.1563 1066.375,150.2813 1065.6094,150.2813 C1063.5625,150.2813 1062.2656,149.1875 1062.2656,147.4844 L1062.2656,146.3906 C1062.2656,144.6094 1063.5156,143.2969 1065.25,143.2969 C1065.8281,143.2969 1066.4375,143.4531 1066.9063,143.7031 C1067.3906,143.9844 1067.5625,144.2031 1067.6563,144.6094 C1067.7188,145.0156 1067.75,145.1406 1067.8906,145.2656 C1068.0313,145.4063 1068.2656,145.5156 1068.4844,145.5156 C1068.75,145.5156 1069.0156,145.375 1069.1875,145.1563 C1069.2969,145 1069.3281,144.8125 1069.3281,144.3906 L1069.3281,142.9688 C1069.3281,142.5313 1069.3125,142.4063 1069.2188,142.25 C1069.0625,141.9844 1068.7813,141.8438 1068.4844,141.8438 C1068.1875,141.8438 1067.9844,141.9375 1067.7656,142.25 L1067.5938,142.1719 Z " fill="#000000"/><text fill="#000000" font-family="sans-serif" font-size="14" lengthAdjust="spacing" textLength="187" x="1085.75" y="151.3467">dart::LocalStorageService</text><line style="stroke:#181818;stroke-width:0.5;" x1="993.5" x2="1332.5" y1="162.5" y2="162.5"/><rect fill="none" height="6" style="stroke:#C82930;stroke-width:1.0;" width="6" x="1000.5" y="170.5"/><text fill="#000000" font-family="sans-serif" font-size="14" lengthAdjust="spacing" text-decoration="underline" textLength="219" x="1012.5" y="179.4951">LocalStorageService _instance</text><rect fill="none" height="6" style="stroke:#C82930;stroke-width:1.0;" width="6" x="1000.5" y="186.7969"/><text fill="#000000" font-family="sans-serif" font-size="14" lengthAdjust="spacing" text-decoration="underline" textLength="236" x="1012.5" y="195.792">SharedPreferences _preferences</text><ellipse cx="1003.5" cy="206.0938" fill="none" rx="3" ry="3" style="stroke:#038048;stroke-width:1.0;"/><text fill="#000000" font-family="sans-serif" font-size="14" lengthAdjust="spacing" text-decoration="underline" textLength="172" x="1012.5" y="212.0889">dynamic deviceSettings</text><ellipse cx="1003.5" cy="222.3906" fill="none" rx="3" ry="3" style="stroke:#038048;stroke-width:1.0;"/><text fill="#000000" font-family="sans-serif" font-size="14" lengthAdjust="spacing" text-decoration="underline" textLength="177" x="1012.5" y="228.3857">String deviceIsSetUpKey</text><rect fill="none" height="6" style="stroke:#C82930;stroke-width:1.0;" width="6" x="1000.5" y="235.6875"/><text fill="#000000" font-family="sans-serif" font-size="14" lengthAdjust="spacing" text-decoration="underline" textLength="234" x="1012.5" y="244.6826">String _authenticationValuesKey</text><rect fill="none" height="6" style="stroke:#C82930;stroke-width:1.0;" width="6" x="1000.5" y="251.9844"/><text fill="#000000" font-family="sans-serif" font-size="14" lengthAdjust="spacing" text-decoration="underline" textLength="236" x="1012.5" y="260.9795">String _deviceSettingsValuesKey</text><line style="stroke:#181818;stroke-width:0.5;" x1="993.5" x2="1332.5" y1="268.2813" y2="268.2813"/><ellipse cx="1003.5" cy="279.2813" fill="#84BE84" rx="3" ry="3" style="stroke:#038048;stroke-width:1.0;"/><text fill="#000000" font-family="sans-serif" font-size="14" lengthAdjust="spacing" text-decoration="underline" textLength="315" x="1012.5" y="285.2764">Future&lt;LocalStorageService&gt; getInstance()</text><ellipse cx="1003.5" cy="295.5781" fill="#84BE84" rx="3" ry="3" style="stroke:#038048;stroke-width:1.0;"/><text fill="#000000" font-family="sans-serif" font-size="14" lengthAdjust="spacing" text-decoration="underline" textLength="265" x="1012.5" y="301.5732">void writeAuthenticationToMemory()</text><ellipse cx="1003.5" cy="311.875" fill="#84BE84" rx="3" ry="3" style="stroke:#038048;stroke-width:1.0;"/><text fill="#000000" font-family="sans-serif" font-size="14" lengthAdjust="spacing" text-decoration="underline" textLength="267" x="1012.5" y="317.8701">void writeDeviceSettingsToMemory()</text><ellipse cx="1003.5" cy="328.1719" fill="#84BE84" rx="3" ry="3" style="stroke:#038048;stroke-width:1.0;"/><text fill="#000000" font-family="sans-serif" font-size="14" lengthAdjust="spacing" text-decoration="underline" textLength="302" x="1012.5" y="334.167">dynamic getAuthenticationFromMemory()</text><ellipse cx="1003.5" cy="344.4688" fill="#84BE84" rx="3" ry="3" style="stroke:#038048;stroke-width:1.0;"/><text fill="#000000" font-family="sans-serif" font-size="14" lengthAdjust="spacing" text-decoration="underline" textLength="304" x="1012.5" y="350.4639">dynamic getDeviceSettingsFromMemory()</text><ellipse cx="1003.5" cy="360.7656" fill="#84BE84" rx="3" ry="3" style="stroke:#038048;stroke-width:1.0;"/><text fill="#000000" font-family="sans-serif" font-size="14" lengthAdjust="spacing" text-decoration="underline" textLength="206" x="1012.5" y="366.7607">void setDeviceIsRegistered()</text><ellipse cx="1003.5" cy="377.0625" fill="#84BE84" rx="3" ry="3" style="stroke:#038048;stroke-width:1.0;"/><text fill="#000000" font-family="sans-serif" font-size="14" lengthAdjust="spacing" text-decoration="underline" textLength="238" x="1012.5" y="383.0576">dynamic getDeviceIsRegistered()</text></g><!--MD5=[fb3f36b2c6bfd6778bb3e7122baab8fb]
@startuml
class "imu_tracker::services::device_settings_handler.dart::DeviceSettingsHandler" {
  +dynamic deviceSettings
  +dynamic writeNewDeviceSettingsToInternalStorage()
  +dynamic getDeviceSettingsFromMemory()
  -dynamic _decodeSettingsMessage()
}

class "imu_tracker::services::internal_sensor_service.dart::InternalSensorService" {
  -DeviceSettingsHandler _deviceSettings
  -NotificationService _notificationService
  -BatteryInfoPlugin _battery
  -StreamSubscription<dynamic>? _accelerationSubscription
  -StreamSubscription<dynamic>? _gyroscopeSubscription
  -Timer? _movementTimer
  -dynamic _accelerationValues
  -dynamic _gyroscopeValues
  +dynamic magnitudeAccelerometer
  +dynamic magnitudeGyroscope
  +dynamic batteryLevel
  +dynamic deviceTemperature
  +ValueNotifier<bool> movementAlarmstate
  +ValueNotifier<bool> batteryAlarmstate
  +dynamic startInternalSensors()
  -dynamic _startGyroscopeSensor()
  -dynamic _startAccelerationSensor()
  -dynamic _startBatterySensor()
  +dynamic getCurrentValues()
  -dynamic _calculateGyroscopeMagnitude()
  -dynamic _calculateAccelerometerMagnitude()
  -dynamic _checkMovementTimeout()
  -dynamic _checkBatteryAlarmstate()
  -dynamic _sqrVariable()
}

class "imu_tracker::services::localstorage_service.dart::LocalStorageService" {
  {static} -LocalStorageService _instance
  {static} -SharedPreferences _preferences
  {static} +dynamic deviceSettings
  {static} +String deviceIsSetUpKey
  {static} -String _authenticationValuesKey
  {static} -String _deviceSettingsValuesKey
  {static} +Future<LocalStorageService> getInstance()
  {static} +void writeAuthenticationToMemory()
  {static} +void writeDeviceSettingsToMemory()
  {static} +dynamic getAuthenticationFromMemory()
  {static} +dynamic getDeviceSettingsFromMemory()
  {static} +void setDeviceIsRegistered()
  {static} +dynamic getDeviceIsRegistered()
}
@enduml

PlantUML version 1.2022.4beta2(Unknown compile time)
(GPL source distribution)
Java Runtime: Java(TM) SE Runtime Environment
JVM: Java HotSpot(TM) 64-Bit Server VM
Default Encoding: UTF-8
Language: en
Country: US
--></g></svg>