<?xml version="1.0" encoding="UTF-8"?><svg xmlns="http://www.w3.org/2000/svg" xmlns:xlink="http://www.w3.org/1999/xlink" fill-opacity="1" color-rendering="auto" color-interpolation="auto" text-rendering="auto" stroke="black" stroke-linecap="square" width="897" stroke-miterlimit="10" shape-rendering="auto" stroke-opacity="1" fill="black" stroke-dasharray="none" font-weight="normal" stroke-width="1" height="315" font-family="'Dialog'" font-style="normal" stroke-linejoin="miter" font-size="12px" stroke-dashoffset="0" image-rendering="auto">
  <!--Generated by ySVG 2.6-->
  <defs id="genericDefs"/>
  <g>
    <defs id="defs1">
      <clipPath clipPathUnits="userSpaceOnUse" id="clipPath1">
        <path d="M0 0 L897 0 L897 315 L0 315 L0 0 Z"/>
      </clipPath>
      <clipPath clipPathUnits="userSpaceOnUse" id="clipPath2">
        <path d="M718 425 L1615 425 L1615 740 L718 740 L718 425 Z"/>
      </clipPath>
    </defs>
    <g fill="white" text-rendering="geometricPrecision" shape-rendering="geometricPrecision" transform="translate(-718,-425)" stroke="white">
      <rect x="718" width="897" height="315" y="425" clip-path="url(#clipPath2)" stroke="none"/>
    </g>
    <g fill="rgb(255,153,204)" text-rendering="geometricPrecision" shape-rendering="geometricPrecision" transform="matrix(1,0,0,1,-718,-425)" stroke="rgb(255,153,204)">
      <circle r="15" clip-path="url(#clipPath2)" cx="896.4521" cy="560.3828" stroke="none"/>
    </g>
    <g text-rendering="geometricPrecision" stroke-miterlimit="1.45" shape-rendering="geometricPrecision" transform="matrix(1,0,0,1,-718,-425)" stroke-linecap="butt">
      <circle fill="none" r="15" clip-path="url(#clipPath2)" cx="896.4521" cy="560.3828"/>
      <text x="886.6669" font-size="8px" y="558.6249" clip-path="url(#clipPath2)" font-family="sans-serif" stroke="none" xml:space="preserve">event</text>
      <text x="885.1142" font-size="8px" y="568.4257" clip-path="url(#clipPath2)" font-family="sans-serif" stroke="none" xml:space="preserve">trigger</text>
    </g>
    <g fill="rgb(204,255,204)" text-rendering="geometricPrecision" shape-rendering="geometricPrecision" transform="matrix(1,0,0,1,-718,-425)" stroke="rgb(204,255,204)">
      <circle r="15" clip-path="url(#clipPath2)" cx="995.185" cy="611.7671" stroke="none"/>
    </g>
    <g text-rendering="geometricPrecision" stroke-miterlimit="1.45" shape-rendering="geometricPrecision" transform="matrix(1,0,0,1,-718,-425)" stroke-linecap="butt">
      <circle fill="none" r="15" clip-path="url(#clipPath2)" cx="995.185" cy="611.7671"/>
      <text x="982.9506" font-size="8px" y="610.0093" clip-path="url(#clipPath2)" font-family="sans-serif" stroke="none" xml:space="preserve">update</text>
      <text x="983.8471" font-size="8px" y="619.8101" clip-path="url(#clipPath2)" font-family="sans-serif" stroke="none" xml:space="preserve">trigger</text>
    </g>
    <g fill="rgb(204,255,204)" text-rendering="geometricPrecision" shape-rendering="geometricPrecision" transform="matrix(1,0,0,1,-718,-425)" stroke="rgb(204,255,204)">
      <circle r="15" clip-path="url(#clipPath2)" cx="1042.4402" cy="674.1136" stroke="none"/>
    </g>
    <g text-rendering="geometricPrecision" stroke-miterlimit="1.45" shape-rendering="geometricPrecision" transform="matrix(1,0,0,1,-718,-425)" stroke-linecap="butt">
      <circle fill="none" r="15" clip-path="url(#clipPath2)" cx="1042.4402" cy="674.1136"/>
      <text x="1030.2058" font-size="8px" y="672.3558" clip-path="url(#clipPath2)" font-family="sans-serif" stroke="none" xml:space="preserve">update</text>
      <text x="1031.1023" font-size="8px" y="682.1566" clip-path="url(#clipPath2)" font-family="sans-serif" stroke="none" xml:space="preserve">trigger</text>
    </g>
    <g fill="rgb(204,255,204)" text-rendering="geometricPrecision" shape-rendering="geometricPrecision" transform="matrix(1,0,0,1,-718,-425)" stroke="rgb(204,255,204)">
      <circle r="15" clip-path="url(#clipPath2)" cx="956.4521" cy="505.7202" stroke="none"/>
    </g>
    <g text-rendering="geometricPrecision" stroke-miterlimit="1.45" shape-rendering="geometricPrecision" transform="matrix(1,0,0,1,-718,-425)" stroke-linecap="butt">
      <circle fill="none" r="15" clip-path="url(#clipPath2)" cx="956.4521" cy="505.7202"/>
      <text x="944.2177" font-size="8px" y="503.9623" clip-path="url(#clipPath2)" font-family="sans-serif" stroke="none" xml:space="preserve">update</text>
      <text x="945.1142" font-size="8px" y="513.7631" clip-path="url(#clipPath2)" font-family="sans-serif" stroke="none" xml:space="preserve">trigger</text>
      <path fill="none" d="M906.0079 548.8036 L909.499 544.5734 L923.848 530.1931 L939.499 517.2421 L944.0353 514.1591" clip-path="url(#clipPath2)"/>
      <ellipse rx="134.1669" fill="none" ry="39.6763" clip-path="url(#clipPath2)" cx="1465.3202" cy="685.1829"/>
      <text x="1389.0348" font-size="15px" y="662.5872" clip-path="url(#clipPath2)" font-family="sans-serif" stroke="none" xml:space="preserve">connected (subscriber)</text>
    </g>
    <g fill="rgb(204,255,204)" text-rendering="geometricPrecision" shape-rendering="geometricPrecision" transform="matrix(1,0,0,1,-718,-425)" stroke="rgb(204,255,204)">
      <rect x="1386.4428" width="56.0152" height="20.3756" y="684.4836" clip-path="url(#clipPath2)" stroke="none"/>
    </g>
    <g text-rendering="geometricPrecision" stroke-miterlimit="1.45" stroke-dasharray="6,2" shape-rendering="geometricPrecision" transform="matrix(1,0,0,1,-718,-425)" stroke-linecap="butt">
      <rect fill="none" x="1386.4428" width="56.0152" height="20.3756" y="684.4836" clip-path="url(#clipPath2)"/>
      <text x="1396.7786" y="699.3853" clip-path="url(#clipPath2)" font-family="sans-serif" stroke-dasharray="none" stroke="none" xml:space="preserve">Server</text>
    </g>
    <g fill="rgb(51,102,255)" text-rendering="geometricPrecision" shape-rendering="geometricPrecision" transform="matrix(1,0,0,1,-718,-425)" stroke="rgb(51,102,255)">
      <rect x="1482.5" width="62.2482" height="20.3756" y="684.4836" clip-path="url(#clipPath2)" stroke="none"/>
    </g>
    <g text-rendering="geometricPrecision" stroke-miterlimit="1.45" stroke-dasharray="6,2" shape-rendering="geometricPrecision" transform="matrix(1,0,0,1,-718,-425)" stroke-linecap="butt">
      <rect fill="none" x="1482.5" width="62.2482" height="20.3756" y="684.4836" clip-path="url(#clipPath2)"/>
      <text x="1483.9493" y="699.3853" clip-path="url(#clipPath2)" font-family="sans-serif" stroke-dasharray="none" stroke="none" xml:space="preserve">Web-Client</text>
      <path fill="none" stroke-dasharray="none" d="M1450.458 694.6714 L1474.5 694.6714" clip-path="url(#clipPath2)"/>
      <path stroke-dasharray="none" d="M1442.458 694.6714 L1454.458 699.6714 L1451.458 694.6714 L1454.458 689.6714 Z" clip-path="url(#clipPath2)" stroke="none"/>
      <path stroke-dasharray="none" d="M1482.5 694.6714 L1470.5 689.6714 L1473.5 694.6714 L1470.5 699.6714 Z" clip-path="url(#clipPath2)" stroke="none"/>
      <ellipse clip-path="url(#clipPath2)" fill="none" rx="134.4422" stroke-dasharray="none" cx="1166.711" ry="40.0587" cy="594.5919"/>
      <text x="1086.6573" font-size="15px" y="571.6138" clip-path="url(#clipPath2)" font-family="sans-serif" stroke-dasharray="none" stroke="none" xml:space="preserve">connected (unassigned)</text>
    </g>
    <g fill="rgb(204,255,204)" text-rendering="geometricPrecision" shape-rendering="geometricPrecision" transform="matrix(1,0,0,1,-718,-425)" stroke="rgb(204,255,204)">
      <rect x="1092.5997" width="56.0152" height="20.3756" y="594.275" clip-path="url(#clipPath2)" stroke="none"/>
    </g>
    <g text-rendering="geometricPrecision" stroke-miterlimit="1.45" stroke-dasharray="6,2" shape-rendering="geometricPrecision" transform="matrix(1,0,0,1,-718,-425)" stroke-linecap="butt">
      <rect fill="none" x="1092.5997" width="56.0152" height="20.3756" y="594.275" clip-path="url(#clipPath2)"/>
      <text x="1102.9354" y="609.1766" clip-path="url(#clipPath2)" font-family="sans-serif" stroke-dasharray="none" stroke="none" xml:space="preserve">Server</text>
    </g>
    <g fill="silver" text-rendering="geometricPrecision" shape-rendering="geometricPrecision" transform="matrix(1,0,0,1,-718,-425)" stroke="silver">
      <rect x="1188.6569" width="62.2482" height="20.3756" y="594.275" clip-path="url(#clipPath2)" stroke="none"/>
    </g>
    <g text-rendering="geometricPrecision" stroke-miterlimit="1.45" stroke-dasharray="6,2" shape-rendering="geometricPrecision" transform="matrix(1,0,0,1,-718,-425)" stroke-linecap="butt">
      <rect fill="none" x="1188.6569" width="62.2482" height="20.3756" y="594.275" clip-path="url(#clipPath2)"/>
      <text x="1204.4412" y="609.1766" clip-path="url(#clipPath2)" font-family="sans-serif" stroke-dasharray="none" stroke="none" xml:space="preserve">Client</text>
      <path fill="none" stroke-dasharray="none" d="M1368.6576 657.6906 L1367.8208 653.6836 L1360.9667 635.8917 L1351.6754 621.4585 L1346.1158 615.5014 L1339.9469 610.3839 L1333.1687 606.1061 L1325.7811 602.668 L1309.1781 598.3107 L1308.7255 598.2869" clip-path="url(#clipPath2)"/>
      <path stroke-dasharray="none" d="M1300.7365 597.8679 L1312.458 603.4896 L1309.7241 598.3393 L1312.9819 593.5033 Z" clip-path="url(#clipPath2)" stroke="none"/>
      <text x="1347.9731" font-size="8px" y="613.7857" clip-path="url(#clipPath2)" font-family="sans-serif" stroke-dasharray="none" stroke="none" xml:space="preserve">unsubscribe</text>
      <path fill="none" stroke-dasharray="none" d="M1008.8394 605.5626 L1015.9722 602.9795 L1025.3959 600.6957 L1025.4951 600.6833" clip-path="url(#clipPath2)"/>
      <path stroke-dasharray="none" d="M1033.4169 599.5674 L1020.8367 596.2902 L1024.5049 600.8228 L1022.2316 606.1924 Z" clip-path="url(#clipPath2)" stroke="none"/>
      <path fill="none" stroke-dasharray="none" d="M1274.5942 618.4905 L1275.239 621.5782 L1281.9022 638.9606 L1290.9415 653.194 L1302.3568 664.2784 L1316.1483 672.2137 L1326.1888 675.1862 L1326.2885 675.1949" clip-path="url(#clipPath2)"/>
      <path stroke-dasharray="none" d="M1334.0413 677.1683 L1323.6454 669.3628 L1325.3193 674.9483 L1321.1787 679.0538 Z" clip-path="url(#clipPath2)" stroke="none"/>
      <text x="1257.6755" font-size="8px" y="661.4015" clip-path="url(#clipPath2)" font-family="sans-serif" stroke-dasharray="none" stroke="none" xml:space="preserve">subscribe</text>
      <path fill="none" stroke-dasharray="none" d="M1075.5037 624.0034 L1075.1742 626.1019 L1069.0822 641.999 L1059.663 656.1802 L1052.6176 663.0703" clip-path="url(#clipPath2)"/>
      <rect x="1072.527" y="638.9315" clip-path="url(#clipPath2)" fill="white" width="53.1445" stroke-dasharray="none" height="13.8008" stroke="none"/>
      <text x="1074.527" font-size="8px" y="648.9745" clip-path="url(#clipPath2)" font-family="sans-serif" stroke-dasharray="none" stroke="none" xml:space="preserve">login + apikey</text>
      <path fill="none" stroke-dasharray="none" d="M1156.615 604.4628 L1180.6569 604.4628" clip-path="url(#clipPath2)"/>
      <path stroke-dasharray="none" d="M1148.615 604.4628 L1160.615 609.4628 L1157.615 604.4628 L1160.615 599.4628 Z" clip-path="url(#clipPath2)" stroke="none"/>
      <path stroke-dasharray="none" d="M1188.6569 604.4628 L1176.6569 599.4628 L1179.6569 604.4628 L1176.6569 609.4628 Z" clip-path="url(#clipPath2)" stroke="none"/>
      <ellipse clip-path="url(#clipPath2)" fill="none" rx="99.1527" stroke-dasharray="none" cx="1166.711" ry="36.376" cy="477.0631"/>
      <text x="1119.5907" font-size="15px" y="457.7676" clip-path="url(#clipPath2)" font-family="sans-serif" stroke-dasharray="none" stroke="none" xml:space="preserve">not connected</text>
    </g>
    <g fill="rgb(204,255,204)" text-rendering="geometricPrecision" shape-rendering="geometricPrecision" transform="matrix(1,0,0,1,-718,-425)" stroke="rgb(204,255,204)">
      <rect x="1087.5584" width="56.0152" height="20.3756" y="473.0635" clip-path="url(#clipPath2)" stroke="none"/>
    </g>
    <g text-rendering="geometricPrecision" stroke-miterlimit="1.45" stroke-dasharray="6,2" shape-rendering="geometricPrecision" transform="matrix(1,0,0,1,-718,-425)" stroke-linecap="butt">
      <rect fill="none" x="1087.5584" width="56.0152" height="20.3756" y="473.0635" clip-path="url(#clipPath2)"/>
      <text x="1097.894" y="487.9652" clip-path="url(#clipPath2)" font-family="sans-serif" stroke-dasharray="none" stroke="none" xml:space="preserve">Server</text>
    </g>
    <g fill="white" text-rendering="geometricPrecision" shape-rendering="geometricPrecision" transform="matrix(1,0,0,1,-718,-425)" stroke="white">
      <rect x="1183.6155" width="62.2482" height="20.3756" y="473.0635" clip-path="url(#clipPath2)" stroke="none"/>
    </g>
    <g text-rendering="geometricPrecision" stroke-miterlimit="1.45" stroke-dasharray="6,2" shape-rendering="geometricPrecision" transform="matrix(1,0,0,1,-718,-425)" stroke-linecap="butt">
      <rect fill="none" x="1183.6155" width="62.2482" height="20.3756" y="473.0635" clip-path="url(#clipPath2)"/>
      <text x="1199.3998" y="487.9652" clip-path="url(#clipPath2)" font-family="sans-serif" stroke-dasharray="none" stroke="none" xml:space="preserve">Client</text>
      <path fill="none" stroke-dasharray="none" d="M1479.3081 645.6959 L1475.3756 625.391 L1469.29 603.4171 L1461.7052 583.1507 L1452.6213 564.5917 L1442.0382 547.7403 L1429.9558 532.5963 L1416.3744 519.1597 L1401.2937 507.4307 L1384.714 497.4091 L1366.635 489.0949 L1347.0568 482.4882 L1325.9795 477.589 L1303.403 474.3972 L1279.3273 472.913 L1273.2909 472.9656" clip-path="url(#clipPath2)"/>
      <path stroke-dasharray="none" d="M1265.2911 473.0355 L1277.3344 477.9305 L1274.2908 472.9569 L1277.2471 467.9309 Z" clip-path="url(#clipPath2)" stroke="none"/>
      <text x="1407.3425" font-size="8px" y="495.2692" clip-path="url(#clipPath2)" font-family="sans-serif" stroke-dasharray="none" stroke="none" xml:space="preserve">close ws connection</text>
      <text x="1439.5828" font-size="8px" y="505.07" clip-path="url(#clipPath2)" font-family="sans-serif" stroke-dasharray="none" stroke="none" xml:space="preserve">or</text>
      <text x="1416.4558" font-size="8px" y="514.8708" clip-path="url(#clipPath2)" font-family="sans-serif" stroke-dasharray="none" stroke="none" xml:space="preserve">connection lost</text>
      <path fill="none" stroke-dasharray="none" d="M969.7322 498.6928 L985.2024 490.5067 L1015.1124 478.8997 L1046.1819 470.8994 L1063.0881 468.5946" clip-path="url(#clipPath2)"/>
      <path stroke-dasharray="none" d="M1071.0148 467.514 L1058.4493 464.1808 L1062.0973 468.7297 L1059.8002 474.0891 Z" clip-path="url(#clipPath2)" stroke="none"/>
      <path fill="none" stroke-dasharray="none" d="M1129.0316 556.1687 L1128.5676 554.9456 L1126.8734 544.625 L1127.5804 534.7814 L1130.6888 525.4147 L1135.1288 518.251 L1135.1973 518.1781" clip-path="url(#clipPath2)"/>
      <path stroke-dasharray="none" d="M1140.3732 512.0781 L1128.7969 517.9932 L1134.5503 518.9406 L1136.4219 524.463 Z" clip-path="url(#clipPath2)" stroke="none"/>
      <text x="1051.9227" font-size="8px" y="526.5787" clip-path="url(#clipPath2)" font-family="sans-serif" stroke-dasharray="none" stroke="none" xml:space="preserve">close ws connection</text>
      <text x="1084.163" font-size="8px" y="536.3795" clip-path="url(#clipPath2)" font-family="sans-serif" stroke-dasharray="none" stroke="none" xml:space="preserve">or</text>
      <text x="1061.036" font-size="8px" y="546.1803" clip-path="url(#clipPath2)" font-family="sans-serif" stroke-dasharray="none" stroke="none" xml:space="preserve">connection lost</text>
      <path fill="none" stroke-dasharray="none" d="M1187.6036 512.6292 L1189.0039 514.7521 L1193.1636 523.9958 L1195.1941 532.9487 L1195.0953 541.6108 L1193.433 547.8575 L1193.3855 547.9455" clip-path="url(#clipPath2)"/>
      <path stroke-dasharray="none" d="M1190.0518 555.2178 L1199.5975 546.3929 L1193.8021 547.0364 L1190.5071 542.2258 Z" clip-path="url(#clipPath2)" stroke="none"/>
      <text x="1207.267" font-size="8px" y="533.7811" clip-path="url(#clipPath2)" font-family="sans-serif" stroke-dasharray="none" stroke="none" xml:space="preserve">open ws connection</text>
      <ellipse clip-path="url(#clipPath2)" fill="none" rx="134.1669" stroke-dasharray="none" cx="868.1019" ry="36.376" cy="688.4832"/>
      <text x="796.8226" font-size="15px" y="669.1877" clip-path="url(#clipPath2)" font-family="sans-serif" stroke-dasharray="none" stroke="none" xml:space="preserve">connected (streamer)</text>
    </g>
    <g fill="rgb(204,255,204)" text-rendering="geometricPrecision" shape-rendering="geometricPrecision" transform="matrix(1,0,0,1,-718,-425)" stroke="rgb(204,255,204)">
      <rect x="789.2246" width="56.0152" height="20.3756" y="684.4836" clip-path="url(#clipPath2)" stroke="none"/>
    </g>
    <g text-rendering="geometricPrecision" stroke-miterlimit="1.45" stroke-dasharray="6,2" shape-rendering="geometricPrecision" transform="matrix(1,0,0,1,-718,-425)" stroke-linecap="butt">
      <rect fill="none" x="789.2246" width="56.0152" height="20.3756" y="684.4836" clip-path="url(#clipPath2)"/>
      <text x="799.5603" y="699.3853" clip-path="url(#clipPath2)" font-family="sans-serif" stroke-dasharray="none" stroke="none" xml:space="preserve">Server</text>
    </g>
    <g fill="rgb(255,204,0)" text-rendering="geometricPrecision" shape-rendering="geometricPrecision" transform="matrix(1,0,0,1,-718,-425)" stroke="rgb(255,204,0)">
      <rect x="885.2818" width="62.2482" height="20.3756" y="684.4836" clip-path="url(#clipPath2)" stroke="none"/>
    </g>
    <g text-rendering="geometricPrecision" stroke-miterlimit="1.45" stroke-dasharray="6,2" shape-rendering="geometricPrecision" transform="matrix(1,0,0,1,-718,-425)" stroke-linecap="butt">
      <rect fill="none" x="885.2818" width="62.2482" height="20.3756" y="684.4836" clip-path="url(#clipPath2)"/>
      <text x="888.3922" y="699.3853" clip-path="url(#clipPath2)" font-family="sans-serif" stroke-dasharray="none" stroke="none" xml:space="preserve">App-Client</text>
      <path fill="none" stroke-dasharray="none" d="M1030.203 682.8289 L1026.1758 685.2101 L1017.6967 688.7438 L1009.7094 690.7529 L1009.6098 690.7623" clip-path="url(#clipPath2)"/>
      <path stroke-dasharray="none" d="M1001.6571 691.6312 L1014.1292 695.2983 L1010.6039 690.6537 L1013.0431 685.3575 Z" clip-path="url(#clipPath2)" stroke="none"/>
      <path fill="none" stroke-dasharray="none" d="M961.7219 662.3927 L961.7346 661.4583 L963.3463 653.2028 L965.9517 645.3503 L969.5509 637.9008 L974.1439 630.8543 L983.3881 621.0653" clip-path="url(#clipPath2)"/>
      <rect x="913.4141" y="634.5293" clip-path="url(#clipPath2)" fill="white" width="45.5898" stroke-dasharray="none" height="13.8008" stroke="none"/>
      <text x="915.4141" font-size="8px" y="644.5723" clip-path="url(#clipPath2)" font-family="sans-serif" stroke-dasharray="none" stroke="none" xml:space="preserve">logout + pin</text>
      <path fill="none" stroke-dasharray="none" d="M864.9826 652.0955 L865.9402 638.9101 L868.1336 624.976 L871.4838 611.3804 L875.9907 598.1233 L881.6544 585.2047 L888.3017 572.9438" clip-path="url(#clipPath2)"/>
      <text x="792.9631" font-size="8px" y="599.8298" clip-path="url(#clipPath2)" font-family="sans-serif" stroke-dasharray="none" stroke="none" xml:space="preserve">close ws connection</text>
      <text x="825.2033" font-size="8px" y="609.6306" clip-path="url(#clipPath2)" font-family="sans-serif" stroke-dasharray="none" stroke="none" xml:space="preserve">or</text>
      <text x="802.0764" font-size="8px" y="619.4314" clip-path="url(#clipPath2)" font-family="sans-serif" stroke-dasharray="none" stroke="none" xml:space="preserve">connection lost</text>
      <path fill="none" stroke-dasharray="none" d="M853.2398 694.6714 L877.2818 694.6714" clip-path="url(#clipPath2)"/>
      <path stroke-dasharray="none" d="M845.2398 694.6714 L857.2398 699.6714 L854.2398 694.6714 L857.2398 689.6714 Z" clip-path="url(#clipPath2)" stroke="none"/>
      <path stroke-dasharray="none" d="M885.2818 694.6714 L873.2818 689.6714 L876.2818 694.6714 L873.2818 699.6714 Z" clip-path="url(#clipPath2)" stroke="none"/>
    </g>
  </g>
</svg>
