<?xml version="1.0" encoding="UTF-8" standalone="no"?>
<!DOCTYPE svg PUBLIC "-//W3C//DTD SVG 20010904//EN"
              "http://www.w3.org/TR/2001/REC-SVG-20010904/DTD/svg10.dtd">

<svg xmlns="http://www.w3.org/2000/svg"
     width="3.6in" height="3.6in"
     viewBox="0 0 1080 1080">
  <path id="Auswahl #1"
        fill="none" stroke="black" stroke-width="1"
        d="M 0.00,532.00
           C 0.00,532.00 0.00,345.00 0.00,345.00
             0.00,345.00 0.00,236.00 0.00,236.00
             0.03,217.85 5.05,194.42 10.28,177.00
             31.60,105.93 84.84,46.07 154.00,18.40
             178.03,8.79 210.04,0.04 236.00,0.00
             236.00,0.00 844.00,0.00 844.00,0.00
             866.10,0.03 896.27,7.22 917.00,14.95
             991.21,42.61 1046.91,100.99 1069.72,177.00
             1074.95,194.42 1079.97,217.85 1080.00,236.00
             1080.00,236.00 1080.00,532.00 1080.00,532.00
             1080.00,532.00 974.00,532.00 974.00,532.00
             948.19,532.00 928.04,534.61 907.00,515.83
             884.93,496.13 882.62,481.11 869.12,458.00
             865.84,452.37 859.27,444.74 852.18,449.74
             846.92,453.45 845.53,462.06 844.59,468.00
             844.59,468.00 839.83,515.00 839.83,515.00
             834.58,569.19 826.87,635.67 813.12,688.00
             808.70,704.82 802.09,726.29 792.94,741.00
             789.57,746.41 783.35,754.83 776.00,753.57
             771.81,752.85 767.56,748.86 764.75,745.83
             756.99,737.45 752.27,727.11 747.25,717.00
             731.29,684.86 715.57,622.18 707.58,586.00
             707.58,586.00 683.20,463.00 683.20,463.00
             683.20,463.00 649.42,300.00 649.42,300.00
             649.42,300.00 624.15,193.00 624.15,193.00
             615.31,160.33 607.00,127.49 594.40,96.00
             589.51,83.78 581.14,64.39 570.00,57.11
             559.86,50.48 550.99,55.76 544.96,65.00
             537.11,77.05 532.47,101.57 530.08,116.00
             525.36,144.49 522.89,173.25 520.91,202.00
             520.91,202.00 519.00,231.00 519.00,231.00
             519.00,231.00 518.00,247.00 518.00,247.00
             518.00,247.00 517.00,274.00 517.00,274.00
             517.00,274.00 516.00,289.00 516.00,289.00
             516.00,289.00 515.00,332.00 515.00,332.00
             515.00,332.00 514.00,349.00 514.00,349.00
             514.00,349.00 514.00,377.00 514.00,377.00
             514.00,377.00 513.00,394.00 513.00,394.00
             513.00,394.00 513.00,447.00 513.00,447.00
             513.00,447.00 512.00,464.00 512.00,464.00
             512.00,464.00 512.00,663.00 512.00,663.00
             512.00,663.00 511.00,678.00 511.00,678.00
             511.00,678.00 511.00,753.00 511.00,753.00
             511.00,753.00 510.00,768.00 510.00,768.00
             510.00,768.00 510.00,805.00 510.00,805.00
             510.00,805.00 509.00,822.00 509.00,822.00
             509.00,822.00 509.00,842.00 509.00,842.00
             509.00,842.00 508.04,854.00 508.04,854.00
             508.04,854.00 508.04,871.00 508.04,871.00
             508.04,871.00 507.00,886.00 507.00,886.00
             507.00,886.00 506.00,915.00 506.00,915.00
             506.00,915.00 505.09,925.00 505.09,925.00
             505.09,925.00 504.17,939.00 504.17,939.00
             502.33,958.20 501.19,977.03 497.20,996.00
             497.20,996.00 494.00,1008.00 494.00,1008.00
             486.77,1003.95 480.57,985.92 477.40,978.00
             466.16,949.91 457.01,919.98 448.28,891.00
             415.15,781.01 382.00,670.99 345.67,562.00
             334.49,528.46 321.33,494.02 304.30,463.00
             298.46,452.35 288.18,434.47 276.00,430.80
             257.84,425.33 247.13,449.25 240.75,462.00
             225.46,492.58 209.08,531.94 169.00,532.00
             169.00,532.00 0.00,532.00 0.00,532.00 Z
           M 560.00,70.00
           C 569.58,74.64 577.01,94.14 580.68,104.00
             592.46,135.59 600.52,167.64 609.71,200.00
             609.71,200.00 614.87,221.00 614.87,221.00
             614.87,221.00 629.42,283.00 629.42,283.00
             629.42,283.00 669.20,474.00 669.20,474.00
             677.95,519.36 685.97,565.09 696.87,610.00
             706.17,648.33 720.00,700.76 738.70,735.00
             746.00,748.38 759.31,768.41 776.00,769.81
             785.86,770.64 795.55,763.31 801.33,756.00
             812.38,742.03 820.08,721.07 825.00,704.00
             839.34,654.26 847.32,595.60 852.84,544.00
             852.84,544.00 857.72,494.00 857.72,494.00
             858.38,488.47 858.05,479.56 861.00,475.00
             863.10,482.36 870.06,494.46 874.34,501.00
             891.25,526.85 915.69,547.62 948.00,548.00
             948.00,548.00 1080.00,548.00 1080.00,548.00
             1080.00,548.00 1080.00,844.00 1080.00,844.00
             1079.97,862.15 1074.95,885.58 1069.72,903.00
             1046.91,979.01 991.21,1037.39 917.00,1065.05
             896.27,1072.78 866.10,1079.97 844.00,1080.00
             844.00,1080.00 236.00,1080.00 236.00,1080.00
             217.85,1079.97 194.42,1074.95 177.00,1069.72
             118.40,1052.14 69.84,1014.84 37.32,963.00
             27.25,946.95 18.35,927.98 12.35,910.00
             11.38,907.08 7.36,894.59 7.80,892.32
             8.11,890.74 8.51,890.82 9.00,890.00
             3.97,886.74 3.32,874.79 2.42,869.00
             -0.87,847.77 0.00,826.43 0.00,805.00
             0.00,805.00 0.00,548.00 0.00,548.00
             0.00,548.00 135.00,548.00 135.00,548.00
             157.19,548.00 183.46,550.98 203.00,538.94
             229.27,522.75 241.99,494.50 255.25,468.00
             257.93,462.64 261.14,455.68 264.76,451.02
             266.82,448.37 269.33,445.55 273.00,447.08
             279.84,449.93 289.36,468.18 293.14,475.00
             307.43,500.77 321.57,539.71 331.00,568.00
             331.00,568.00 393.28,764.00 393.28,764.00
             393.28,764.00 441.67,923.00 441.67,923.00
             449.66,947.51 460.47,981.49 471.75,1004.00
             475.89,1012.25 484.03,1027.18 495.00,1025.77
             506.61,1024.29 511.00,1007.61 513.00,998.00
             518.11,973.33 521.71,932.32 522.00,907.00
             522.00,907.00 522.96,897.00 522.96,897.00
             522.96,897.00 522.96,885.00 522.96,885.00
             522.96,885.00 524.00,870.00 524.00,870.00
             524.00,870.00 524.00,856.00 524.00,856.00
             524.00,856.00 525.00,840.00 525.00,840.00
             525.00,840.00 525.00,819.00 525.00,819.00
             525.00,819.00 526.00,802.00 526.00,802.00
             526.00,802.00 526.00,765.00 526.00,765.00
             526.00,765.00 527.00,750.00 527.00,750.00
             527.00,750.00 527.00,687.00 527.00,687.00
             527.00,677.52 525.53,664.33 530.00,656.00
             527.55,655.12 528.05,653.45 528.00,650.99
             528.00,650.99 528.00,623.00 528.00,623.00
             528.00,623.00 528.00,519.00 528.00,519.00
             528.00,519.00 528.00,460.00 528.00,460.00
             528.00,460.00 529.00,443.00 529.00,443.00
             529.00,443.00 529.00,390.00 529.00,390.00
             529.00,390.00 530.00,375.00 530.00,375.00
             530.00,375.00 530.00,347.00 530.00,347.00
             530.00,347.00 531.00,330.00 531.00,330.00
             531.00,330.00 532.00,288.00 532.00,288.00
             532.00,288.00 533.00,265.00 533.00,265.00
             533.00,265.00 534.00,250.00 534.00,250.00
             534.00,250.00 535.00,228.00 535.00,228.00
             535.00,228.00 535.91,217.00 535.91,217.00
             537.85,188.59 539.66,160.26 543.73,132.00
             546.71,111.36 549.57,88.32 560.00,70.00 Z" />
</svg>
